<svg width="180" height="72" viewBox="0 0 180 72" fill="none" xmlns="http://www.w3.org/2000/svg">
<rect x="1" y="1" width="178" height="70" rx="4" stroke="white" stroke-width="2"/>
<path d="M41.8485 37.6738H26.8969C25.848 37.6738 25 38.5039 25 39.5305C25 40.5571 25.848 41.3872 26.8969 41.3872H44.1247C44.1247 41.3872 45.0174 40.5135 44.0578 39.0936C43.0759 37.6738 41.8485 37.6738 41.8485 37.6738Z" fill="white"/>
<path d="M41.0902 22.0527L31.8068 37.7799C31.2935 38.6755 31.5836 39.8113 32.4986 40.3137C33.4135 40.8161 34.574 40.5322 35.0872 39.6366L44.3706 23.9094C44.8839 23.0138 44.5938 21.878 43.6788 21.3756C42.7639 20.8514 41.6035 21.1572 41.0902 22.0527Z" fill="white"/>
<path d="M52.4496 44.5335L42.9207 28.3477C42.9207 28.3477 41.5371 29.3961 41.5371 31.4712C41.5371 33.5464 42.4074 34.9443 42.4074 34.9443L49.1692 46.4121C49.6824 47.3076 50.8428 47.6134 51.7578 47.0892C52.6504 46.565 52.9629 45.4291 52.4496 44.5335Z" fill="white"/>
<path d="M53.4084 37.6738H48.1195C47.0707 37.6738 46.2227 38.5039 46.2227 39.5305C46.2227 40.5571 47.0707 41.3872 48.1195 41.3872H53.4084C54.4572 41.3872 55.3052 40.5571 55.3052 39.5305C55.3052 38.5257 54.4572 37.6738 53.4084 37.6738Z" fill="white"/>
<path d="M41.2021 25.4638L39.1937 22.0344C38.6804 21.1606 37.4977 20.8548 36.605 21.3572C35.7124 21.8596 35.4 23.0173 35.9132 23.891L37.9217 27.3204C38.4349 28.1942 39.6177 28.5 40.5103 27.9976C41.403 27.4952 41.7154 26.3593 41.2021 25.4638Z" fill="white"/>
<path d="M27.8341 44.5095L29.0392 42.4781C29.0392 42.4781 29.3293 41.9102 30.4674 41.9102C31.6725 41.9102 32.8329 42.8931 32.9222 43.2644L31.1146 46.3662C30.6013 47.2618 29.4409 47.5676 28.5259 47.0433C27.611 46.5409 27.3209 45.4051 27.8341 44.5095Z" fill="white"/>
<path d="M76.3709 48.2062H73.7479L72.3111 43.787H67.3169L65.9482 48.2062H63.3945L68.3425 33.1611H71.3986L76.3709 48.2062ZM71.878 41.9329L70.5786 38.0043C70.4411 37.603 70.1836 36.6579 69.8036 35.1701H69.7574C69.6061 35.81 69.3624 36.7551 69.0274 38.0043L67.7512 41.9329H71.878Z" fill="white"/>
<path d="M89.0952 42.6484C89.0952 44.4934 88.5858 45.9518 87.5671 47.0224C86.6547 47.9754 85.5216 48.4514 84.1691 48.4514C82.7092 48.4514 81.6605 47.9381 81.0218 46.9116H80.9756V52.6264H78.5131V40.9288C78.5131 39.7689 78.4819 38.5785 78.4219 37.3575H80.5875L80.7249 39.077H80.7711C81.5923 37.7814 82.8386 37.1348 84.511 37.1348C85.8184 37.1348 86.9099 37.6401 87.7831 38.6519C88.6586 39.6649 89.0952 40.9967 89.0952 42.6484ZM86.5865 42.7365C86.5865 41.6806 86.344 40.8101 85.8566 40.125C85.3241 39.4105 84.6092 39.0533 83.7129 39.0533C83.1054 39.0533 82.5533 39.2522 82.0601 39.6445C81.5658 40.0402 81.2424 40.5569 81.0911 41.1968C81.0148 41.4952 80.9767 41.7394 80.9767 41.9316V43.7405C80.9767 44.5296 81.2239 45.1954 81.7182 45.7392C82.2126 46.283 82.8547 46.5543 83.6447 46.5543C84.5722 46.5543 85.2941 46.2039 85.8104 45.5052C86.3278 44.8054 86.5865 43.8829 86.5865 42.7365Z" fill="white"/>
<path d="M101.844 42.6484C101.844 44.4934 101.335 45.9518 100.315 47.0224C99.4035 47.9754 98.2705 48.4514 96.918 48.4514C95.458 48.4514 94.4093 47.9381 93.7718 46.9116H93.7256V52.6264H91.2631V40.9288C91.2631 39.7689 91.2319 38.5785 91.1719 37.3575H93.3375L93.4749 39.077H93.5211C94.3412 37.7814 95.5874 37.1348 97.261 37.1348C98.5673 37.1348 99.6588 37.6401 100.534 38.6519C101.406 39.6649 101.844 40.9967 101.844 42.6484ZM99.3354 42.7365C99.3354 41.6806 99.0917 40.8101 98.6042 40.125C98.0718 39.4105 97.3592 39.0533 96.4617 39.0533C95.8531 39.0533 95.3021 39.2522 94.8078 39.6445C94.3135 40.0402 93.9912 40.5569 93.8399 41.1968C93.7648 41.4952 93.7256 41.7394 93.7256 41.9316V43.7405C93.7256 44.5296 93.9727 45.1954 94.4648 45.7392C94.9591 46.2819 95.6013 46.5543 96.3936 46.5543C97.3211 46.5543 98.0429 46.2039 98.5592 45.5052C99.0766 44.8054 99.3354 43.8829 99.3354 42.7365Z" fill="white"/>
<path d="M116.096 43.9859C116.096 45.2656 115.642 46.3068 114.731 47.1107C113.73 47.9891 112.336 48.4277 110.544 48.4277C108.89 48.4277 107.564 48.1157 106.561 47.4905L107.131 45.4816C108.212 46.1214 109.398 46.4425 110.691 46.4425C111.618 46.4425 112.34 46.2368 112.859 45.8275C113.375 45.4182 113.633 44.8688 113.633 44.1837C113.633 43.5732 113.42 43.0588 112.994 42.6417C112.57 42.2245 111.862 41.8367 110.873 41.4784C108.182 40.4959 106.838 39.0568 106.838 37.1642C106.838 35.9274 107.309 34.9134 108.253 34.1242C109.193 33.334 110.447 32.9395 112.016 32.9395C113.414 32.9395 114.576 33.178 115.504 33.6539L114.888 35.6188C114.022 35.1576 113.042 34.9269 111.946 34.9269C111.08 34.9269 110.403 35.1361 109.918 35.5521C109.508 35.9241 109.302 36.3774 109.302 36.9144C109.302 37.5091 109.537 38.0008 110.008 38.3875C110.418 38.7447 111.163 39.1314 112.244 39.5485C113.567 40.0697 114.538 40.6791 115.163 41.3777C115.785 42.0741 116.096 42.9458 116.096 43.9859Z" fill="white"/>
<path d="M124.238 39.1662H121.524V44.4334C121.524 45.7731 122.002 46.4423 122.961 46.4423C123.401 46.4423 123.766 46.405 124.054 46.3304L124.123 48.1607C123.637 48.3382 122.999 48.4276 122.208 48.4276C121.235 48.4276 120.475 48.137 119.926 47.557C119.38 46.976 119.105 46.0014 119.105 44.6324V39.164H117.488V37.3551H119.105V35.3688L121.524 34.6543V37.3551H124.238V39.1662Z" fill="white"/>
<path d="M136.485 42.6913C136.485 44.3589 135.997 45.7279 135.025 46.7985C134.005 47.9008 132.651 48.4502 130.964 48.4502C129.338 48.4502 128.043 47.9223 127.077 46.8664C126.112 45.8105 125.629 44.4776 125.629 42.8711C125.629 41.19 126.126 39.813 127.122 38.7424C128.117 37.6706 129.459 37.1348 131.146 37.1348C132.773 37.1348 134.081 37.6627 135.069 38.7198C136.013 39.7452 136.485 41.069 136.485 42.6913ZM133.93 42.7693C133.93 41.7688 133.712 40.9107 133.269 40.1951C132.753 39.3291 132.015 38.8973 131.059 38.8973C130.069 38.8973 129.317 39.3303 128.801 40.1951C128.358 40.9119 128.14 41.7835 128.14 42.8146C128.14 43.8151 128.358 44.6731 128.801 45.3876C129.333 46.2536 130.077 46.6855 131.037 46.6855C131.977 46.6855 132.715 46.2446 133.247 45.365C133.701 44.6358 133.93 43.7687 133.93 42.7693Z" fill="white"/>
<path d="M144.488 39.4772C144.245 39.4331 143.985 39.4105 143.712 39.4105C142.846 39.4105 142.176 39.7305 141.705 40.3715C141.295 40.9367 141.089 41.6512 141.089 42.5138V48.2061H138.628L138.651 40.7739C138.651 39.5236 138.62 38.3851 138.559 37.3586H140.703L140.794 39.4343H140.862C141.122 38.7209 141.532 38.1466 142.093 37.7159C142.641 37.3281 143.234 37.1348 143.873 37.1348C144.1 37.1348 144.306 37.1506 144.488 37.1789V39.4772Z" fill="white"/>
<path d="M155.5 42.2654C155.5 42.6973 155.471 43.0613 155.41 43.3586H148.023C148.052 44.4304 148.409 45.25 149.095 45.8153C149.717 46.3206 150.522 46.5739 151.511 46.5739C152.605 46.5739 153.603 46.4032 154.5 46.0606L154.886 47.7338C153.837 48.1815 152.599 48.4042 151.17 48.4042C149.451 48.4042 148.102 47.909 147.121 46.9198C146.141 45.9306 145.65 44.6022 145.65 42.9358C145.65 41.2999 146.107 39.9377 147.02 38.8512C147.977 37.6913 149.269 37.1113 150.895 37.1113C152.493 37.1113 153.702 37.6913 154.523 38.8512C155.173 39.7726 155.5 40.9122 155.5 42.2654ZM153.152 41.6402C153.168 40.9257 153.008 40.3085 152.674 39.7873C152.248 39.1169 151.593 38.7823 150.712 38.7823C149.907 38.7823 149.252 39.109 148.752 39.7647C148.342 40.2859 148.098 40.911 148.023 41.6391H153.152V41.6402Z" fill="white"/>
<path d="M71.0644 23.904C71.0644 25.2346 70.6566 26.2363 69.8424 26.9089C69.0882 27.5296 68.0163 27.8405 66.628 27.8405C65.9397 27.8405 65.3506 27.8111 64.8574 27.7523V20.4819C65.5008 20.3801 66.1937 20.3281 66.9422 20.3281C68.2647 20.3281 69.2614 20.6096 69.9336 21.1726C70.6867 21.8091 71.0644 22.7192 71.0644 23.904ZM69.7881 23.9368C69.7881 23.0742 69.5548 22.4128 69.0882 21.9516C68.6215 21.4914 67.9401 21.2608 67.0427 21.2608C66.6615 21.2608 66.337 21.2857 66.0679 21.3377V26.8649C66.2168 26.8875 66.4894 26.8976 66.8856 26.8976C67.8119 26.8976 68.5268 26.6455 69.0304 26.1413C69.534 25.6371 69.7881 24.9023 69.7881 23.9368Z" fill="white"/>
<path d="M77.8306 25.0631C77.8306 25.8827 77.5916 26.5543 77.1134 27.0811C76.6121 27.6226 75.948 27.8928 75.1187 27.8928C74.3195 27.8928 73.6831 27.6339 73.2084 27.1139C72.7348 26.595 72.498 25.9404 72.498 25.1513C72.498 24.326 72.7417 23.6488 73.2315 23.1231C73.7212 22.5974 74.3795 22.334 75.2088 22.334C76.0081 22.334 76.6502 22.5929 77.1365 23.1118C77.5985 23.616 77.8306 24.2672 77.8306 25.0631ZM76.5752 25.1015C76.5752 24.6097 76.4666 24.1881 76.2506 23.8365C75.9965 23.4114 75.635 23.1988 75.1649 23.1988C74.6787 23.1988 74.3091 23.4114 74.055 23.8365C73.8378 24.1881 73.7304 24.6165 73.7304 25.123C73.7304 25.6148 73.839 26.0365 74.055 26.3881C74.3172 26.8131 74.6821 27.0257 75.1534 27.0257C75.6154 27.0257 75.978 26.8098 76.2391 26.3768C76.4631 26.0184 76.5752 25.5933 76.5752 25.1015Z" fill="white"/>
<path d="M86.9062 22.4453L85.2026 27.7746H84.0938L83.3881 25.4604C83.209 24.8827 83.0635 24.3084 82.9503 23.7386H82.9284C82.8233 24.3243 82.6777 24.8974 82.4906 25.4604L81.741 27.7746H80.6195L79.0176 22.4453H80.2615L80.8771 24.9788C81.0261 25.578 81.1485 26.1489 81.2467 26.6893H81.2687C81.3587 26.2439 81.5077 25.6764 81.7179 24.9901L82.4906 22.4464H83.477L84.2174 24.9359C84.3964 25.543 84.5419 26.1275 84.6539 26.6905H84.6874C84.7694 26.1421 84.893 25.5577 85.057 24.9359L85.7177 22.4464H86.9062V22.4453Z" fill="white"/>
<path d="M93.1806 27.7752H91.9702V24.7228C91.9702 23.7822 91.6052 23.3119 90.873 23.3119C90.5137 23.3119 90.2239 23.4408 89.9986 23.6997C89.7757 23.9586 89.6625 24.2638 89.6625 24.6131V27.7741H88.4521V23.9687C88.4521 23.5007 88.4371 22.9931 88.4082 22.4436H89.4719L89.5285 23.2768H89.562C89.703 23.018 89.9132 22.8043 90.1892 22.6336C90.5172 22.4346 90.8845 22.334 91.2864 22.334C91.7946 22.334 92.2174 22.4945 92.5535 22.8167C92.9716 23.2113 93.1806 23.8003 93.1806 24.5826V27.7752Z" fill="white"/>
<path d="M96.5179 27.7747H95.3086V20H96.5179V27.7747Z" fill="white"/>
<path d="M103.645 25.0631C103.645 25.8827 103.406 26.5543 102.928 27.0811C102.427 27.6226 101.761 27.8928 100.933 27.8928C100.133 27.8928 99.4964 27.6339 99.0228 27.1139C98.5493 26.595 98.3125 25.9404 98.3125 25.1513C98.3125 24.326 98.5562 23.6488 99.0459 23.1231C99.5356 22.5974 100.194 22.334 101.022 22.334C101.823 22.334 102.464 22.5929 102.951 23.1118C103.413 23.616 103.645 24.2672 103.645 25.0631ZM102.388 25.1015C102.388 24.6097 102.28 24.1881 102.064 23.8365C101.811 23.4114 101.448 23.1988 100.979 23.1988C100.492 23.1988 100.122 23.4114 99.8694 23.8365C99.6523 24.1881 99.5449 24.6165 99.5449 25.123C99.5449 25.6148 99.6534 26.0365 99.8694 26.3881C100.132 26.8131 100.497 27.0257 100.968 27.0257C101.43 27.0257 101.791 26.8098 102.052 26.3768C102.278 26.0184 102.388 25.5933 102.388 25.1015Z" fill="white"/>
<path d="M109.503 27.7718H108.416L108.326 27.158H108.293C107.921 27.6475 107.391 27.8928 106.702 27.8928C106.188 27.8928 105.772 27.7311 105.459 27.4101C105.175 27.1184 105.033 26.7555 105.033 26.3248C105.033 25.6736 105.31 25.1773 105.868 24.8336C106.425 24.4899 107.208 24.3215 108.216 24.3294V24.2299C108.216 23.5278 107.84 23.1774 107.086 23.1774C106.549 23.1774 106.075 23.3096 105.666 23.5719L105.42 22.7941C105.926 22.4877 106.551 22.334 107.288 22.334C108.711 22.334 109.424 23.0688 109.424 24.5385V26.5011C109.424 27.0336 109.451 27.4575 109.503 27.7718ZM108.246 25.9404V25.1185C106.911 25.0959 106.244 25.4542 106.244 26.1925C106.244 26.4706 106.32 26.6786 106.476 26.8177C106.632 26.9567 106.83 27.0257 107.067 27.0257C107.333 27.0257 107.581 26.9432 107.807 26.7792C108.035 26.6142 108.175 26.405 108.227 26.1484C108.239 26.0907 108.246 26.0206 108.246 25.9404Z" fill="white"/>
<path d="M116.379 27.7747H115.305L115.248 26.9188H115.215C114.872 27.57 114.287 27.8956 113.466 27.8956C112.81 27.8956 112.264 27.6435 111.831 27.1393C111.398 26.6351 111.182 25.9805 111.182 25.1767C111.182 24.3141 111.416 23.6154 111.887 23.0818C112.344 22.5844 112.903 22.3357 113.568 22.3357C114.299 22.3357 114.811 22.5765 115.102 23.0592H115.125V20H116.336V26.3389C116.336 26.8578 116.35 27.336 116.379 27.7747ZM115.125 25.5272V24.6386C115.125 24.4848 115.113 24.3605 115.091 24.2655C115.023 23.9806 114.876 23.7409 114.654 23.5476C114.428 23.3543 114.157 23.2571 113.844 23.2571C113.392 23.2571 113.039 23.4323 112.779 23.7839C112.521 24.1355 112.391 24.5843 112.391 25.1326C112.391 25.6594 112.514 26.0868 112.763 26.4158C113.025 26.7662 113.378 26.9415 113.821 26.9415C114.218 26.9415 114.536 26.7956 114.777 26.5028C115.01 26.2326 115.125 25.907 115.125 25.5272Z" fill="white"/>
<path d="M126.733 25.0631C126.733 25.8827 126.494 26.5543 126.016 27.0811C125.514 27.6226 124.852 27.8928 124.021 27.8928C123.223 27.8928 122.587 27.6339 122.111 27.1139C121.637 26.595 121.4 25.9404 121.4 25.1513C121.4 24.326 121.644 23.6488 122.134 23.1231C122.624 22.5974 123.282 22.334 124.112 22.334C124.91 22.334 125.554 22.5929 126.039 23.1118C126.501 23.616 126.733 24.2672 126.733 25.0631ZM125.479 25.1015C125.479 24.6097 125.37 24.1881 125.154 23.8365C124.899 23.4114 124.539 23.1988 124.067 23.1988C123.582 23.1988 123.213 23.4114 122.957 23.8365C122.74 24.1881 122.633 24.6165 122.633 25.123C122.633 25.6148 122.741 26.0365 122.957 26.3881C123.22 26.8131 123.584 27.0257 124.056 27.0257C124.518 27.0257 124.882 26.8098 125.143 26.3768C125.365 26.0184 125.479 25.5933 125.479 25.1015Z" fill="white"/>
<path d="M133.24 27.7752H132.031V24.7228C132.031 23.7822 131.666 23.3119 130.932 23.3119C130.573 23.3119 130.283 23.4408 130.059 23.6997C129.835 23.9586 129.723 24.2638 129.723 24.6131V27.7741H128.511V23.9687C128.511 23.5007 128.498 22.9931 128.469 22.4436H129.531L129.588 23.2768H129.621C129.763 23.018 129.974 22.8043 130.249 22.6336C130.578 22.4346 130.944 22.334 131.347 22.334C131.854 22.334 132.277 22.4945 132.613 22.8167C133.032 23.2113 133.24 23.8003 133.24 24.5826V27.7752Z" fill="white"/>
<path d="M141.388 23.3299H140.055V25.9189C140.055 26.5768 140.292 26.9058 140.761 26.9058C140.978 26.9058 141.158 26.8877 141.3 26.8504L141.332 27.7492C141.093 27.8374 140.778 27.8815 140.391 27.8815C139.913 27.8815 139.541 27.739 139.272 27.4541C139.002 27.1692 138.868 26.6899 138.868 26.0172V23.3299H138.072V22.4425H138.868V21.4657L140.054 21.1152V22.4413H141.387V23.3299H141.388Z" fill="white"/>
<path d="M147.795 27.7747H146.583V24.7448C146.583 23.7895 146.218 23.3113 145.487 23.3113C144.926 23.3113 144.542 23.5883 144.332 24.1423C144.296 24.2587 144.276 24.4012 144.276 24.5685V27.7735H143.066V20H144.276V23.2118H144.299C144.68 22.6274 145.226 22.3357 145.934 22.3357C146.436 22.3357 146.85 22.4962 147.179 22.8184C147.589 23.2198 147.795 23.8167 147.795 24.6058V27.7747Z" fill="white"/>
<path d="M154.405 24.8584C154.405 25.0709 154.389 25.2496 154.36 25.3954H150.73C150.746 25.9222 150.919 26.3236 151.255 26.6017C151.563 26.8504 151.959 26.9748 152.444 26.9748C152.981 26.9748 153.471 26.8911 153.912 26.7227L154.101 27.5457C153.585 27.765 152.977 27.8747 152.274 27.8747C151.431 27.8747 150.767 27.6316 150.286 27.1455C149.804 26.6593 149.564 26.007 149.564 25.1885C149.564 24.3847 149.787 23.7154 150.237 23.1818C150.706 22.612 151.34 22.3271 152.14 22.3271C152.923 22.3271 153.518 22.612 153.92 23.1818C154.244 23.634 154.405 24.1937 154.405 24.8584ZM153.25 24.552C153.259 24.2004 153.18 23.8975 153.016 23.642C152.805 23.313 152.485 23.1479 152.052 23.1479C151.657 23.1479 151.335 23.3084 151.089 23.6307C150.888 23.8873 150.769 24.1937 150.73 24.552H153.25Z" fill="white"/>
</svg>
