<svg width="61" height="61" viewBox="0 0 61 61" fill="none" xmlns="http://www.w3.org/2000/svg">
<path d="M45.0475 19.48H59.6575C60.3271 19.48 60.875 18.9321 60.875 18.2625V3.6525C60.875 2.98287 60.3271 2.435 59.6575 2.435H45.0475C44.3779 2.435 43.83 2.98287 43.83 3.6525V9.74H36.4032C35.9162 7.3537 34.0413 5.47875 31.655 4.99175V1.2175C31.655 0.547875 31.1071 0 30.4375 0C29.7679 0 29.22 0.547875 29.22 1.2175V4.99175C26.4441 5.5518 24.35 8.01115 24.35 10.9575C24.35 13.9038 26.4441 16.351 29.22 16.9233V24.4718C26.8337 24.9587 24.9587 26.8337 24.4718 29.22H17.045V23.1325C17.045 22.4629 16.4971 21.915 15.8275 21.915H1.2175C0.547875 21.915 0 22.4629 0 23.1325V37.7425C0 38.4121 0.547875 38.96 1.2175 38.96H15.8275C16.4971 38.96 17.045 38.4121 17.045 37.7425V31.655H24.4718C24.9587 34.0413 26.8337 35.9162 29.22 36.4032V43.9517C26.4441 44.5118 24.35 46.9711 24.35 49.9175C24.35 52.8638 26.4441 55.311 29.22 55.8832V59.6575C29.22 60.3271 29.7679 60.875 30.4375 60.875C31.1071 60.875 31.655 60.3271 31.655 59.6575V55.8832C34.0413 55.3962 35.9162 53.5213 36.4032 51.135H43.83V57.2225C43.83 57.8921 44.3779 58.44 45.0475 58.44H59.6575C60.3271 58.44 60.875 57.8921 60.875 57.2225V42.6125C60.875 41.9429 60.3271 41.395 59.6575 41.395H45.0475C44.3779 41.395 43.83 41.9429 43.83 42.6125V48.7H36.4032C35.9162 46.3137 34.0413 44.4387 31.655 43.9517V36.4032C34.4309 35.8432 36.525 33.3839 36.525 30.4375C36.525 27.4911 34.4309 25.044 31.655 24.4718V16.9233C34.0413 16.4362 35.9162 14.5613 36.4032 12.175H43.83V18.2625C43.83 18.9321 44.3779 19.48 45.0475 19.48Z" fill="white"/>
</svg>
