<svg width="48" height="48" viewBox="0 0 48 48" fill="none" xmlns="http://www.w3.org/2000/svg">
<path d="M40.875 37.2501H38.625V9.12509C38.625 8.93984 38.5793 8.75745 38.4919 8.59412C38.4044 8.43079 38.278 8.29157 38.1239 8.18884C37.9697 8.0861 37.7926 8.02303 37.6082 8.00521C37.4238 7.9874 37.2378 8.0154 37.0669 8.08672L25.125 13.0626V9.12509C25.125 8.93984 25.0793 8.75745 24.9919 8.59412C24.9044 8.43079 24.778 8.29157 24.6239 8.18884C24.4697 8.0861 24.2926 8.02303 24.1082 8.00521C23.9238 7.9874 23.7378 8.0154 23.5669 8.08672L10.0669 13.7117C9.86195 13.7972 9.68691 13.9414 9.56379 14.1262C9.44067 14.311 9.37498 14.5281 9.375 14.7501V37.2501H7.125C6.82663 37.2501 6.54048 37.3686 6.3295 37.5796C6.11853 37.7906 6 38.0767 6 38.3751C6 38.6735 6.11853 38.9596 6.3295 39.1706C6.54048 39.3816 6.82663 39.5001 7.125 39.5001H40.875C41.1734 39.5001 41.4595 39.3816 41.6705 39.1706C41.8815 38.9596 42 38.6735 42 38.3751C42 38.0767 41.8815 37.7906 41.6705 37.5796C41.4595 37.3686 41.1734 37.2501 40.875 37.2501ZM36.375 10.8126V37.2501H34.125V30.5001C34.125 30.2017 34.0065 29.9156 33.7955 29.7046C33.5845 29.4936 33.2984 29.3751 33 29.3751H28.5C28.2016 29.3751 27.9155 29.4936 27.7045 29.7046C27.4935 29.9156 27.375 30.2017 27.375 30.5001V37.2501H25.125V15.5005L36.375 10.8126ZM11.625 15.5005L22.875 10.8126V37.2501H20.625V30.5001C20.625 30.2017 20.5065 29.9156 20.2955 29.7046C20.0845 29.4936 19.7984 29.3751 19.5 29.3751H15C14.7016 29.3751 14.4155 29.4936 14.2045 29.7046C13.9935 29.9156 13.875 30.2017 13.875 30.5001V37.2501H11.625V15.5005ZM16.125 37.2501V31.6251H18.375V37.2501H16.125ZM29.625 37.2501V31.6251H31.875V37.2501H29.625Z" fill="#1056C6"/>
<path d="M15 26H19.5C19.7984 26 20.0845 25.8815 20.2955 25.6705C20.5065 25.4595 20.625 25.1734 20.625 24.875V19.25C20.625 18.9516 20.5065 18.6655 20.2955 18.4545C20.0845 18.2435 19.7984 18.125 19.5 18.125H15C14.7016 18.125 14.4155 18.2435 14.2045 18.4545C13.9935 18.6655 13.875 18.9516 13.875 19.25V24.875C13.875 25.1734 13.9935 25.4595 14.2045 25.6705C14.4155 25.8815 14.7016 26 15 26ZM16.125 20.375H18.375V23.75H16.125V20.375Z" fill="#1056C6"/>
<path d="M28.5 26H33C33.2984 26 33.5845 25.8815 33.7955 25.6705C34.0065 25.4595 34.125 25.1734 34.125 24.875V19.25C34.125 18.9516 34.0065 18.6655 33.7955 18.4545C33.5845 18.2435 33.2984 18.125 33 18.125H28.5C28.2016 18.125 27.9155 18.2435 27.7045 18.4545C27.4935 18.6655 27.375 18.9516 27.375 19.25V24.875C27.375 25.1734 27.4935 25.4595 27.7045 25.6705C27.9155 25.8815 28.2016 26 28.5 26ZM29.625 20.375H31.875V23.75H29.625V20.375Z" fill="#1056C6"/>
</svg>
