<svg width="49" height="48" viewBox="0 0 49 48" fill="none" xmlns="http://www.w3.org/2000/svg">
<g clip-path="url(#clip0_243_1217)">
<path d="M24.3637 23.051C28.0537 23.051 30.9237 20.0653 30.9237 16.401C30.9237 12.7367 27.917 9.88672 24.227 9.88672C20.537 9.88672 17.667 12.8724 17.667 16.401C17.667 20.0653 20.6737 23.051 24.3637 23.051ZM24.227 12.601C24.3637 12.601 24.3637 12.601 24.227 12.601C26.4137 12.601 28.1903 14.3653 28.1903 16.5367C28.1903 18.7081 26.4137 20.3367 24.227 20.3367C22.0403 20.3367 20.4003 18.5724 20.4003 16.5367C20.4003 14.3653 22.177 12.601 24.227 12.601Z" fill="#1056C6"/>
<path d="M44.5902 22.2351C41.9935 19.928 38.5769 18.7065 35.0235 18.8422H33.9302C33.6569 19.928 33.2469 20.878 32.7002 21.6922C33.5202 21.5565 34.2035 21.5565 35.0235 21.5565C37.6202 21.4208 40.2169 22.2351 42.2669 23.728V33.4994H45.0002V22.6422L44.5902 22.2351Z" fill="#1056C6"/>
<path d="M31.8801 10.1562C32.5635 8.52768 34.4768 7.71339 36.2535 8.39196C37.8935 9.07054 38.7135 10.9705 38.0301 12.7348C37.4835 13.9562 36.2535 14.7705 35.0235 14.7705C34.7501 14.7705 34.3401 14.7705 34.0668 14.6348C34.2035 15.3134 34.2035 15.992 34.2035 16.5348V17.3491C34.4768 17.3491 34.7501 17.4848 35.0235 17.4848C38.4401 17.4848 41.1735 14.7705 41.1735 11.5134C41.1735 8.12054 38.4401 5.40625 35.1601 5.40625C32.9735 5.40625 31.0601 6.49196 29.9668 8.39196C30.6501 8.79911 31.3335 9.34196 31.8801 10.1562Z" fill="#1056C6"/>
<path d="M16.3 21.829C15.7533 21.0147 15.3433 20.0647 15.07 18.979H13.9767C10.4233 18.8433 7.00667 20.0647 4.41 22.2361L4 22.6433V33.5004H6.73333V23.729C8.92 22.2361 11.38 21.4218 13.9767 21.5576C14.7967 21.5576 15.6167 21.6933 16.3 21.829Z" fill="#1056C6"/>
<path d="M13.9766 17.3509C14.2499 17.3509 14.5233 17.3509 14.7966 17.2152V16.4009C14.7966 15.7223 14.7966 15.0438 14.9333 14.5009C14.6599 14.6366 14.2499 14.6366 13.9766 14.6366C12.1999 14.6366 10.6966 13.1438 10.6966 11.3795C10.6966 9.6152 12.1999 8.12234 13.9766 8.12234C15.3433 8.12234 16.5733 8.93663 17.1199 10.1581C17.6666 9.47949 18.4866 8.80091 19.1699 8.25806C17.3933 5.40806 13.7033 4.45806 10.8333 6.22234C7.96328 7.98663 7.00661 11.6509 8.78328 14.5009C9.87661 16.2652 11.7899 17.3509 13.9766 17.3509Z" fill="#1056C6"/>
<path d="M35.5697 30.3783L35.2964 29.9712C32.5631 26.9855 28.7364 25.2212 24.6364 25.3569C20.5364 25.2212 16.5731 26.9855 13.8397 29.9712L13.5664 30.3783V40.6926C13.5664 41.9141 14.5231 42.9998 15.8897 42.9998H33.3831C34.6131 42.9998 35.7064 41.9141 35.7064 40.6926V30.3783H35.5697ZM32.8364 40.2855H16.2997V31.3283C18.4864 29.1569 21.4931 28.0712 24.6364 28.0712C27.6431 27.9355 30.6497 29.1569 32.8364 31.3283V40.2855Z" fill="#1056C6"/>
</g>
<defs>
<clipPath id="clip0_243_1217">
<rect width="41" height="38" fill="white" transform="translate(4 5)"/>
</clipPath>
</defs>
</svg>
