<svg width="49" height="48" viewBox="0 0 49 48" fill="none" xmlns="http://www.w3.org/2000/svg">
<path d="M41.875 21.75H34V17.8125L34.45 18.15C34.5682 18.2386 34.7027 18.3031 34.8458 18.3398C34.9889 18.3765 35.1379 18.3846 35.2841 18.3637C35.4304 18.3428 35.5711 18.2933 35.6982 18.218C35.8253 18.1428 35.9364 18.0432 36.025 17.925C36.1136 17.8068 36.1781 17.6723 36.2148 17.5292C36.2515 17.3861 36.2596 17.2372 36.2387 17.0909C36.2178 16.9446 36.1683 16.8039 36.093 16.6768C36.0178 16.5497 35.9182 16.4386 35.8 16.35L31.75 13.3125V8.25C31.75 7.95163 31.6315 7.66548 31.4205 7.4545C31.2095 7.24353 30.9234 7.125 30.625 7.125H26.125C25.8266 7.125 25.5405 7.24353 25.3295 7.4545C25.1185 7.66548 25 7.95163 25 8.25L22.3 6.225C22.1053 6.07895 21.8684 6 21.625 6C21.3816 6 21.1447 6.07895 20.95 6.225L7.45 16.35C7.21131 16.529 7.05351 16.7955 7.01131 17.0909C6.96912 17.3863 7.04598 17.6863 7.225 17.925C7.40403 18.1637 7.67054 18.3215 7.96591 18.3637C8.26128 18.4059 8.56131 18.329 8.8 18.15L9.25 17.8125V33H8.125C7.82664 33 7.54049 33.1185 7.32951 33.3295C7.11853 33.5405 7 33.8266 7 34.125C7 34.4234 7.11853 34.7095 7.32951 34.9205C7.54049 35.1315 7.82664 35.25 8.125 35.25H25C25.2984 35.25 25.5845 35.1315 25.7955 34.9205C26.0065 34.7095 26.125 34.4234 26.125 34.125C26.125 33.8266 26.0065 33.5405 25.7955 33.3295C25.5845 33.1185 25.2984 33 25 33H23.875V21.75C23.875 21.4516 23.7565 21.1655 23.5455 20.9545C23.3345 20.7435 23.0484 20.625 22.75 20.625H16C15.7016 20.625 15.4155 20.7435 15.2045 20.9545C14.9935 21.1655 14.875 21.4516 14.875 21.75V33H11.5V16.125L21.625 8.53125L25.45 11.4C25.6171 11.5254 25.8159 11.6017 26.024 11.6205C26.2321 11.6392 26.4413 11.5997 26.6281 11.5062C26.815 11.4128 26.9721 11.2692 27.082 11.0914C27.1918 10.9137 27.25 10.7089 27.25 10.5V9.375H29.5V13.875C29.5 14.0497 29.5407 14.2219 29.6188 14.3781C29.6969 14.5343 29.8103 14.6702 29.95 14.775L31.75 16.125V21.75H29.5C29.2016 21.75 28.9155 21.8685 28.7045 22.0795C28.4935 22.2905 28.375 22.5766 28.375 22.875V40.875C28.375 41.1734 28.4935 41.4595 28.7045 41.6705C28.9155 41.8815 29.2016 42 29.5 42H41.875C42.1734 42 42.4595 41.8815 42.6705 41.6705C42.8815 41.4595 43 41.1734 43 40.875V22.875C43 22.5766 42.8815 22.2905 42.6705 22.0795C42.4595 21.8685 42.1734 21.75 41.875 21.75ZM17.125 22.875H21.625V33H17.125V22.875ZM40.75 37.707C40.279 37.8742 39.8512 38.1443 39.4977 38.4977C39.1443 38.8511 38.8742 39.279 38.707 39.75H32.668C32.5008 39.279 32.2307 38.8511 31.8773 38.4977C31.5239 38.1443 31.096 37.8742 30.625 37.707V26.043C31.096 25.8758 31.5239 25.6057 31.8773 25.2523C32.2307 24.8989 32.5008 24.471 32.668 24H38.707C38.8742 24.471 39.1443 24.8989 39.4977 25.2523C39.8512 25.6057 40.279 25.8758 40.75 26.043V37.707ZM35.6875 35.8125C34.9087 35.8125 34.1475 35.5816 33.4999 35.1489C32.8524 34.7163 32.3477 34.1013 32.0497 33.3818C31.7517 32.6623 31.6737 31.8706 31.8257 31.1068C31.9776 30.343 32.3526 29.6414 32.9033 29.0908C33.4539 28.5401 34.1555 28.1651 34.9193 28.0132C35.6831 27.8612 36.4748 27.9392 37.1943 28.2372C37.9138 28.5352 38.5288 29.0399 38.9614 29.6874C39.3941 30.335 39.625 31.0962 39.625 31.875C39.625 32.9193 39.2102 33.9208 38.4717 34.6592C37.7333 35.3977 36.7318 35.8125 35.6875 35.8125ZM35.6875 30.1875C35.3537 30.1875 35.0275 30.2865 34.75 30.4719C34.4725 30.6573 34.2562 30.9209 34.1285 31.2292C34.0007 31.5376 33.9673 31.8769 34.0324 32.2042C34.0975 32.5316 34.2583 32.8322 34.4943 33.0682C34.7303 33.3042 35.0309 33.465 35.3583 33.5301C35.6856 33.5952 36.0249 33.5618 36.3333 33.434C36.6416 33.3063 36.9052 33.09 37.0906 32.8125C37.276 32.535 37.375 32.2088 37.375 31.875C37.375 31.4274 37.1972 30.9982 36.8807 30.6818C36.5643 30.3653 36.1351 30.1875 35.6875 30.1875Z" fill="#1056C6"/>
</svg>
