<svg width="49" height="48" viewBox="0 0 49 48" fill="none" xmlns="http://www.w3.org/2000/svg">
<g clip-path="url(#clip0_243_1195)">
<path d="M17.9911 11.7051H10.9971C10.3498 11.7051 9.8252 12.2297 9.8252 12.877C9.8252 13.5242 10.3498 14.0488 10.9971 14.0488H17.9911C18.6381 14.0488 19.163 13.5242 19.163 12.877C19.163 12.2297 18.6381 11.7051 17.9911 11.7051Z" fill="#1056C6"/>
<path d="M17.9911 16.3945H10.9971C10.3498 16.3945 9.8252 16.9191 9.8252 17.5664C9.8252 18.2137 10.3498 18.7383 10.9971 18.7383H17.9911C18.6381 18.7383 19.163 18.2137 19.163 17.5664C19.163 16.9191 18.6381 16.3945 17.9911 16.3945Z" fill="#1056C6"/>
<path d="M17.9911 21.082H10.9971C10.3498 21.082 9.8252 21.6066 9.8252 22.2539C9.8252 22.9012 10.3498 23.4258 10.9971 23.4258H17.9911C18.6381 23.4258 19.163 22.9012 19.163 22.2539C19.163 21.6066 18.6381 21.082 17.9911 21.082Z" fill="#1056C6"/>
<path d="M17.9911 25.7695H10.9971C10.3498 25.7695 9.8252 26.2941 9.8252 26.9414C9.8252 27.5887 10.3498 28.1133 10.9971 28.1133H17.9911C18.6381 28.1133 19.163 27.5887 19.163 26.9414C19.163 26.2941 18.6381 25.7695 17.9911 25.7695Z" fill="#1056C6"/>
<path d="M17.9911 30.5352H10.9971C10.3498 30.5352 9.8252 31.0601 9.8252 31.707C9.8252 32.3543 10.3498 32.8789 10.9971 32.8789H17.9911C18.6381 32.8789 19.163 32.3543 19.163 31.707C19.163 31.0601 18.6381 30.5352 17.9911 30.5352Z" fill="#1056C6"/>
<path d="M21.9258 14.0488H28.9198C29.5671 14.0488 30.0917 13.5242 30.0917 12.877C30.0917 12.2297 29.5671 11.7051 28.9198 11.7051H21.9258C21.2788 11.7051 20.7539 12.2297 20.7539 12.877C20.7539 13.5242 21.2788 14.0488 21.9258 14.0488Z" fill="#1056C6"/>
<path d="M21.9258 18.7383H28.9198C29.5671 18.7383 30.0917 18.2137 30.0917 17.5664C30.0917 16.9191 29.5671 16.3945 28.9198 16.3945H21.9258C21.2788 16.3945 20.7539 16.9191 20.7539 17.5664C20.7539 18.2137 21.2788 18.7383 21.9258 18.7383Z" fill="#1056C6"/>
<path d="M26.4662 22.2539C26.4662 21.6066 25.9416 21.082 25.2943 21.082H21.9258C21.2788 21.082 20.7539 21.6066 20.7539 22.2539C20.7539 22.9012 21.2788 23.4258 21.9258 23.4258H25.2943C25.9416 23.4258 26.4662 22.9012 26.4662 22.2539Z" fill="#1056C6"/>
<path d="M37.5685 31.0293C37.0637 30.6244 36.3264 30.7052 35.9211 31.21L32.9029 34.9728L31.0343 33.619C30.5103 33.2391 29.7773 33.3563 29.3977 33.8803C29.018 34.4046 29.1352 35.1373 29.6592 35.5169L32.4311 37.5253C32.6386 37.6754 32.8791 37.7484 33.1181 37.7484C33.462 37.7484 33.802 37.5973 34.0327 37.3095L37.7494 32.6767C38.1544 32.1719 38.0735 31.4343 37.5685 31.0293Z" fill="#1056C6"/>
<path d="M40.5301 27.4329C39.0036 25.8796 37.0422 24.9006 34.917 24.6122V8.71954C34.917 6.11731 32.7997 4 30.1974 4H9.71985C7.11731 4 5 6.11731 5 8.71954V35.8658C5 38.4684 7.11731 40.5857 9.71954 40.5857H26.1896C28.0429 42.7628 30.7077 44 33.5907 44C38.9572 44 43.3231 39.6311 43.3231 34.2609C43.3231 31.6901 42.3312 29.2652 40.5301 27.4329ZM7.34375 35.8658V8.71954C7.34375 7.40973 8.40973 6.34375 9.71985 6.34375H30.1974C31.5076 6.34375 32.5732 7.40973 32.5732 8.71954V24.575C27.6831 25.0855 23.8583 29.2344 23.8583 34.2609C23.8583 35.6541 24.1489 37.0011 24.7061 38.2416H9.71985C8.40973 38.2416 7.34375 37.176 7.34375 35.8658ZM33.5907 41.6562C31.2503 41.6562 29.0988 40.5817 27.6874 38.7086C26.7157 37.4186 26.2018 35.8808 26.2018 34.2609C26.2018 30.1832 29.5166 26.8656 33.5907 26.8656C33.6292 26.8656 33.6679 26.8662 33.7064 26.8668L33.7244 26.8671C35.6693 26.9016 37.4927 27.6859 38.8586 29.0757C40.2261 30.467 40.9793 32.3087 40.9793 34.2609C40.9793 38.3387 37.6648 41.6562 33.5907 41.6562Z" fill="#1056C6"/>
</g>
<defs>
<clipPath id="clip0_243_1195">
<rect width="38.3594" height="40" fill="white" transform="translate(5 4)"/>
</clipPath>
</defs>
</svg>
