<svg width="160" height="160" viewBox="0 0 160 160" fill="none" xmlns="http://www.w3.org/2000/svg">
<g filter="url(#filter0_d_283_437)">
<rect x="30" y="10" width="100" height="100" rx="5" fill="#F79901"/>
</g>
<path d="M89.9241 54.968C90.824 57.0249 91.3382 59.2746 91.3382 61.7172C91.3382 70.909 83.882 78.3652 74.6902 78.3652C65.4984 78.3652 58.0421 70.909 58.0421 61.7172C58.0421 52.4611 65.4984 45.0049 74.6902 45.0049C77.0685 45.0049 79.3825 45.5191 81.4394 46.419L85.4889 41.5981C82.275 39.8626 78.6112 38.8984 74.7545 38.8984C62.2202 38.8984 52 49.1187 52 61.6529C52 69.6877 56.2424 76.8226 62.5416 80.8078L59.0063 87.0428C58.6849 87.6213 58.6849 88.3926 59.0063 89.0354C59.3277 89.6139 60.0348 89.9996 60.6776 89.9996H88.7028C89.4099 89.9996 90.0527 89.6139 90.3741 89.0354C90.6955 88.4569 90.7597 87.6856 90.3741 87.0428L86.8388 80.8078C93.2023 76.7583 97.3804 69.6877 97.3804 61.6529C97.3804 57.7962 96.4162 54.1324 94.6807 50.9185L89.9241 54.968Z" fill="white"/>
<path d="M77.9692 50.5338C76.9407 50.2124 75.7837 50.0195 74.691 50.0195C68.2632 50.0195 63.0566 55.2261 63.0566 61.6539C63.0566 68.0174 68.2632 73.2882 74.691 73.2882C81.0545 73.2882 86.3253 68.0817 86.3253 61.6539C86.3253 60.4969 86.1325 59.4041 85.8754 58.3757L77.9692 64.9321C76.0408 66.539 73.084 66.2819 71.4771 64.3536C69.9987 62.6181 70.063 60.1112 71.4771 58.44L77.9692 50.5338Z" fill="white"/>
<path d="M107.279 36.5205C107.15 36.1349 106.764 35.8778 106.314 35.8778H100.465V30.0285C100.465 29.6428 100.208 29.2571 99.8223 29.0643C99.4366 28.9357 98.9867 29 98.7296 29.2571L91.7232 36.2634C91.5304 36.4563 91.4019 36.7134 91.4019 36.9705V40.8915L73.404 60.3678C72.7612 61.0748 72.7612 62.1675 73.404 62.8746C74.111 63.6459 75.268 63.6459 75.9751 62.9389L95.3871 44.8767H99.3081C99.5652 44.8767 99.8223 44.7482 100.015 44.5553L107.021 37.549C107.343 37.3562 107.407 36.9062 107.279 36.5205Z" fill="white"/>
<defs>
<filter id="filter0_d_283_437" x="0" y="0" width="160" height="160" filterUnits="userSpaceOnUse" color-interpolation-filters="sRGB">
<feFlood flood-opacity="0" result="BackgroundImageFix"/>
<feColorMatrix in="SourceAlpha" type="matrix" values="0 0 0 0 0 0 0 0 0 0 0 0 0 0 0 0 0 0 127 0" result="hardAlpha"/>
<feOffset dy="20"/>
<feGaussianBlur stdDeviation="15"/>
<feColorMatrix type="matrix" values="0 0 0 0 1 0 0 0 0 0.54902 0 0 0 0 0.298039 0 0 0 0.4 0"/>
<feBlend mode="normal" in2="BackgroundImageFix" result="effect1_dropShadow_283_437"/>
<feBlend mode="normal" in="SourceGraphic" in2="effect1_dropShadow_283_437" result="shape"/>
</filter>
</defs>
</svg>
