<svg width="160" height="160" viewBox="0 0 160 160" fill="none" xmlns="http://www.w3.org/2000/svg">
<g filter="url(#filter0_d_283_443)">
<rect x="30" y="10" width="100" height="100" rx="5" fill="#F79901"/>
</g>
<path d="M110.035 88.6629L99.4304 58.0926C99.3349 57.7104 98.9528 57.5194 98.5706 57.4238C98.1885 57.4238 97.8064 57.6149 97.6153 57.997L84.2408 87.1344L64.7522 61.2451C64.5611 60.9585 64.2745 60.863 63.8924 60.863C63.6058 60.863 63.3192 61.0541 63.1281 61.3407L49.0848 88.5674C48.7983 89.2361 49.2759 90.0004 49.9446 90.0004C63.6058 90.0004 97.5198 90.0004 109.175 90.0004C109.843 90.0004 110.321 89.3317 110.035 88.6629Z" fill="#FDFDFE"/>
<path d="M89.2078 71.7534L80.4188 54.5576C80.2278 54.1754 79.8456 53.9844 79.4635 53.9844C79.0814 53.9844 78.7948 54.271 78.6037 54.6531L73.2539 69.4606L83.7625 83.4084L89.2078 71.7534Z" fill="#FDFDFE"/>
<path d="M79.3678 52.0736H79.4633C79.8454 52.0736 80.2276 52.1692 80.5142 52.2647V44.7176C83.4757 46.2462 86.2461 45.0998 89.2076 43.7623C92.3602 42.3293 94.844 41.2785 97.4234 43.5712C97.71 43.8578 98.0921 43.8578 98.4743 43.7623C98.8564 43.5712 99.0475 43.2847 99.0475 42.9025V31.5342C99.0475 31.2476 98.9519 31.0565 98.7609 30.8654C95.5128 27.9039 92.3602 28.9548 88.4434 30.6744C85.2908 32.1074 82.8069 33.1582 80.2276 30.8654C80.132 30.8654 78.6035 29.9101 78.6035 31.5342C78.6035 43.5712 78.6035 49.4943 78.6035 52.2647C78.8901 52.1692 79.0812 52.1692 79.3678 52.0736Z" fill="#FDFDFE"/>
<defs>
<filter id="filter0_d_283_443" x="0" y="0" width="160" height="160" filterUnits="userSpaceOnUse" color-interpolation-filters="sRGB">
<feFlood flood-opacity="0" result="BackgroundImageFix"/>
<feColorMatrix in="SourceAlpha" type="matrix" values="0 0 0 0 0 0 0 0 0 0 0 0 0 0 0 0 0 0 127 0" result="hardAlpha"/>
<feOffset dy="20"/>
<feGaussianBlur stdDeviation="15"/>
<feColorMatrix type="matrix" values="0 0 0 0 1 0 0 0 0 0.54902 0 0 0 0 0.298039 0 0 0 0.4 0"/>
<feBlend mode="normal" in2="BackgroundImageFix" result="effect1_dropShadow_283_443"/>
<feBlend mode="normal" in="SourceGraphic" in2="effect1_dropShadow_283_443" result="shape"/>
</filter>
</defs>
</svg>
