<svg width="299" height="310" viewBox="0 0 299 310" fill="none" xmlns="http://www.w3.org/2000/svg">
<mask id="mask0_243_1163" style="mask-type:alpha" maskUnits="userSpaceOnUse" x="5" y="4" width="287" height="301">
<path fill-rule="evenodd" clip-rule="evenodd" d="M145.731 5.91562C192.883 0.945785 246.435 6.14596 275.586 43.4974C303.83 79.6872 287.067 129.526 277.176 174.34C267.826 216.705 259.116 262.29 222.239 285.206C182.691 309.781 131.978 310.132 89.5589 290.927C47.8083 272.026 18.5298 233.155 8.55157 188.464C-0.934163 145.978 13.7005 103.157 39.8623 68.3424C65.7453 33.8992 102.856 10.4346 145.731 5.91562Z" fill="url(#paint0_linear_243_1163)"/>
</mask>
<g mask="url(#mask0_243_1163)">
<path fill-rule="evenodd" clip-rule="evenodd" d="M145.731 5.91562C192.883 0.945785 246.435 6.14596 275.586 43.4974C303.83 79.6872 287.067 129.526 277.176 174.34C267.826 216.705 259.116 262.29 222.239 285.206C182.691 309.781 131.978 310.132 89.5589 290.927C47.8083 272.026 18.5298 233.155 8.55157 188.464C-0.934163 145.978 13.7005 103.157 39.8623 68.3424C65.7453 33.8992 102.856 10.4346 145.731 5.91562Z" fill="#BDBDBD"/>
<path fill-rule="evenodd" clip-rule="evenodd" d="M145.731 5.91562C192.883 0.945785 246.435 6.14596 275.586 43.4974C303.83 79.6872 287.067 129.526 277.176 174.34C267.826 216.705 259.116 262.29 222.239 285.206C182.691 309.781 131.978 310.132 89.5589 290.927C47.8083 272.026 18.5298 233.155 8.55157 188.464C-0.934163 145.978 13.7005 103.157 39.8623 68.3424C65.7453 33.8992 102.856 10.4346 145.731 5.91562Z" fill="#BABABA"/>
<path fill-rule="evenodd" clip-rule="evenodd" d="M145.731 5.91562C192.883 0.945785 246.435 6.14596 275.586 43.4974C303.83 79.6872 287.067 129.526 277.176 174.34C267.826 216.705 259.116 262.29 222.239 285.206C182.691 309.781 131.978 310.132 89.5589 290.927C47.8083 272.026 18.5298 233.155 8.55157 188.464C-0.934163 145.978 13.7005 103.157 39.8623 68.3424C65.7453 33.8992 102.856 10.4346 145.731 5.91562Z" fill="url(#paint1_radial_243_1163)"/>
</g>
<defs>
<linearGradient id="paint0_linear_243_1163" x1="143.919" y1="5.2915" x2="154.921" y2="304.56" gradientUnits="userSpaceOnUse">
<stop stop-color="#FDAB01" stop-opacity="0.3"/>
<stop offset="1" stop-color="#FDAB01" stop-opacity="0"/>
</linearGradient>
<radialGradient id="paint1_radial_243_1163" cx="0" cy="0" r="1" gradientUnits="userSpaceOnUse" gradientTransform="translate(252.366 47.3284) rotate(124.827) scale(317.107 575.921)">
<stop stop-color="#4248D3"/>
<stop offset="0.472222" stop-color="#330BA6"/>
<stop offset="1" stop-color="#6F4B00"/>
</radialGradient>
</defs>
</svg>
