<svg width="297" height="472" viewBox="0 0 297 472" fill="none" xmlns="http://www.w3.org/2000/svg">
<g filter="url(#filter0_d_202_1390)">
<path d="M4.5 15.5C4.5 7.21572 11.2157 0.5 19.5 0.5H277.5C285.784 0.5 292.5 7.21573 292.5 15.5V448.5C292.5 456.784 285.784 463.5 277.5 463.5H19.5C11.2157 463.5 4.5 456.784 4.5 448.5V15.5Z" fill="white"/>
<path d="M6.5 15.5C6.5 8.32029 12.3203 2.5 19.5 2.5H277.5C284.68 2.5 290.5 8.3203 290.5 15.5V448.5C290.5 455.68 284.68 461.5 277.5 461.5H19.5C12.3203 461.5 6.5 455.68 6.5 448.5V15.5Z" stroke="#201373" stroke-width="4"/>
</g>
<defs>
<filter id="filter0_d_202_1390" x="0.5" y="0.5" width="296" height="471" filterUnits="userSpaceOnUse" color-interpolation-filters="sRGB">
<feFlood flood-opacity="0" result="BackgroundImageFix"/>
<feColorMatrix in="SourceAlpha" type="matrix" values="0 0 0 0 0 0 0 0 0 0 0 0 0 0 0 0 0 0 127 0" result="hardAlpha"/>
<feOffset dy="4"/>
<feGaussianBlur stdDeviation="2"/>
<feComposite in2="hardAlpha" operator="out"/>
<feColorMatrix type="matrix" values="0 0 0 0 0 0 0 0 0 0 0 0 0 0 0 0 0 0 0.25 0"/>
<feBlend mode="normal" in2="BackgroundImageFix" result="effect1_dropShadow_202_1390"/>
<feBlend mode="normal" in="SourceGraphic" in2="effect1_dropShadow_202_1390" result="shape"/>
</filter>
</defs>
</svg>
