<svg width="1447" height="1648" viewBox="0 0 1447 1648" fill="none" xmlns="http://www.w3.org/2000/svg">
<path d="M0 0H1447V1648H0V0Z" fill="url(#paint0_linear_244_731)"/>
<path d="M529 402H919V590H529V402Z" fill="url(#paint1_linear_244_731)"/>
<path d="M529 693H919V722H529V693Z" fill="url(#paint2_linear_244_731)"/>
<path d="M529 829H919V858H529V829Z" fill="url(#paint3_linear_244_731)"/>
<path d="M529 944H919V973H529V944Z" fill="url(#paint4_linear_244_731)"/>
<path d="M781 562C781 595.689 753.689 623 720 623C686.311 623 659 595.689 659 562C659 528.311 686.311 501 720 501C753.689 501 781 528.311 781 562Z" fill="url(#paint5_linear_244_731)"/>
<path d="M563.415 738.68C563.415 739.21 563.29 739.71 563.04 740.18C562.79 740.65 562.39 741.035 561.84 741.335C561.29 741.625 560.585 741.77 559.725 741.77H557.835V746H556.125V735.575H559.725C560.525 735.575 561.2 735.715 561.75 735.995C562.31 736.265 562.725 736.635 562.995 737.105C563.275 737.575 563.415 738.1 563.415 738.68ZM559.725 740.375C560.375 740.375 560.86 740.23 561.18 739.94C561.5 739.64 561.66 739.22 561.66 738.68C561.66 737.54 561.015 736.97 559.725 736.97H557.835V740.375H559.725ZM568.631 746.135C567.851 746.135 567.146 745.96 566.516 745.61C565.886 745.25 565.391 744.75 565.031 744.11C564.671 743.46 564.491 742.71 564.491 741.86C564.491 741.02 564.676 740.275 565.046 739.625C565.416 738.975 565.921 738.475 566.561 738.125C567.201 737.775 567.916 737.6 568.706 737.6C569.496 737.6 570.211 737.775 570.851 738.125C571.491 738.475 571.996 738.975 572.366 739.625C572.736 740.275 572.921 741.02 572.921 741.86C572.921 742.7 572.731 743.445 572.351 744.095C571.971 744.745 571.451 745.25 570.791 745.61C570.141 745.96 569.421 746.135 568.631 746.135ZM568.631 744.65C569.071 744.65 569.481 744.545 569.861 744.335C570.251 744.125 570.566 743.81 570.806 743.39C571.046 742.97 571.166 742.46 571.166 741.86C571.166 741.26 571.051 740.755 570.821 740.345C570.591 739.925 570.286 739.61 569.906 739.4C569.526 739.19 569.116 739.085 568.676 739.085C568.236 739.085 567.826 739.19 567.446 739.4C567.076 739.61 566.781 739.925 566.561 740.345C566.341 740.755 566.231 741.26 566.231 741.86C566.231 742.75 566.456 743.44 566.906 743.93C567.366 744.41 567.941 744.65 568.631 744.65ZM576.321 738.95C576.611 738.57 577.006 738.25 577.506 737.99C578.006 737.73 578.571 737.6 579.201 737.6C579.921 737.6 580.576 737.78 581.166 738.14C581.766 738.49 582.236 738.985 582.576 739.625C582.916 740.265 583.086 741 583.086 741.83C583.086 742.66 582.916 743.405 582.576 744.065C582.236 744.715 581.766 745.225 581.166 745.595C580.576 745.955 579.921 746.135 579.201 746.135C578.571 746.135 578.011 746.01 577.521 745.76C577.031 745.5 576.631 745.18 576.321 744.8V749.93H574.611V737.735H576.321V738.95ZM581.346 741.83C581.346 741.26 581.226 740.77 580.986 740.36C580.756 739.94 580.446 739.625 580.056 739.415C579.676 739.195 579.266 739.085 578.826 739.085C578.396 739.085 577.986 739.195 577.596 739.415C577.216 739.635 576.906 739.955 576.666 740.375C576.436 740.795 576.321 741.29 576.321 741.86C576.321 742.43 576.436 742.93 576.666 743.36C576.906 743.78 577.216 744.1 577.596 744.32C577.986 744.54 578.396 744.65 578.826 744.65C579.266 744.65 579.676 744.54 580.056 744.32C580.446 744.09 580.756 743.76 580.986 743.33C581.226 742.9 581.346 742.4 581.346 741.83ZM592.262 737.735V746H590.552V745.025C590.282 745.365 589.927 745.635 589.487 745.835C589.057 746.025 588.597 746.12 588.107 746.12C587.457 746.12 586.872 745.985 586.352 745.715C585.842 745.445 585.437 745.045 585.137 744.515C584.847 743.985 584.702 743.345 584.702 742.595V737.735H586.397V742.34C586.397 743.08 586.582 743.65 586.952 744.05C587.322 744.44 587.827 744.635 588.467 744.635C589.107 744.635 589.612 744.44 589.982 744.05C590.362 743.65 590.552 743.08 590.552 742.34V737.735H592.262ZM596.229 734.9V746H594.519V734.9H596.229ZM597.904 741.83C597.904 741 598.074 740.265 598.414 739.625C598.764 738.985 599.234 738.49 599.824 738.14C600.424 737.78 601.084 737.6 601.804 737.6C602.454 737.6 603.019 737.73 603.499 737.99C603.989 738.24 604.379 738.555 604.669 738.935V737.735H606.394V746H604.669V744.77C604.379 745.16 603.984 745.485 603.484 745.745C602.984 746.005 602.414 746.135 601.774 746.135C601.064 746.135 600.414 745.955 599.824 745.595C599.234 745.225 598.764 744.715 598.414 744.065C598.074 743.405 597.904 742.66 597.904 741.83ZM604.669 741.86C604.669 741.29 604.549 740.795 604.309 740.375C604.079 739.955 603.774 739.635 603.394 739.415C603.014 739.195 602.604 739.085 602.164 739.085C601.724 739.085 601.314 739.195 600.934 739.415C600.554 739.625 600.244 739.94 600.004 740.36C599.774 740.77 599.659 741.26 599.659 741.83C599.659 742.4 599.774 742.9 600.004 743.33C600.244 743.76 600.554 744.09 600.934 744.32C601.324 744.54 601.734 744.65 602.164 744.65C602.604 744.65 603.014 744.54 603.394 744.32C603.774 744.1 604.079 743.78 604.309 743.36C604.549 742.93 604.669 742.43 604.669 741.86ZM610.35 738.935C610.6 738.515 610.93 738.19 611.34 737.96C611.76 737.72 612.255 737.6 612.825 737.6V739.37H612.39C611.72 739.37 611.21 739.54 610.86 739.88C610.52 740.22 610.35 740.81 610.35 741.65V746H608.64V737.735H610.35V738.935Z" fill="url(#paint6_linear_244_731)"/>
<path d="M596.26 872.575V873.97H591.835V877.045H595.285V878.44H591.835V883H590.125V872.575H596.26ZM597.275 878.83C597.275 878 597.445 877.265 597.785 876.625C598.135 875.985 598.605 875.49 599.195 875.14C599.795 874.78 600.455 874.6 601.175 874.6C601.825 874.6 602.39 874.73 602.87 874.99C603.36 875.24 603.75 875.555 604.04 875.935V874.735H605.765V883H604.04V881.77C603.75 882.16 603.355 882.485 602.855 882.745C602.355 883.005 601.785 883.135 601.145 883.135C600.435 883.135 599.785 882.955 599.195 882.595C598.605 882.225 598.135 881.715 597.785 881.065C597.445 880.405 597.275 879.66 597.275 878.83ZM604.04 878.86C604.04 878.29 603.92 877.795 603.68 877.375C603.45 876.955 603.145 876.635 602.765 876.415C602.385 876.195 601.975 876.085 601.535 876.085C601.095 876.085 600.685 876.195 600.305 876.415C599.925 876.625 599.615 876.94 599.375 877.36C599.145 877.77 599.03 878.26 599.03 878.83C599.03 879.4 599.145 879.9 599.375 880.33C599.615 880.76 599.925 881.09 600.305 881.32C600.695 881.54 601.105 881.65 601.535 881.65C601.975 881.65 602.385 881.54 602.765 881.32C603.145 881.1 603.45 880.78 603.68 880.36C603.92 879.93 604.04 879.43 604.04 878.86ZM611.206 881.47L613.546 874.735H615.361L612.211 883H610.171L607.036 874.735H608.866L611.206 881.47ZM620.238 883.135C619.458 883.135 618.753 882.96 618.123 882.61C617.493 882.25 616.998 881.75 616.638 881.11C616.278 880.46 616.098 879.71 616.098 878.86C616.098 878.02 616.283 877.275 616.653 876.625C617.023 875.975 617.528 875.475 618.168 875.125C618.808 874.775 619.523 874.6 620.313 874.6C621.103 874.6 621.818 874.775 622.458 875.125C623.098 875.475 623.603 875.975 623.973 876.625C624.343 877.275 624.528 878.02 624.528 878.86C624.528 879.7 624.338 880.445 623.958 881.095C623.578 881.745 623.058 882.25 622.398 882.61C621.748 882.96 621.028 883.135 620.238 883.135ZM620.238 881.65C620.678 881.65 621.088 881.545 621.468 881.335C621.858 881.125 622.173 880.81 622.413 880.39C622.653 879.97 622.773 879.46 622.773 878.86C622.773 878.26 622.658 877.755 622.428 877.345C622.198 876.925 621.893 876.61 621.513 876.4C621.133 876.19 620.723 876.085 620.283 876.085C619.843 876.085 619.433 876.19 619.053 876.4C618.683 876.61 618.388 876.925 618.168 877.345C617.948 877.755 617.838 878.26 617.838 878.86C617.838 879.75 618.063 880.44 618.513 880.93C618.973 881.41 619.548 881.65 620.238 881.65ZM627.929 875.935C628.179 875.515 628.509 875.19 628.919 874.96C629.339 874.72 629.834 874.6 630.404 874.6V876.37H629.969C629.299 876.37 628.789 876.54 628.439 876.88C628.099 877.22 627.929 877.81 627.929 878.65V883H626.219V874.735H627.929V875.935ZM632.846 873.64C632.536 873.64 632.276 873.535 632.066 873.325C631.856 873.115 631.751 872.855 631.751 872.545C631.751 872.235 631.856 871.975 632.066 871.765C632.276 871.555 632.536 871.45 632.846 871.45C633.146 871.45 633.401 871.555 633.611 871.765C633.821 871.975 633.926 872.235 633.926 872.545C633.926 872.855 633.821 873.115 633.611 873.325C633.401 873.535 633.146 873.64 632.846 873.64ZM633.686 874.735V883H631.976V874.735H633.686ZM637.926 876.13V880.705C637.926 881.015 637.996 881.24 638.136 881.38C638.286 881.51 638.536 881.575 638.886 881.575H639.936V883H638.586C637.816 883 637.226 882.82 636.816 882.46C636.406 882.1 636.201 881.515 636.201 880.705V876.13H635.226V874.735H636.201V872.68H637.926V874.735H639.936V876.13H637.926ZM649.087 878.665C649.087 878.975 649.067 879.255 649.027 879.505H642.712C642.762 880.165 643.007 880.695 643.447 881.095C643.887 881.495 644.427 881.695 645.067 881.695C645.987 881.695 646.637 881.31 647.017 880.54H648.862C648.612 881.3 648.157 881.925 647.497 882.415C646.847 882.895 646.037 883.135 645.067 883.135C644.277 883.135 643.567 882.96 642.937 882.61C642.317 882.25 641.827 881.75 641.467 881.11C641.117 880.46 640.942 879.71 640.942 878.86C640.942 878.01 641.112 877.265 641.452 876.625C641.802 875.975 642.287 875.475 642.907 875.125C643.537 874.775 644.257 874.6 645.067 874.6C645.847 874.6 646.542 874.77 647.152 875.11C647.762 875.45 648.237 875.93 648.577 876.55C648.917 877.16 649.087 877.865 649.087 878.665ZM647.302 878.125C647.292 877.495 647.067 876.99 646.627 876.61C646.187 876.23 645.642 876.04 644.992 876.04C644.402 876.04 643.897 876.23 643.477 876.61C643.057 876.98 642.807 877.485 642.727 878.125H647.302ZM653.77 883.135C653.12 883.135 652.535 883.02 652.015 882.79C651.505 882.55 651.1 882.23 650.8 881.83C650.5 881.42 650.34 880.965 650.32 880.465H652.09C652.12 880.815 652.285 881.11 652.585 881.35C652.895 881.58 653.279 881.695 653.74 881.695C654.219 881.695 654.59 881.605 654.85 881.425C655.12 881.235 655.255 880.995 655.255 880.705C655.255 880.395 655.104 880.165 654.805 880.015C654.515 879.865 654.05 879.7 653.41 879.52C652.79 879.35 652.285 879.185 651.895 879.025C651.505 878.865 651.164 878.62 650.875 878.29C650.594 877.96 650.455 877.525 650.455 876.985C650.455 876.545 650.585 876.145 650.845 875.785C651.105 875.415 651.475 875.125 651.955 874.915C652.445 874.705 653.005 874.6 653.635 874.6C654.575 874.6 655.33 874.84 655.9 875.32C656.48 875.79 656.79 876.435 656.83 877.255H655.12C655.089 876.885 654.94 876.59 654.67 876.37C654.4 876.15 654.035 876.04 653.575 876.04C653.125 876.04 652.78 876.125 652.54 876.295C652.3 876.465 652.18 876.69 652.18 876.97C652.18 877.19 652.26 877.375 652.42 877.525C652.58 877.675 652.775 877.795 653.005 877.885C653.234 877.965 653.575 878.07 654.025 878.2C654.625 878.36 655.115 878.525 655.495 878.695C655.885 878.855 656.219 879.095 656.5 879.415C656.78 879.735 656.924 880.16 656.935 880.69C656.935 881.16 656.805 881.58 656.545 881.95C656.285 882.32 655.914 882.61 655.435 882.82C654.965 883.03 654.41 883.135 653.77 883.135Z" fill="url(#paint7_linear_244_731)"/>
<path d="M591.835 1006.62H595.36V1008H590.125V997.575H591.835V1006.62ZM596.22 1003.83C596.22 1003 596.39 1002.27 596.73 1001.62C597.08 1000.98 597.55 1000.49 598.14 1000.14C598.74 999.78 599.4 999.6 600.12 999.6C600.77 999.6 601.335 999.73 601.815 999.99C602.305 1000.24 602.695 1000.55 602.985 1000.93V999.735H604.71V1008H602.985V1006.77C602.695 1007.16 602.3 1007.48 601.8 1007.74C601.3 1008.01 600.73 1008.14 600.09 1008.14C599.38 1008.14 598.73 1007.95 598.14 1007.59C597.55 1007.22 597.08 1006.72 596.73 1006.07C596.39 1005.41 596.22 1004.66 596.22 1003.83ZM602.985 1003.86C602.985 1003.29 602.865 1002.79 602.625 1002.38C602.395 1001.96 602.09 1001.63 601.71 1001.41C601.33 1001.2 600.92 1001.09 600.48 1001.09C600.04 1001.09 599.63 1001.2 599.25 1001.41C598.87 1001.62 598.56 1001.94 598.32 1002.36C598.09 1002.77 597.975 1003.26 597.975 1003.83C597.975 1004.4 598.09 1004.9 598.32 1005.33C598.56 1005.76 598.87 1006.09 599.25 1006.32C599.64 1006.54 600.05 1006.65 600.48 1006.65C600.92 1006.65 601.33 1006.54 601.71 1006.32C602.09 1006.1 602.395 1005.78 602.625 1005.36C602.865 1004.93 602.985 1004.43 602.985 1003.86ZM611.126 999.6C611.776 999.6 612.356 999.735 612.866 1000.01C613.386 1000.28 613.791 1000.67 614.081 1001.21C614.371 1001.74 614.516 1002.38 614.516 1003.12V1008H612.821V1003.38C612.821 1002.64 612.636 1002.08 612.266 1001.68C611.896 1001.28 611.391 1001.09 610.751 1001.09C610.111 1001.09 609.601 1001.28 609.221 1001.68C608.851 1002.08 608.666 1002.64 608.666 1003.38V1008H606.956V999.735H608.666V1000.68C608.946 1000.34 609.301 1000.08 609.731 999.885C610.171 999.695 610.636 999.6 611.126 999.6ZM620.027 999.6C620.667 999.6 621.232 999.73 621.722 999.99C622.222 1000.24 622.612 1000.55 622.892 1000.93V999.735H624.617V1008.14C624.617 1008.9 624.457 1009.57 624.137 1010.16C623.817 1010.76 623.352 1011.23 622.742 1011.57C622.142 1011.91 621.422 1012.08 620.582 1012.08C619.462 1012.08 618.532 1011.82 617.792 1011.28C617.052 1010.76 616.632 1010.06 616.532 1009.16H618.227C618.357 1009.59 618.632 1009.93 619.052 1010.19C619.482 1010.46 619.992 1010.59 620.582 1010.59C621.272 1010.59 621.827 1010.39 622.247 1009.97C622.677 1009.55 622.892 1008.93 622.892 1008.14V1006.76C622.602 1007.15 622.207 1007.47 621.707 1007.74C621.217 1008.01 620.657 1008.14 620.027 1008.14C619.307 1008.14 618.647 1007.95 618.047 1007.59C617.457 1007.22 616.987 1006.72 616.637 1006.07C616.297 1005.41 616.127 1004.66 616.127 1003.83C616.127 1003 616.297 1002.27 616.637 1001.62C616.987 1000.98 617.457 1000.49 618.047 1000.14C618.647 999.78 619.307 999.6 620.027 999.6ZM622.892 1003.86C622.892 1003.29 622.772 1002.79 622.532 1002.38C622.302 1001.96 621.997 1001.63 621.617 1001.41C621.237 1001.2 620.827 1001.09 620.387 1001.09C619.947 1001.09 619.537 1001.2 619.157 1001.41C618.777 1001.62 618.467 1001.94 618.227 1002.36C617.997 1002.77 617.882 1003.26 617.882 1003.83C617.882 1004.4 617.997 1004.9 618.227 1005.33C618.467 1005.76 618.777 1006.09 619.157 1006.32C619.547 1006.54 619.957 1006.65 620.387 1006.65C620.827 1006.65 621.237 1006.54 621.617 1006.32C621.997 1006.1 622.302 1005.78 622.532 1005.36C622.772 1004.93 622.892 1004.43 622.892 1003.86ZM634.348 999.735V1008H632.638V1007.03C632.368 1007.37 632.013 1007.64 631.573 1007.84C631.143 1008.03 630.683 1008.12 630.193 1008.12C629.543 1008.12 628.958 1007.99 628.438 1007.72C627.928 1007.45 627.523 1007.05 627.223 1006.52C626.933 1005.98 626.788 1005.34 626.788 1004.59V999.735H628.483V1004.34C628.483 1005.08 628.668 1005.65 629.038 1006.05C629.408 1006.44 629.913 1006.64 630.553 1006.64C631.193 1006.64 631.698 1006.44 632.068 1006.05C632.448 1005.65 632.638 1005.08 632.638 1004.34V999.735H634.348ZM636.034 1003.83C636.034 1003 636.204 1002.27 636.544 1001.62C636.894 1000.98 637.364 1000.49 637.954 1000.14C638.554 999.78 639.215 999.6 639.935 999.6C640.585 999.6 641.15 999.73 641.63 999.99C642.12 1000.24 642.51 1000.55 642.799 1000.93V999.735H644.524V1008H642.799V1006.77C642.51 1007.16 642.115 1007.48 641.615 1007.74C641.115 1008.01 640.544 1008.14 639.904 1008.14C639.194 1008.14 638.544 1007.95 637.954 1007.59C637.364 1007.22 636.894 1006.72 636.544 1006.07C636.204 1005.41 636.034 1004.66 636.034 1003.83ZM642.799 1003.86C642.799 1003.29 642.68 1002.79 642.44 1002.38C642.21 1001.96 641.904 1001.63 641.524 1001.41C641.144 1001.2 640.734 1001.09 640.294 1001.09C639.854 1001.09 639.445 1001.2 639.065 1001.41C638.685 1001.62 638.375 1001.94 638.135 1002.36C637.905 1002.77 637.789 1003.26 637.789 1003.83C637.789 1004.4 637.905 1004.9 638.135 1005.33C638.375 1005.76 638.685 1006.09 639.065 1006.32C639.455 1006.54 639.865 1006.65 640.294 1006.65C640.734 1006.65 641.144 1006.54 641.524 1006.32C641.904 1006.1 642.21 1005.78 642.44 1005.36C642.68 1004.93 642.799 1004.43 642.799 1003.86ZM650.101 999.6C650.741 999.6 651.306 999.73 651.796 999.99C652.296 1000.24 652.685 1000.55 652.966 1000.93V999.735H654.69V1008.14C654.69 1008.9 654.531 1009.57 654.211 1010.16C653.891 1010.76 653.425 1011.23 652.815 1011.57C652.216 1011.91 651.496 1012.08 650.656 1012.08C649.536 1012.08 648.605 1011.82 647.865 1011.28C647.125 1010.76 646.706 1010.06 646.606 1009.16H648.301C648.431 1009.59 648.706 1009.93 649.125 1010.19C649.555 1010.46 650.065 1010.59 650.656 1010.59C651.346 1010.59 651.901 1010.39 652.32 1009.97C652.75 1009.55 652.966 1008.93 652.966 1008.14V1006.76C652.676 1007.15 652.281 1007.47 651.781 1007.74C651.291 1008.01 650.731 1008.14 650.101 1008.14C649.381 1008.14 648.72 1007.95 648.12 1007.59C647.53 1007.22 647.06 1006.72 646.711 1006.07C646.37 1005.41 646.201 1004.66 646.201 1003.83C646.201 1003 646.37 1002.27 646.711 1001.62C647.06 1000.98 647.53 1000.49 648.12 1000.14C648.72 999.78 649.381 999.6 650.101 999.6ZM652.966 1003.86C652.966 1003.29 652.846 1002.79 652.606 1002.38C652.376 1001.96 652.07 1001.63 651.69 1001.41C651.31 1001.2 650.901 1001.09 650.461 1001.09C650.021 1001.09 649.611 1001.2 649.231 1001.41C648.851 1001.62 648.541 1001.94 648.301 1002.36C648.071 1002.77 647.956 1003.26 647.956 1003.83C647.956 1004.4 648.071 1004.9 648.301 1005.33C648.541 1005.76 648.851 1006.09 649.231 1006.32C649.621 1006.54 650.031 1006.65 650.461 1006.65C650.901 1006.65 651.31 1006.54 651.69 1006.32C652.07 1006.1 652.376 1005.78 652.606 1005.36C652.846 1004.93 652.966 1004.43 652.966 1003.86ZM664.512 1003.66C664.512 1003.97 664.492 1004.26 664.452 1004.51H658.137C658.187 1005.16 658.432 1005.69 658.872 1006.09C659.312 1006.49 659.852 1006.7 660.492 1006.7C661.411 1006.7 662.062 1006.31 662.442 1005.54H664.286C664.036 1006.3 663.581 1006.92 662.922 1007.41C662.271 1007.89 661.461 1008.14 660.492 1008.14C659.702 1008.14 658.992 1007.96 658.362 1007.61C657.742 1007.25 657.252 1006.75 656.892 1006.11C656.542 1005.46 656.367 1004.71 656.367 1003.86C656.367 1003.01 656.536 1002.27 656.877 1001.62C657.227 1000.97 657.712 1000.47 658.332 1000.12C658.962 999.775 659.682 999.6 660.492 999.6C661.272 999.6 661.967 999.77 662.577 1000.11C663.187 1000.45 663.661 1000.93 664.002 1001.55C664.342 1002.16 664.512 1002.86 664.512 1003.66ZM662.727 1003.12C662.716 1002.49 662.492 1001.99 662.052 1001.61C661.612 1001.23 661.067 1001.04 660.417 1001.04C659.826 1001.04 659.322 1001.23 658.902 1001.61C658.482 1001.98 658.232 1002.48 658.152 1003.12H662.727Z" fill="url(#paint8_linear_244_731)"/>
<path d="M564.96 702.624V711H563.28V705.552L561.036 711H559.764L557.508 705.552V711H555.828V702.624H557.736L560.4 708.852L563.064 702.624H564.96ZM567.473 703.56C567.177 703.56 566.929 703.468 566.729 703.284C566.537 703.092 566.441 702.856 566.441 702.576C566.441 702.296 566.537 702.064 566.729 701.88C566.929 701.688 567.177 701.592 567.473 701.592C567.769 701.592 568.013 701.688 568.205 701.88C568.405 702.064 568.505 702.296 568.505 702.576C568.505 702.856 568.405 703.092 568.205 703.284C568.013 703.468 567.769 703.56 567.473 703.56ZM568.301 704.352V711H566.621V704.352H568.301ZM578.217 704.256C579.033 704.256 579.689 704.508 580.185 705.012C580.689 705.508 580.941 706.204 580.941 707.1V711H579.261V707.328C579.261 706.808 579.129 706.412 578.865 706.14C578.601 705.86 578.241 705.72 577.785 705.72C577.329 705.72 576.965 705.86 576.693 706.14C576.429 706.412 576.297 706.808 576.297 707.328V711H574.617V707.328C574.617 706.808 574.485 706.412 574.221 706.14C573.957 705.86 573.597 705.72 573.141 705.72C572.677 705.72 572.309 705.86 572.037 706.14C571.773 706.412 571.641 706.808 571.641 707.328V711H569.961V704.352H571.641V705.156C571.857 704.876 572.133 704.656 572.469 704.496C572.813 704.336 573.189 704.256 573.597 704.256C574.117 704.256 574.581 704.368 574.989 704.592C575.397 704.808 575.713 705.12 575.937 705.528C576.153 705.144 576.465 704.836 576.873 704.604C577.289 704.372 577.737 704.256 578.217 704.256ZM583.387 703.56C583.091 703.56 582.843 703.468 582.643 703.284C582.451 703.092 582.355 702.856 582.355 702.576C582.355 702.296 582.451 702.064 582.643 701.88C582.843 701.688 583.091 701.592 583.387 701.592C583.683 701.592 583.927 701.688 584.119 701.88C584.319 702.064 584.419 702.296 584.419 702.576C584.419 702.856 584.319 703.092 584.119 703.284C583.927 703.468 583.683 703.56 583.387 703.56ZM584.215 704.352V711H582.535V704.352H584.215ZM595.682 702.624V711H594.002V707.436H590.414V711H588.734V702.624H590.414V706.068H594.002V702.624H595.682ZM603.516 707.532C603.516 707.772 603.5 707.988 603.468 708.18H598.608C598.648 708.66 598.816 709.036 599.112 709.308C599.408 709.58 599.772 709.716 600.204 709.716C600.828 709.716 601.272 709.448 601.536 708.912H603.348C603.156 709.552 602.788 710.08 602.244 710.496C601.7 710.904 601.032 711.108 600.24 711.108C599.6 711.108 599.024 710.968 598.512 710.688C598.008 710.4 597.612 709.996 597.324 709.476C597.044 708.956 596.904 708.356 596.904 707.676C596.904 706.988 597.044 706.384 597.324 705.864C597.604 705.344 597.996 704.944 598.5 704.664C599.004 704.384 599.584 704.244 600.24 704.244C600.872 704.244 601.436 704.38 601.932 704.652C602.436 704.924 602.824 705.312 603.096 705.816C603.376 706.312 603.516 706.884 603.516 707.532ZM601.776 707.052C601.768 706.62 601.612 706.276 601.308 706.02C601.004 705.756 600.632 705.624 600.192 705.624C599.776 705.624 599.424 705.752 599.136 706.008C598.856 706.256 598.684 706.604 598.62 707.052H601.776ZM604.31 707.652C604.31 706.98 604.442 706.384 604.706 705.864C604.978 705.344 605.342 704.944 605.798 704.664C606.262 704.384 606.778 704.244 607.346 704.244C607.842 704.244 608.274 704.344 608.642 704.544C609.018 704.744 609.318 704.996 609.542 705.3V704.352H611.234V711H609.542V710.028C609.326 710.34 609.026 710.6 608.642 710.808C608.266 711.008 607.83 711.108 607.334 711.108C606.774 711.108 606.262 710.964 605.798 710.676C605.342 710.388 604.978 709.984 604.706 709.464C604.442 708.936 604.31 708.332 604.31 707.652ZM609.542 707.676C609.542 707.268 609.462 706.92 609.302 706.632C609.142 706.336 608.926 706.112 608.654 705.96C608.382 705.8 608.09 705.72 607.778 705.72C607.466 705.72 607.178 705.796 606.914 705.948C606.65 706.1 606.434 706.324 606.266 706.62C606.106 706.908 606.026 707.252 606.026 707.652C606.026 708.052 606.106 708.404 606.266 708.708C606.434 709.004 606.65 709.232 606.914 709.392C607.186 709.552 607.474 709.632 607.778 709.632C608.09 709.632 608.382 709.556 608.654 709.404C608.926 709.244 609.142 709.02 609.302 708.732C609.462 708.436 609.542 708.084 609.542 707.676ZM612.443 707.652C612.443 706.98 612.575 706.384 612.839 705.864C613.111 705.344 613.479 704.944 613.943 704.664C614.407 704.384 614.923 704.244 615.491 704.244C615.923 704.244 616.335 704.34 616.727 704.532C617.119 704.716 617.431 704.964 617.663 705.276V702.12H619.367V711H617.663V710.016C617.455 710.344 617.163 710.608 616.787 710.808C616.411 711.008 615.975 711.108 615.479 711.108C614.919 711.108 614.407 710.964 613.943 710.676C613.479 710.388 613.111 709.984 612.839 709.464C612.575 708.936 612.443 708.332 612.443 707.652ZM617.675 707.676C617.675 707.268 617.595 706.92 617.435 706.632C617.275 706.336 617.059 706.112 616.787 705.96C616.515 705.8 616.223 705.72 615.911 705.72C615.599 705.72 615.311 705.796 615.047 705.948C614.783 706.1 614.567 706.324 614.399 706.62C614.239 706.908 614.159 707.252 614.159 707.652C614.159 708.052 614.239 708.404 614.399 708.708C614.567 709.004 614.783 709.232 615.047 709.392C615.319 709.552 615.607 709.632 615.911 709.632C616.223 709.632 616.515 709.556 616.787 709.404C617.059 709.244 617.275 709.02 617.435 708.732C617.595 708.436 617.675 708.084 617.675 707.676ZM622.688 702.12V711H621.008V702.12H622.688ZM625.2 703.56C624.904 703.56 624.656 703.468 624.456 703.284C624.263 703.092 624.168 702.856 624.168 702.576C624.168 702.296 624.263 702.064 624.456 701.88C624.656 701.688 624.904 701.592 625.2 701.592C625.496 701.592 625.74 701.688 625.932 701.88C626.132 702.064 626.232 702.296 626.232 702.576C626.232 702.856 626.132 703.092 625.932 703.284C625.74 703.468 625.496 703.56 625.2 703.56ZM626.028 704.352V711H624.348V704.352H626.028ZM631.371 704.256C632.163 704.256 632.803 704.508 633.291 705.012C633.779 705.508 634.023 706.204 634.023 707.1V711H632.343V707.328C632.343 706.8 632.211 706.396 631.947 706.116C631.683 705.828 631.323 705.684 630.867 705.684C630.403 705.684 630.035 705.828 629.763 706.116C629.499 706.396 629.367 706.8 629.367 707.328V711H627.687V704.352H629.367V705.18C629.591 704.892 629.875 704.668 630.219 704.508C630.571 704.34 630.955 704.256 631.371 704.256ZM641.801 707.532C641.801 707.772 641.785 707.988 641.753 708.18H636.893C636.933 708.66 637.101 709.036 637.397 709.308C637.693 709.58 638.057 709.716 638.489 709.716C639.113 709.716 639.557 709.448 639.821 708.912H641.633C641.441 709.552 641.073 710.08 640.529 710.496C639.985 710.904 639.317 711.108 638.525 711.108C637.885 711.108 637.309 710.968 636.797 710.688C636.293 710.4 635.897 709.996 635.609 709.476C635.329 708.956 635.189 708.356 635.189 707.676C635.189 706.988 635.329 706.384 635.609 705.864C635.889 705.344 636.281 704.944 636.785 704.664C637.289 704.384 637.869 704.244 638.525 704.244C639.157 704.244 639.721 704.38 640.217 704.652C640.721 704.924 641.109 705.312 641.381 705.816C641.661 706.312 641.801 706.884 641.801 707.532ZM640.061 707.052C640.053 706.62 639.897 706.276 639.593 706.02C639.289 705.756 638.917 705.624 638.477 705.624C638.061 705.624 637.709 705.752 637.421 706.008C637.141 706.256 636.969 706.604 636.905 707.052H640.061Z" fill="url(#paint9_linear_244_731)"/>
<path d="M555.42 842.8C555.42 841.976 555.604 841.24 555.972 840.592C556.348 839.936 556.856 839.428 557.496 839.068C558.144 838.7 558.868 838.516 559.668 838.516C560.604 838.516 561.424 838.756 562.128 839.236C562.832 839.716 563.324 840.38 563.604 841.228H561.672C561.48 840.828 561.208 840.528 560.856 840.328C560.512 840.128 560.112 840.028 559.656 840.028C559.168 840.028 558.732 840.144 558.348 840.376C557.972 840.6 557.676 840.92 557.46 841.336C557.252 841.752 557.148 842.24 557.148 842.8C557.148 843.352 557.252 843.84 557.46 844.264C557.676 844.68 557.972 845.004 558.348 845.236C558.732 845.46 559.168 845.572 559.656 845.572C560.112 845.572 560.512 845.472 560.856 845.272C561.208 845.064 561.48 844.76 561.672 844.36H563.604C563.324 845.216 562.832 845.884 562.128 846.364C561.432 846.836 560.612 847.072 559.668 847.072C558.868 847.072 558.144 846.892 557.496 846.532C556.856 846.164 556.348 845.656 555.972 845.008C555.604 844.36 555.42 843.624 555.42 842.8ZM567.991 847.108C567.351 847.108 566.775 846.968 566.263 846.688C565.751 846.4 565.347 845.996 565.051 845.476C564.763 844.956 564.619 844.356 564.619 843.676C564.619 842.996 564.767 842.396 565.063 841.876C565.367 841.356 565.779 840.956 566.299 840.676C566.819 840.388 567.399 840.244 568.039 840.244C568.679 840.244 569.259 840.388 569.779 840.676C570.299 840.956 570.707 841.356 571.003 841.876C571.307 842.396 571.459 842.996 571.459 843.676C571.459 844.356 571.303 844.956 570.991 845.476C570.687 845.996 570.271 846.4 569.743 846.688C569.223 846.968 568.639 847.108 567.991 847.108ZM567.991 845.644C568.295 845.644 568.579 845.572 568.843 845.428C569.115 845.276 569.331 845.052 569.491 844.756C569.651 844.46 569.731 844.1 569.731 843.676C569.731 843.044 569.563 842.56 569.227 842.224C568.899 841.88 568.495 841.708 568.015 841.708C567.535 841.708 567.131 841.88 566.803 842.224C566.483 842.56 566.323 843.044 566.323 843.676C566.323 844.308 566.479 844.796 566.791 845.14C567.111 845.476 567.511 845.644 567.991 845.644ZM576.375 840.256C577.167 840.256 577.807 840.508 578.295 841.012C578.783 841.508 579.027 842.204 579.027 843.1V847H577.347V843.328C577.347 842.8 577.215 842.396 576.951 842.116C576.687 841.828 576.327 841.684 575.871 841.684C575.407 841.684 575.039 841.828 574.767 842.116C574.503 842.396 574.371 842.8 574.371 843.328V847H572.691V840.352H574.371V841.18C574.595 840.892 574.879 840.668 575.223 840.508C575.575 840.34 575.959 840.256 576.375 840.256ZM582.581 841.732V844.948C582.581 845.172 582.633 845.336 582.737 845.44C582.849 845.536 583.033 845.584 583.289 845.584H584.069V847H583.013C581.597 847 580.889 846.312 580.889 844.936V841.732H580.097V840.352H580.889V838.708H582.581V840.352H584.069V841.732H582.581ZM591.457 843.532C591.457 843.772 591.441 843.988 591.409 844.18H586.549C586.589 844.66 586.757 845.036 587.053 845.308C587.349 845.58 587.713 845.716 588.145 845.716C588.769 845.716 589.213 845.448 589.477 844.912H591.289C591.097 845.552 590.729 846.08 590.185 846.496C589.641 846.904 588.973 847.108 588.181 847.108C587.541 847.108 586.965 846.968 586.453 846.688C585.949 846.4 585.553 845.996 585.265 845.476C584.985 844.956 584.845 844.356 584.845 843.676C584.845 842.988 584.985 842.384 585.265 841.864C585.545 841.344 585.937 840.944 586.441 840.664C586.945 840.384 587.525 840.244 588.181 840.244C588.813 840.244 589.377 840.38 589.873 840.652C590.377 840.924 590.765 841.312 591.037 841.816C591.317 842.312 591.457 842.884 591.457 843.532ZM589.717 843.052C589.709 842.62 589.553 842.276 589.249 842.02C588.945 841.756 588.573 841.624 588.133 841.624C587.717 841.624 587.365 841.752 587.077 842.008C586.797 842.256 586.625 842.604 586.561 843.052H589.717ZM596.367 840.256C597.159 840.256 597.799 840.508 598.287 841.012C598.775 841.508 599.019 842.204 599.019 843.1V847H597.339V843.328C597.339 842.8 597.207 842.396 596.943 842.116C596.68 841.828 596.319 841.684 595.863 841.684C595.399 841.684 595.031 841.828 594.759 842.116C594.495 842.396 594.363 842.8 594.363 843.328V847H592.683V840.352H594.363V841.18C594.587 840.892 594.871 840.668 595.215 840.508C595.567 840.34 595.951 840.256 596.367 840.256ZM602.573 841.732V844.948C602.573 845.172 602.625 845.336 602.729 845.44C602.841 845.536 603.025 845.584 603.281 845.584H604.061V847H603.005C601.589 847 600.881 846.312 600.881 844.936V841.732H600.089V840.352H600.881V838.708H602.573V840.352H604.061V841.732H602.573Z" fill="url(#paint10_linear_244_731)"/>
<path d="M561.936 956.216C561.936 956.664 561.828 957.084 561.612 957.476C561.404 957.868 561.072 958.184 560.616 958.424C560.168 958.664 559.6 958.784 558.912 958.784H557.508V962H555.828V953.624H558.912C559.56 953.624 560.112 953.736 560.568 953.96C561.024 954.184 561.364 954.492 561.588 954.884C561.82 955.276 561.936 955.72 561.936 956.216ZM558.84 957.428C559.304 957.428 559.648 957.324 559.872 957.116C560.096 956.9 560.208 956.6 560.208 956.216C560.208 955.4 559.752 954.992 558.84 954.992H557.508V957.428H558.84ZM564.809 956.384C565.025 956.032 565.305 955.756 565.649 955.556C566.001 955.356 566.401 955.256 566.849 955.256V957.02H566.405C565.877 957.02 565.477 957.144 565.205 957.392C564.941 957.64 564.809 958.072 564.809 958.688V962H563.129V955.352H564.809V956.384ZM574.16 958.532C574.16 958.772 574.144 958.988 574.112 959.18H569.252C569.292 959.66 569.46 960.036 569.756 960.308C570.052 960.58 570.416 960.716 570.848 960.716C571.472 960.716 571.916 960.448 572.18 959.912H573.992C573.8 960.552 573.432 961.08 572.888 961.496C572.344 961.904 571.676 962.108 570.884 962.108C570.244 962.108 569.668 961.968 569.156 961.688C568.652 961.4 568.256 960.996 567.968 960.476C567.688 959.956 567.548 959.356 567.548 958.676C567.548 957.988 567.688 957.384 567.968 956.864C568.248 956.344 568.64 955.944 569.144 955.664C569.648 955.384 570.228 955.244 570.884 955.244C571.516 955.244 572.08 955.38 572.576 955.652C573.08 955.924 573.468 956.312 573.74 956.816C574.02 957.312 574.16 957.884 574.16 958.532ZM572.42 958.052C572.412 957.62 572.256 957.276 571.952 957.02C571.648 956.756 571.276 956.624 570.836 956.624C570.42 956.624 570.068 956.752 569.78 957.008C569.5 957.256 569.328 957.604 569.264 958.052H572.42ZM578.435 956.732H577.271V962H575.567V956.732H574.811V955.352H575.567V955.016C575.567 954.2 575.799 953.6 576.263 953.216C576.727 952.832 577.427 952.652 578.363 952.676V954.092C577.955 954.084 577.671 954.152 577.511 954.296C577.351 954.44 577.271 954.7 577.271 955.076V955.352H578.435V956.732ZM585.703 958.532C585.703 958.772 585.687 958.988 585.655 959.18H580.795C580.835 959.66 581.003 960.036 581.299 960.308C581.595 960.58 581.959 960.716 582.391 960.716C583.015 960.716 583.459 960.448 583.723 959.912H585.535C585.343 960.552 584.975 961.08 584.431 961.496C583.887 961.904 583.219 962.108 582.427 962.108C581.787 962.108 581.211 961.968 580.699 961.688C580.195 961.4 579.799 960.996 579.511 960.476C579.231 959.956 579.091 959.356 579.091 958.676C579.091 957.988 579.231 957.384 579.511 956.864C579.791 956.344 580.183 955.944 580.687 955.664C581.191 955.384 581.771 955.244 582.427 955.244C583.059 955.244 583.623 955.38 584.119 955.652C584.623 955.924 585.011 956.312 585.283 956.816C585.563 957.312 585.703 957.884 585.703 958.532ZM583.963 958.052C583.955 957.62 583.799 957.276 583.495 957.02C583.191 956.756 582.819 956.624 582.379 956.624C581.963 956.624 581.611 956.752 581.323 957.008C581.043 957.256 580.871 957.604 580.807 958.052H583.963ZM588.61 956.384C588.826 956.032 589.106 955.756 589.45 955.556C589.802 955.356 590.202 955.256 590.65 955.256V957.02H590.206C589.678 957.02 589.278 957.144 589.006 957.392C588.742 957.64 588.61 958.072 588.61 958.688V962H586.93V955.352H588.61V956.384ZM597.961 958.532C597.961 958.772 597.945 958.988 597.913 959.18H593.053C593.093 959.66 593.261 960.036 593.557 960.308C593.853 960.58 594.217 960.716 594.649 960.716C595.273 960.716 595.717 960.448 595.981 959.912H597.793C597.601 960.552 597.233 961.08 596.689 961.496C596.145 961.904 595.477 962.108 594.685 962.108C594.045 962.108 593.469 961.968 592.957 961.688C592.453 961.4 592.057 960.996 591.769 960.476C591.489 959.956 591.349 959.356 591.349 958.676C591.349 957.988 591.489 957.384 591.769 956.864C592.049 956.344 592.441 955.944 592.945 955.664C593.449 955.384 594.029 955.244 594.685 955.244C595.317 955.244 595.881 955.38 596.377 955.652C596.881 955.924 597.269 956.312 597.541 956.816C597.821 957.312 597.961 957.884 597.961 958.532ZM596.221 958.052C596.213 957.62 596.057 957.276 595.753 957.02C595.449 956.756 595.077 956.624 594.637 956.624C594.221 956.624 593.869 956.752 593.581 957.008C593.301 957.256 593.129 957.604 593.065 958.052H596.221ZM602.871 955.256C603.663 955.256 604.303 955.508 604.791 956.012C605.279 956.508 605.523 957.204 605.523 958.1V962H603.843V958.328C603.843 957.8 603.711 957.396 603.447 957.116C603.183 956.828 602.823 956.684 602.367 956.684C601.903 956.684 601.535 956.828 601.263 957.116C600.999 957.396 600.867 957.8 600.867 958.328V962H599.187V955.352H600.867V956.18C601.091 955.892 601.375 955.668 601.719 955.508C602.071 955.34 602.455 955.256 602.871 955.256ZM606.689 958.676C606.689 957.988 606.829 957.388 607.109 956.876C607.389 956.356 607.777 955.956 608.273 955.676C608.769 955.388 609.337 955.244 609.977 955.244C610.801 955.244 611.481 955.452 612.017 955.868C612.561 956.276 612.925 956.852 613.109 957.596H611.297C611.201 957.308 611.037 957.084 610.805 956.924C610.581 956.756 610.301 956.672 609.965 956.672C609.485 956.672 609.105 956.848 608.825 957.2C608.545 957.544 608.405 958.036 608.405 958.676C608.405 959.308 608.545 959.8 608.825 960.152C609.105 960.496 609.485 960.668 609.965 960.668C610.645 960.668 611.089 960.364 611.297 959.756H613.109C612.925 960.476 612.561 961.048 612.017 961.472C611.473 961.896 610.793 962.108 609.977 962.108C609.337 962.108 608.769 961.968 608.273 961.688C607.777 961.4 607.389 961 607.109 960.488C606.829 959.968 606.689 959.364 606.689 958.676ZM620.52 958.532C620.52 958.772 620.504 958.988 620.472 959.18H615.612C615.652 959.66 615.82 960.036 616.116 960.308C616.412 960.58 616.776 960.716 617.208 960.716C617.832 960.716 618.276 960.448 618.54 959.912H620.352C620.16 960.552 619.792 961.08 619.248 961.496C618.704 961.904 618.036 962.108 617.244 962.108C616.604 962.108 616.028 961.968 615.516 961.688C615.012 961.4 614.616 960.996 614.328 960.476C614.048 959.956 613.908 959.356 613.908 958.676C613.908 957.988 614.048 957.384 614.328 956.864C614.608 956.344 615 955.944 615.504 955.664C616.008 955.384 616.588 955.244 617.244 955.244C617.876 955.244 618.44 955.38 618.936 955.652C619.44 955.924 619.828 956.312 620.1 956.816C620.38 957.312 620.52 957.884 620.52 958.532ZM618.78 958.052C618.772 957.62 618.616 957.276 618.312 957.02C618.008 956.756 617.636 956.624 617.196 956.624C616.78 956.624 616.428 956.752 616.14 957.008C615.86 957.256 615.688 957.604 615.624 958.052H618.78ZM624.29 962.108C623.746 962.108 623.258 962.012 622.826 961.82C622.394 961.62 622.05 961.352 621.794 961.016C621.546 960.68 621.41 960.308 621.386 959.9H623.078C623.11 960.156 623.234 960.368 623.45 960.536C623.674 960.704 623.95 960.788 624.278 960.788C624.598 960.788 624.846 960.724 625.022 960.596C625.206 960.468 625.298 960.304 625.298 960.104C625.298 959.888 625.186 959.728 624.962 959.624C624.746 959.512 624.398 959.392 623.918 959.264C623.422 959.144 623.014 959.02 622.694 958.892C622.382 958.764 622.11 958.568 621.878 958.304C621.654 958.04 621.542 957.684 621.542 957.236C621.542 956.868 621.646 956.532 621.854 956.228C622.07 955.924 622.374 955.684 622.766 955.508C623.166 955.332 623.634 955.244 624.17 955.244C624.962 955.244 625.594 955.444 626.066 955.844C626.538 956.236 626.798 956.768 626.846 957.44H625.238C625.214 957.176 625.102 956.968 624.902 956.816C624.71 956.656 624.45 956.576 624.122 956.576C623.818 956.576 623.582 956.632 623.414 956.744C623.254 956.856 623.174 957.012 623.174 957.212C623.174 957.436 623.286 957.608 623.51 957.728C623.734 957.84 624.082 957.956 624.554 958.076C625.034 958.196 625.43 958.32 625.742 958.448C626.054 958.576 626.322 958.776 626.546 959.048C626.778 959.312 626.898 959.664 626.906 960.104C626.906 960.488 626.798 960.832 626.582 961.136C626.374 961.44 626.07 961.68 625.67 961.856C625.278 962.024 624.818 962.108 624.29 962.108Z" fill="url(#paint11_linear_244_731)"/>
<path d="M562.86 767.575V768.97H560.085V778H558.375V768.97H555.585V767.575H562.86ZM566.302 770.935C566.552 770.515 566.882 770.19 567.292 769.96C567.712 769.72 568.207 769.6 568.777 769.6V771.37H568.342C567.672 771.37 567.162 771.54 566.812 771.88C566.472 772.22 566.302 772.81 566.302 773.65V778H564.592V769.735H566.302V770.935ZM577.924 773.665C577.924 773.975 577.904 774.255 577.864 774.505H571.549C571.599 775.165 571.844 775.695 572.284 776.095C572.724 776.495 573.264 776.695 573.904 776.695C574.824 776.695 575.474 776.31 575.854 775.54H577.699C577.449 776.3 576.994 776.925 576.334 777.415C575.684 777.895 574.874 778.135 573.904 778.135C573.114 778.135 572.404 777.96 571.774 777.61C571.154 777.25 570.664 776.75 570.304 776.11C569.954 775.46 569.779 774.71 569.779 773.86C569.779 773.01 569.949 772.265 570.289 771.625C570.639 770.975 571.124 770.475 571.744 770.125C572.374 769.775 573.094 769.6 573.904 769.6C574.684 769.6 575.379 769.77 575.989 770.11C576.599 770.45 577.074 770.93 577.414 771.55C577.754 772.16 577.924 772.865 577.924 773.665ZM576.139 773.125C576.129 772.495 575.904 771.99 575.464 771.61C575.024 771.23 574.479 771.04 573.829 771.04C573.239 771.04 572.734 771.23 572.314 771.61C571.894 771.98 571.644 772.485 571.564 773.125H576.139ZM579.036 773.83C579.036 773 579.206 772.265 579.546 771.625C579.896 770.985 580.366 770.49 580.956 770.14C581.556 769.78 582.216 769.6 582.936 769.6C583.586 769.6 584.151 769.73 584.631 769.99C585.121 770.24 585.511 770.555 585.801 770.935V769.735H587.526V778H585.801V776.77C585.511 777.16 585.116 777.485 584.616 777.745C584.116 778.005 583.546 778.135 582.906 778.135C582.196 778.135 581.546 777.955 580.956 777.595C580.366 777.225 579.896 776.715 579.546 776.065C579.206 775.405 579.036 774.66 579.036 773.83ZM585.801 773.86C585.801 773.29 585.681 772.795 585.441 772.375C585.211 771.955 584.906 771.635 584.526 771.415C584.146 771.195 583.736 771.085 583.296 771.085C582.856 771.085 582.446 771.195 582.066 771.415C581.686 771.625 581.376 771.94 581.136 772.36C580.906 772.77 580.791 773.26 580.791 773.83C580.791 774.4 580.906 774.9 581.136 775.33C581.376 775.76 581.686 776.09 582.066 776.32C582.456 776.54 582.866 776.65 583.296 776.65C583.736 776.65 584.146 776.54 584.526 776.32C584.906 776.1 585.211 775.78 585.441 775.36C585.681 774.93 585.801 774.43 585.801 773.86ZM589.202 773.83C589.202 773 589.372 772.265 589.712 771.625C590.062 770.985 590.532 770.49 591.122 770.14C591.722 769.78 592.387 769.6 593.117 769.6C593.657 769.6 594.187 769.72 594.707 769.96C595.237 770.19 595.657 770.5 595.967 770.89V766.9H597.692V778H595.967V776.755C595.687 777.155 595.297 777.485 594.797 777.745C594.307 778.005 593.742 778.135 593.102 778.135C592.383 778.135 591.722 777.955 591.122 777.595C590.532 777.225 590.062 776.715 589.712 776.065C589.372 775.405 589.202 774.66 589.202 773.83ZM595.967 773.86C595.967 773.29 595.847 772.795 595.607 772.375C595.378 771.955 595.072 771.635 594.692 771.415C594.312 771.195 593.902 771.085 593.462 771.085C593.022 771.085 592.612 771.195 592.232 771.415C591.852 771.625 591.542 771.94 591.302 772.36C591.073 772.77 590.957 773.26 590.957 773.83C590.957 774.4 591.073 774.9 591.302 775.33C591.542 775.76 591.852 776.09 592.232 776.32C592.622 776.54 593.032 776.65 593.462 776.65C593.902 776.65 594.312 776.54 594.692 776.32C595.072 776.1 595.378 775.78 595.607 775.36C595.847 774.93 595.967 774.43 595.967 773.86ZM600.808 768.64C600.498 768.64 600.239 768.535 600.029 768.325C599.818 768.115 599.714 767.855 599.714 767.545C599.714 767.235 599.818 766.975 600.029 766.765C600.239 766.555 600.498 766.45 600.808 766.45C601.108 766.45 601.363 766.555 601.573 766.765C601.784 766.975 601.888 767.235 601.888 767.545C601.888 767.855 601.784 768.115 601.573 768.325C601.363 768.535 601.108 768.64 600.808 768.64ZM601.648 769.735V778H599.938V769.735H601.648ZM608.064 769.6C608.714 769.6 609.294 769.735 609.804 770.005C610.324 770.275 610.729 770.675 611.019 771.205C611.309 771.735 611.454 772.375 611.454 773.125V778H609.759V773.38C609.759 772.64 609.574 772.075 609.204 771.685C608.834 771.285 608.329 771.085 607.689 771.085C607.049 771.085 606.539 771.285 606.159 771.685C605.789 772.075 605.604 772.64 605.604 773.38V778H603.894V769.735H605.604V770.68C605.884 770.34 606.239 770.075 606.669 769.885C607.109 769.695 607.574 769.6 608.064 769.6ZM616.965 769.6C617.605 769.6 618.17 769.73 618.66 769.99C619.16 770.24 619.55 770.555 619.83 770.935V769.735H621.555V778.135C621.555 778.895 621.395 779.57 621.075 780.16C620.755 780.76 620.29 781.23 619.68 781.57C619.08 781.91 618.36 782.08 617.52 782.08C616.4 782.08 615.47 781.815 614.73 781.285C613.99 780.765 613.57 780.055 613.47 779.155H615.165C615.295 779.585 615.57 779.93 615.99 780.19C616.42 780.46 616.93 780.595 617.52 780.595C618.21 780.595 618.765 780.385 619.185 779.965C619.615 779.545 619.83 778.935 619.83 778.135V776.755C619.54 777.145 619.145 777.475 618.645 777.745C618.155 778.005 617.595 778.135 616.965 778.135C616.245 778.135 615.585 777.955 614.985 777.595C614.395 777.225 613.925 776.715 613.575 776.065C613.235 775.405 613.065 774.66 613.065 773.83C613.065 773 613.235 772.265 613.575 771.625C613.925 770.985 614.395 770.49 614.985 770.14C615.585 769.78 616.245 769.6 616.965 769.6ZM619.83 773.86C619.83 773.29 619.71 772.795 619.47 772.375C619.24 771.955 618.935 771.635 618.555 771.415C618.175 771.195 617.765 771.085 617.325 771.085C616.885 771.085 616.475 771.195 616.095 771.415C615.715 771.625 615.405 771.94 615.165 772.36C614.935 772.77 614.82 773.26 614.82 773.83C614.82 774.4 614.935 774.9 615.165 775.33C615.405 775.76 615.715 776.09 616.095 776.32C616.485 776.54 616.895 776.65 617.325 776.65C617.765 776.65 618.175 776.54 618.555 776.32C618.935 776.1 619.24 775.78 619.47 775.36C619.71 774.93 619.83 774.43 619.83 773.86Z" fill="url(#paint12_linear_244_731)"/>
<path d="M593.53 906.575C594.64 906.575 595.61 906.79 596.44 907.22C597.28 907.64 597.925 908.25 598.375 909.05C598.835 909.84 599.065 910.765 599.065 911.825C599.065 912.885 598.835 913.805 598.375 914.585C597.925 915.365 597.28 915.965 596.44 916.385C595.61 916.795 594.64 917 593.53 917H590.125V906.575H593.53ZM593.53 915.605C594.75 915.605 595.685 915.275 596.335 914.615C596.985 913.955 597.31 913.025 597.31 911.825C597.31 910.615 596.985 909.67 596.335 908.99C595.685 908.31 594.75 907.97 593.53 907.97H591.835V915.605H593.53ZM604.345 917.135C603.565 917.135 602.86 916.96 602.23 916.61C601.6 916.25 601.105 915.75 600.745 915.11C600.385 914.46 600.205 913.71 600.205 912.86C600.205 912.02 600.39 911.275 600.76 910.625C601.13 909.975 601.635 909.475 602.275 909.125C602.915 908.775 603.63 908.6 604.42 908.6C605.21 908.6 605.925 908.775 606.565 909.125C607.205 909.475 607.71 909.975 608.08 910.625C608.45 911.275 608.635 912.02 608.635 912.86C608.635 913.7 608.445 914.445 608.065 915.095C607.685 915.745 607.165 916.25 606.505 916.61C605.855 916.96 605.135 917.135 604.345 917.135ZM604.345 915.65C604.785 915.65 605.195 915.545 605.575 915.335C605.965 915.125 606.28 914.81 606.52 914.39C606.76 913.97 606.88 913.46 606.88 912.86C606.88 912.26 606.765 911.755 606.535 911.345C606.305 910.925 606 910.61 605.62 910.4C605.24 910.19 604.83 910.085 604.39 910.085C603.95 910.085 603.54 910.19 603.16 910.4C602.79 910.61 602.495 910.925 602.275 911.345C602.055 911.755 601.945 912.26 601.945 912.86C601.945 913.75 602.17 914.44 602.62 914.93C603.08 915.41 603.655 915.65 604.345 915.65ZM621.425 908.735L618.86 917H617.06L615.395 910.895L613.73 917H611.93L609.35 908.735H611.09L612.815 915.38L614.57 908.735H616.355L618.035 915.35L619.745 908.735H621.425ZM626.873 908.6C627.523 908.6 628.103 908.735 628.613 909.005C629.133 909.275 629.538 909.675 629.828 910.205C630.118 910.735 630.263 911.375 630.263 912.125V917H628.568V912.38C628.568 911.64 628.383 911.075 628.013 910.685C627.643 910.285 627.138 910.085 626.498 910.085C625.858 910.085 625.348 910.285 624.968 910.685C624.598 911.075 624.413 911.64 624.413 912.38V917H622.703V908.735H624.413V909.68C624.693 909.34 625.048 909.075 625.478 908.885C625.918 908.695 626.383 908.6 626.873 908.6ZM634.154 905.9V917H632.444V905.9H634.154ZM639.984 917.135C639.204 917.135 638.499 916.96 637.869 916.61C637.239 916.25 636.744 915.75 636.384 915.11C636.024 914.46 635.844 913.71 635.844 912.86C635.844 912.02 636.029 911.275 636.399 910.625C636.769 909.975 637.274 909.475 637.914 909.125C638.554 908.775 639.269 908.6 640.059 908.6C640.849 908.6 641.564 908.775 642.204 909.125C642.844 909.475 643.349 909.975 643.719 910.625C644.089 911.275 644.274 912.02 644.274 912.86C644.274 913.7 644.084 914.445 643.704 915.095C643.324 915.745 642.804 916.25 642.144 916.61C641.494 916.96 640.774 917.135 639.984 917.135ZM639.984 915.65C640.424 915.65 640.834 915.545 641.214 915.335C641.604 915.125 641.919 914.81 642.159 914.39C642.399 913.97 642.519 913.46 642.519 912.86C642.519 912.26 642.404 911.755 642.174 911.345C641.944 910.925 641.639 910.61 641.259 910.4C640.879 910.19 640.469 910.085 640.029 910.085C639.589 910.085 639.179 910.19 638.799 910.4C638.429 910.61 638.134 910.925 637.914 911.345C637.694 911.755 637.584 912.26 637.584 912.86C637.584 913.75 637.809 914.44 638.259 914.93C638.719 915.41 639.294 915.65 639.984 915.65ZM645.395 912.83C645.395 912 645.565 911.265 645.905 910.625C646.255 909.985 646.725 909.49 647.315 909.14C647.915 908.78 648.575 908.6 649.295 908.6C649.945 908.6 650.51 908.73 650.99 908.99C651.48 909.24 651.87 909.555 652.16 909.935V908.735H653.885V917H652.16V915.77C651.87 916.16 651.475 916.485 650.975 916.745C650.475 917.005 649.905 917.135 649.265 917.135C648.555 917.135 647.905 916.955 647.315 916.595C646.725 916.225 646.255 915.715 645.905 915.065C645.565 914.405 645.395 913.66 645.395 912.83ZM652.16 912.86C652.16 912.29 652.04 911.795 651.8 911.375C651.57 910.955 651.265 910.635 650.885 910.415C650.505 910.195 650.095 910.085 649.655 910.085C649.215 910.085 648.805 910.195 648.425 910.415C648.045 910.625 647.735 910.94 647.495 911.36C647.265 911.77 647.15 912.26 647.15 912.83C647.15 913.4 647.265 913.9 647.495 914.33C647.735 914.76 648.045 915.09 648.425 915.32C648.815 915.54 649.225 915.65 649.655 915.65C650.095 915.65 650.505 915.54 650.885 915.32C651.265 915.1 651.57 914.78 651.8 914.36C652.04 913.93 652.16 913.43 652.16 912.86ZM655.561 912.83C655.561 912 655.731 911.265 656.071 910.625C656.421 909.985 656.891 909.49 657.481 909.14C658.081 908.78 658.746 908.6 659.476 908.6C660.016 908.6 660.546 908.72 661.066 908.96C661.596 909.19 662.016 909.5 662.326 909.89V905.9H664.051V917H662.326V915.755C662.046 916.155 661.656 916.485 661.156 916.745C660.666 917.005 660.101 917.135 659.461 917.135C658.741 917.135 658.081 916.955 657.481 916.595C656.891 916.225 656.421 915.715 656.071 915.065C655.731 914.405 655.561 913.66 655.561 912.83ZM662.326 912.86C662.326 912.29 662.206 911.795 661.966 911.375C661.736 910.955 661.431 910.635 661.051 910.415C660.671 910.195 660.261 910.085 659.821 910.085C659.381 910.085 658.971 910.195 658.591 910.415C658.211 910.625 657.901 910.94 657.661 911.36C657.431 911.77 657.316 912.26 657.316 912.83C657.316 913.4 657.431 913.9 657.661 914.33C657.901 914.76 658.211 915.09 658.591 915.32C658.981 915.54 659.391 915.65 659.821 915.65C660.261 915.65 660.671 915.54 661.051 915.32C661.431 915.1 661.736 914.78 661.966 914.36C662.206 913.93 662.326 913.43 662.326 912.86Z" fill="url(#paint13_linear_244_731)"/>
<path d="M596.26 873.575V874.97H591.835V878.045H595.285V879.44H591.835V884H590.125V873.575H596.26ZM597.275 879.83C597.275 879 597.445 878.265 597.785 877.625C598.135 876.985 598.605 876.49 599.195 876.14C599.795 875.78 600.455 875.6 601.175 875.6C601.825 875.6 602.39 875.73 602.87 875.99C603.36 876.24 603.75 876.555 604.04 876.935V875.735H605.765V884H604.04V882.77C603.75 883.16 603.355 883.485 602.855 883.745C602.355 884.005 601.785 884.135 601.145 884.135C600.435 884.135 599.785 883.955 599.195 883.595C598.605 883.225 598.135 882.715 597.785 882.065C597.445 881.405 597.275 880.66 597.275 879.83ZM604.04 879.86C604.04 879.29 603.92 878.795 603.68 878.375C603.45 877.955 603.145 877.635 602.765 877.415C602.385 877.195 601.975 877.085 601.535 877.085C601.095 877.085 600.685 877.195 600.305 877.415C599.925 877.625 599.615 877.94 599.375 878.36C599.145 878.77 599.03 879.26 599.03 879.83C599.03 880.4 599.145 880.9 599.375 881.33C599.615 881.76 599.925 882.09 600.305 882.32C600.695 882.54 601.105 882.65 601.535 882.65C601.975 882.65 602.385 882.54 602.765 882.32C603.145 882.1 603.45 881.78 603.68 881.36C603.92 880.93 604.04 880.43 604.04 879.86ZM611.206 882.47L613.546 875.735H615.361L612.211 884H610.171L607.036 875.735H608.866L611.206 882.47ZM620.238 884.135C619.458 884.135 618.753 883.96 618.123 883.61C617.493 883.25 616.998 882.75 616.638 882.11C616.278 881.46 616.098 880.71 616.098 879.86C616.098 879.02 616.283 878.275 616.653 877.625C617.023 876.975 617.528 876.475 618.168 876.125C618.808 875.775 619.523 875.6 620.313 875.6C621.103 875.6 621.818 875.775 622.458 876.125C623.098 876.475 623.603 876.975 623.973 877.625C624.343 878.275 624.528 879.02 624.528 879.86C624.528 880.7 624.338 881.445 623.958 882.095C623.578 882.745 623.058 883.25 622.398 883.61C621.748 883.96 621.028 884.135 620.238 884.135ZM620.238 882.65C620.678 882.65 621.088 882.545 621.468 882.335C621.858 882.125 622.173 881.81 622.413 881.39C622.653 880.97 622.773 880.46 622.773 879.86C622.773 879.26 622.658 878.755 622.428 878.345C622.198 877.925 621.893 877.61 621.513 877.4C621.133 877.19 620.723 877.085 620.283 877.085C619.843 877.085 619.433 877.19 619.053 877.4C618.683 877.61 618.388 877.925 618.168 878.345C617.948 878.755 617.838 879.26 617.838 879.86C617.838 880.75 618.063 881.44 618.513 881.93C618.973 882.41 619.548 882.65 620.238 882.65ZM633.704 875.735V884H631.994V883.025C631.724 883.365 631.369 883.635 630.929 883.835C630.499 884.025 630.039 884.12 629.549 884.12C628.899 884.12 628.314 883.985 627.794 883.715C627.284 883.445 626.879 883.045 626.579 882.515C626.289 881.985 626.144 881.345 626.144 880.595V875.735H627.839V880.34C627.839 881.08 628.024 881.65 628.394 882.05C628.764 882.44 629.269 882.635 629.909 882.635C630.549 882.635 631.054 882.44 631.424 882.05C631.804 881.65 631.994 881.08 631.994 880.34V875.735H633.704ZM637.67 876.935C637.92 876.515 638.25 876.19 638.66 875.96C639.08 875.72 639.575 875.6 640.145 875.6V877.37H639.71C639.04 877.37 638.53 877.54 638.18 877.88C637.84 878.22 637.67 878.81 637.67 879.65V884H635.96V875.735H637.67V876.935ZM642.587 874.64C642.277 874.64 642.017 874.535 641.807 874.325C641.597 874.115 641.492 873.855 641.492 873.545C641.492 873.235 641.597 872.975 641.807 872.765C642.017 872.555 642.277 872.45 642.587 872.45C642.887 872.45 643.142 872.555 643.352 872.765C643.562 872.975 643.667 873.235 643.667 873.545C643.667 873.855 643.562 874.115 643.352 874.325C643.142 874.535 642.887 874.64 642.587 874.64ZM643.427 875.735V884H641.717V875.735H643.427ZM647.667 877.13V881.705C647.667 882.015 647.737 882.24 647.877 882.38C648.027 882.51 648.277 882.575 648.627 882.575H649.677V884H648.327C647.557 884 646.967 883.82 646.557 883.46C646.147 883.1 645.942 882.515 645.942 881.705V877.13H644.967V875.735H645.942V873.68H647.667V875.735H649.677V877.13H647.667ZM658.828 879.665C658.828 879.975 658.808 880.255 658.768 880.505H652.453C652.503 881.165 652.748 881.695 653.188 882.095C653.628 882.495 654.168 882.695 654.808 882.695C655.728 882.695 656.378 882.31 656.758 881.54H658.603C658.353 882.3 657.898 882.925 657.238 883.415C656.588 883.895 655.778 884.135 654.808 884.135C654.018 884.135 653.308 883.96 652.678 883.61C652.058 883.25 651.568 882.75 651.208 882.11C650.858 881.46 650.683 880.71 650.683 879.86C650.683 879.01 650.853 878.265 651.193 877.625C651.543 876.975 652.028 876.475 652.648 876.125C653.278 875.775 653.998 875.6 654.808 875.6C655.588 875.6 656.283 875.77 656.893 876.11C657.503 876.45 657.978 876.93 658.318 877.55C658.658 878.16 658.828 878.865 658.828 879.665ZM657.043 879.125C657.033 878.495 656.808 877.99 656.368 877.61C655.928 877.23 655.383 877.04 654.733 877.04C654.143 877.04 653.638 877.23 653.218 877.61C652.798 877.98 652.548 878.485 652.468 879.125H657.043Z" fill="url(#paint14_linear_244_731)"/>
<path d="M593.53 1040.57C594.64 1040.57 595.61 1040.79 596.44 1041.22C597.28 1041.64 597.925 1042.25 598.375 1043.05C598.835 1043.84 599.065 1044.76 599.065 1045.82C599.065 1046.89 598.835 1047.8 598.375 1048.58C597.925 1049.36 597.28 1049.96 596.44 1050.39C595.61 1050.8 594.64 1051 593.53 1051H590.125V1040.57H593.53ZM593.53 1049.6C594.75 1049.6 595.685 1049.28 596.335 1048.61C596.985 1047.95 597.31 1047.02 597.31 1045.82C597.31 1044.61 596.985 1043.67 596.335 1042.99C595.685 1042.31 594.75 1041.97 593.53 1041.97H591.835V1049.6H593.53ZM600.19 1046.83C600.19 1046 600.36 1045.27 600.7 1044.62C601.05 1043.98 601.52 1043.49 602.11 1043.14C602.71 1042.78 603.37 1042.6 604.09 1042.6C604.74 1042.6 605.305 1042.73 605.785 1042.99C606.275 1043.24 606.665 1043.56 606.955 1043.94V1042.73H608.68V1051H606.955V1049.77C606.665 1050.16 606.27 1050.48 605.77 1050.74C605.27 1051.01 604.7 1051.14 604.06 1051.14C603.35 1051.14 602.7 1050.95 602.11 1050.59C601.52 1050.22 601.05 1049.71 600.7 1049.06C600.36 1048.4 600.19 1047.66 600.19 1046.83ZM606.955 1046.86C606.955 1046.29 606.835 1045.8 606.595 1045.38C606.365 1044.95 606.06 1044.64 605.68 1044.42C605.3 1044.2 604.89 1044.08 604.45 1044.08C604.01 1044.08 603.6 1044.2 603.22 1044.42C602.84 1044.62 602.53 1044.94 602.29 1045.36C602.06 1045.77 601.945 1046.26 601.945 1046.83C601.945 1047.4 602.06 1047.9 602.29 1048.33C602.53 1048.76 602.84 1049.09 603.22 1049.32C603.61 1049.54 604.02 1049.65 604.45 1049.65C604.89 1049.65 605.3 1049.54 605.68 1049.32C606.06 1049.1 606.365 1048.78 606.595 1048.36C606.835 1047.93 606.955 1047.43 606.955 1046.86ZM612.636 1043.94C612.886 1043.52 613.216 1043.19 613.626 1042.96C614.046 1042.72 614.541 1042.6 615.111 1042.6V1044.37H614.676C614.006 1044.37 613.496 1044.54 613.146 1044.88C612.806 1045.22 612.636 1045.81 612.636 1046.65V1051H610.926V1042.73H612.636V1043.94ZM619.953 1046.88L623.763 1051H621.453L618.393 1047.44V1051H616.683V1039.9H618.393V1046.35L621.393 1042.73H623.763L619.953 1046.88ZM634.993 1042.6C635.643 1042.6 636.223 1042.73 636.733 1043.01C637.253 1043.28 637.658 1043.67 637.948 1044.2C638.248 1044.73 638.398 1045.38 638.398 1046.12V1051H636.703V1046.38C636.703 1045.64 636.518 1045.08 636.148 1044.69C635.778 1044.29 635.273 1044.08 634.633 1044.08C633.993 1044.08 633.483 1044.29 633.103 1044.69C632.733 1045.08 632.548 1045.64 632.548 1046.38V1051H630.853V1046.38C630.853 1045.64 630.668 1045.08 630.298 1044.69C629.928 1044.29 629.423 1044.08 628.783 1044.08C628.143 1044.08 627.633 1044.29 627.253 1044.69C626.883 1045.08 626.698 1045.64 626.698 1046.38V1051H624.988V1042.73H626.698V1043.68C626.978 1043.34 627.333 1043.07 627.763 1042.89C628.193 1042.7 628.653 1042.6 629.143 1042.6C629.803 1042.6 630.393 1042.74 630.913 1043.02C631.433 1043.3 631.833 1043.7 632.113 1044.23C632.363 1043.73 632.753 1043.34 633.283 1043.05C633.813 1042.75 634.383 1042.6 634.993 1042.6ZM644.159 1051.14C643.379 1051.14 642.674 1050.96 642.044 1050.61C641.414 1050.25 640.919 1049.75 640.559 1049.11C640.199 1048.46 640.019 1047.71 640.019 1046.86C640.019 1046.02 640.204 1045.28 640.574 1044.62C640.944 1043.97 641.449 1043.47 642.089 1043.12C642.729 1042.78 643.444 1042.6 644.234 1042.6C645.024 1042.6 645.739 1042.78 646.379 1043.12C647.019 1043.47 647.524 1043.97 647.894 1044.62C648.264 1045.28 648.449 1046.02 648.449 1046.86C648.449 1047.7 648.259 1048.44 647.879 1049.09C647.499 1049.74 646.979 1050.25 646.319 1050.61C645.669 1050.96 644.949 1051.14 644.159 1051.14ZM644.159 1049.65C644.599 1049.65 645.009 1049.54 645.389 1049.33C645.779 1049.12 646.094 1048.81 646.334 1048.39C646.574 1047.97 646.694 1047.46 646.694 1046.86C646.694 1046.26 646.579 1045.76 646.349 1045.34C646.119 1044.92 645.814 1044.61 645.434 1044.4C645.054 1044.19 644.644 1044.08 644.204 1044.08C643.764 1044.08 643.354 1044.19 642.974 1044.4C642.604 1044.61 642.309 1044.92 642.089 1045.34C641.869 1045.76 641.759 1046.26 641.759 1046.86C641.759 1047.75 641.984 1048.44 642.434 1048.93C642.894 1049.41 643.469 1049.65 644.159 1049.65ZM649.57 1046.83C649.57 1046 649.74 1045.27 650.08 1044.62C650.43 1043.98 650.9 1043.49 651.49 1043.14C652.09 1042.78 652.755 1042.6 653.485 1042.6C654.025 1042.6 654.555 1042.72 655.075 1042.96C655.605 1043.19 656.025 1043.5 656.335 1043.89V1039.9H658.06V1051H656.335V1049.76C656.055 1050.16 655.665 1050.48 655.165 1050.74C654.675 1051.01 654.11 1051.14 653.47 1051.14C652.75 1051.14 652.09 1050.95 651.49 1050.59C650.9 1050.22 650.43 1049.71 650.08 1049.06C649.74 1048.4 649.57 1047.66 649.57 1046.83ZM656.335 1046.86C656.335 1046.29 656.215 1045.8 655.975 1045.38C655.745 1044.95 655.44 1044.64 655.06 1044.42C654.68 1044.2 654.27 1044.08 653.83 1044.08C653.39 1044.08 652.98 1044.2 652.6 1044.42C652.22 1044.62 651.91 1044.94 651.67 1045.36C651.44 1045.77 651.325 1046.26 651.325 1046.83C651.325 1047.4 651.44 1047.9 651.67 1048.33C651.91 1048.76 652.22 1049.09 652.6 1049.32C652.99 1049.54 653.4 1049.65 653.83 1049.65C654.27 1049.65 654.68 1049.54 655.06 1049.32C655.44 1049.1 655.745 1048.78 655.975 1048.36C656.215 1047.93 656.335 1047.43 656.335 1046.86ZM667.881 1046.67C667.881 1046.98 667.861 1047.26 667.821 1047.51H661.506C661.556 1048.17 661.801 1048.69 662.241 1049.09C662.681 1049.49 663.221 1049.69 663.861 1049.69C664.781 1049.69 665.431 1049.31 665.811 1048.54H667.656C667.406 1049.3 666.951 1049.93 666.291 1050.42C665.641 1050.9 664.831 1051.14 663.861 1051.14C663.071 1051.14 662.361 1050.96 661.731 1050.61C661.111 1050.25 660.621 1049.75 660.261 1049.11C659.911 1048.46 659.736 1047.71 659.736 1046.86C659.736 1046.01 659.906 1045.27 660.246 1044.62C660.596 1043.97 661.081 1043.47 661.701 1043.12C662.331 1042.78 663.051 1042.6 663.861 1042.6C664.641 1042.6 665.336 1042.77 665.946 1043.11C666.556 1043.45 667.031 1043.93 667.371 1044.55C667.711 1045.16 667.881 1045.86 667.881 1046.67ZM666.096 1046.12C666.086 1045.49 665.861 1044.99 665.421 1044.61C664.981 1044.23 664.436 1044.04 663.786 1044.04C663.196 1044.04 662.691 1044.23 662.271 1044.61C661.851 1044.98 661.601 1045.48 661.521 1046.12H666.096Z" fill="url(#paint15_linear_244_731)"/>
<path d="M562.86 797.575V798.97H560.085V808H558.375V798.97H555.585V797.575H562.86ZM568.177 808.135C567.397 808.135 566.692 807.96 566.062 807.61C565.432 807.25 564.937 806.75 564.577 806.11C564.217 805.46 564.037 804.71 564.037 803.86C564.037 803.02 564.222 802.275 564.592 801.625C564.962 800.975 565.467 800.475 566.107 800.125C566.747 799.775 567.462 799.6 568.252 799.6C569.042 799.6 569.757 799.775 570.397 800.125C571.037 800.475 571.542 800.975 571.912 801.625C572.282 802.275 572.467 803.02 572.467 803.86C572.467 804.7 572.277 805.445 571.897 806.095C571.517 806.745 570.997 807.25 570.337 807.61C569.687 807.96 568.967 808.135 568.177 808.135ZM568.177 806.65C568.617 806.65 569.027 806.545 569.407 806.335C569.797 806.125 570.112 805.81 570.352 805.39C570.592 804.97 570.712 804.46 570.712 803.86C570.712 803.26 570.597 802.755 570.367 802.345C570.137 801.925 569.832 801.61 569.452 801.4C569.072 801.19 568.662 801.085 568.222 801.085C567.782 801.085 567.372 801.19 566.992 801.4C566.622 801.61 566.327 801.925 566.107 802.345C565.887 802.755 565.777 803.26 565.777 803.86C565.777 804.75 566.002 805.44 566.452 805.93C566.912 806.41 567.487 806.65 568.177 806.65ZM573.587 803.83C573.587 803 573.757 802.265 574.097 801.625C574.447 800.985 574.917 800.49 575.507 800.14C576.107 799.78 576.772 799.6 577.502 799.6C578.042 799.6 578.572 799.72 579.092 799.96C579.622 800.19 580.042 800.5 580.352 800.89V796.9H582.077V808H580.352V806.755C580.072 807.155 579.682 807.485 579.182 807.745C578.692 808.005 578.127 808.135 577.487 808.135C576.767 808.135 576.107 807.955 575.507 807.595C574.917 807.225 574.447 806.715 574.097 806.065C573.757 805.405 573.587 804.66 573.587 803.83ZM580.352 803.86C580.352 803.29 580.232 802.795 579.992 802.375C579.762 801.955 579.457 801.635 579.077 801.415C578.697 801.195 578.287 801.085 577.847 801.085C577.407 801.085 576.997 801.195 576.617 801.415C576.237 801.625 575.927 801.94 575.687 802.36C575.457 802.77 575.342 803.26 575.342 803.83C575.342 804.4 575.457 804.9 575.687 805.33C575.927 805.76 576.237 806.09 576.617 806.32C577.007 806.54 577.417 806.65 577.847 806.65C578.287 806.65 578.697 806.54 579.077 806.32C579.457 806.1 579.762 805.78 579.992 805.36C580.232 804.93 580.352 804.43 580.352 803.86ZM583.753 803.83C583.753 803 583.923 802.265 584.263 801.625C584.613 800.985 585.083 800.49 585.673 800.14C586.273 799.78 586.933 799.6 587.653 799.6C588.303 799.6 588.868 799.73 589.348 799.99C589.838 800.24 590.228 800.555 590.518 800.935V799.735H592.243V808H590.518V806.77C590.228 807.16 589.833 807.485 589.333 807.745C588.833 808.005 588.263 808.135 587.623 808.135C586.913 808.135 586.263 807.955 585.673 807.595C585.083 807.225 584.613 806.715 584.263 806.065C583.923 805.405 583.753 804.66 583.753 803.83ZM590.518 803.86C590.518 803.29 590.398 802.795 590.158 802.375C589.928 801.955 589.623 801.635 589.243 801.415C588.863 801.195 588.453 801.085 588.013 801.085C587.573 801.085 587.163 801.195 586.783 801.415C586.403 801.625 586.093 801.94 585.853 802.36C585.623 802.77 585.508 803.26 585.508 803.83C585.508 804.4 585.623 804.9 585.853 805.33C586.093 805.76 586.403 806.09 586.783 806.32C587.173 806.54 587.583 806.65 588.013 806.65C588.453 806.65 588.863 806.54 589.243 806.32C589.623 806.1 589.928 805.78 590.158 805.36C590.398 804.93 590.518 804.43 590.518 803.86ZM601.929 799.735L596.859 811.885H595.089L596.769 807.865L593.514 799.735H595.419L597.744 806.035L600.159 799.735H601.929Z" fill="url(#paint16_linear_244_731)"/>
<path d="M594.88 1088.1C593.91 1088.1 593.015 1087.88 592.195 1087.43C591.385 1086.97 590.74 1086.34 590.26 1085.53C589.79 1084.71 589.555 1083.79 589.555 1082.77C589.555 1081.74 589.79 1080.83 590.26 1080.02C590.74 1079.21 591.385 1078.58 592.195 1078.13C593.015 1077.67 593.91 1077.44 594.88 1077.44C595.86 1077.44 596.755 1077.67 597.565 1078.13C598.385 1078.58 599.03 1079.21 599.5 1080.02C599.97 1080.83 600.205 1081.74 600.205 1082.77C600.205 1083.79 599.97 1084.71 599.5 1085.53C599.03 1086.34 598.385 1086.97 597.565 1087.43C596.755 1087.88 595.86 1088.1 594.88 1088.1ZM594.88 1086.62C595.57 1086.62 596.185 1086.47 596.725 1086.16C597.265 1085.84 597.685 1085.39 597.985 1084.81C598.295 1084.22 598.45 1083.54 598.45 1082.77C598.45 1081.99 598.295 1081.32 597.985 1080.74C597.685 1080.16 597.265 1079.72 596.725 1079.41C596.185 1079.09 595.57 1078.94 594.88 1078.94C594.19 1078.94 593.575 1079.09 593.035 1079.41C592.495 1079.72 592.07 1080.16 591.76 1080.74C591.46 1081.32 591.31 1081.99 591.31 1082.77C591.31 1083.54 591.46 1084.22 591.76 1084.81C592.07 1085.39 592.495 1085.84 593.035 1086.16C593.575 1086.47 594.19 1086.62 594.88 1086.62ZM606.058 1079.6C606.708 1079.6 607.288 1079.73 607.798 1080.01C608.318 1080.28 608.723 1080.67 609.013 1081.2C609.303 1081.73 609.448 1082.38 609.448 1083.12V1088H607.753V1083.38C607.753 1082.64 607.568 1082.08 607.198 1081.69C606.828 1081.29 606.323 1081.08 605.683 1081.08C605.043 1081.08 604.533 1081.29 604.153 1081.69C603.783 1082.08 603.598 1082.64 603.598 1083.38V1088H601.888V1079.73H603.598V1080.68C603.878 1080.34 604.233 1080.07 604.663 1079.89C605.103 1079.7 605.568 1079.6 606.058 1079.6ZM613.339 1076.9V1088H611.629V1076.9H613.339ZM623.024 1079.73L617.954 1091.89H616.184L617.864 1087.86L614.609 1079.73H616.514L618.839 1086.04L621.254 1079.73H623.024ZM631.616 1077.57C632.726 1077.57 633.696 1077.79 634.526 1078.22C635.366 1078.64 636.011 1079.25 636.461 1080.05C636.921 1080.84 637.151 1081.76 637.151 1082.82C637.151 1083.89 636.921 1084.8 636.461 1085.58C636.011 1086.36 635.366 1086.96 634.526 1087.39C633.696 1087.8 632.726 1088 631.616 1088H628.211V1077.57H631.616ZM631.616 1086.6C632.836 1086.6 633.771 1086.28 634.421 1085.61C635.071 1084.95 635.396 1084.02 635.396 1082.82C635.396 1081.61 635.071 1080.67 634.421 1079.99C633.771 1079.31 632.836 1078.97 631.616 1078.97H629.921V1086.6H631.616ZM642.431 1088.14C641.651 1088.14 640.946 1087.96 640.316 1087.61C639.686 1087.25 639.191 1086.75 638.831 1086.11C638.471 1085.46 638.291 1084.71 638.291 1083.86C638.291 1083.02 638.476 1082.28 638.846 1081.62C639.216 1080.97 639.721 1080.47 640.361 1080.12C641.001 1079.78 641.716 1079.6 642.506 1079.6C643.296 1079.6 644.011 1079.78 644.651 1080.12C645.291 1080.47 645.796 1080.97 646.166 1081.62C646.536 1082.28 646.721 1083.02 646.721 1083.86C646.721 1084.7 646.531 1085.44 646.151 1086.09C645.771 1086.74 645.251 1087.25 644.591 1087.61C643.941 1087.96 643.221 1088.14 642.431 1088.14ZM642.431 1086.65C642.871 1086.65 643.281 1086.54 643.661 1086.33C644.051 1086.12 644.366 1085.81 644.606 1085.39C644.846 1084.97 644.966 1084.46 644.966 1083.86C644.966 1083.26 644.851 1082.76 644.621 1082.34C644.391 1081.92 644.086 1081.61 643.706 1081.4C643.326 1081.19 642.916 1081.08 642.476 1081.08C642.036 1081.08 641.626 1081.19 641.246 1081.4C640.876 1081.61 640.581 1081.92 640.361 1082.34C640.141 1082.76 640.031 1083.26 640.031 1083.86C640.031 1084.75 640.256 1085.44 640.706 1085.93C641.166 1086.41 641.741 1086.65 642.431 1086.65ZM659.511 1079.73L656.946 1088H655.146L653.481 1081.9L651.816 1088H650.016L647.436 1079.73H649.176L650.901 1086.38L652.656 1079.73H654.441L656.121 1086.35L657.831 1079.73H659.511ZM664.959 1079.6C665.609 1079.6 666.189 1079.73 666.699 1080.01C667.219 1080.28 667.624 1080.67 667.914 1081.2C668.204 1081.73 668.349 1082.38 668.349 1083.12V1088H666.654V1083.38C666.654 1082.64 666.469 1082.08 666.099 1081.69C665.729 1081.29 665.224 1081.08 664.584 1081.08C663.944 1081.08 663.434 1081.29 663.054 1081.69C662.684 1082.08 662.499 1082.64 662.499 1083.38V1088H660.789V1079.73H662.499V1080.68C662.779 1080.34 663.134 1080.07 663.564 1079.89C664.004 1079.7 664.469 1079.6 664.959 1079.6ZM672.24 1076.9V1088H670.53V1076.9H672.24ZM678.07 1088.14C677.29 1088.14 676.585 1087.96 675.955 1087.61C675.325 1087.25 674.83 1086.75 674.47 1086.11C674.11 1085.46 673.93 1084.71 673.93 1083.86C673.93 1083.02 674.115 1082.28 674.485 1081.62C674.855 1080.97 675.36 1080.47 676 1080.12C676.64 1079.78 677.355 1079.6 678.145 1079.6C678.935 1079.6 679.65 1079.78 680.29 1080.12C680.93 1080.47 681.435 1080.97 681.805 1081.62C682.175 1082.28 682.36 1083.02 682.36 1083.86C682.36 1084.7 682.17 1085.44 681.79 1086.09C681.41 1086.74 680.89 1087.25 680.23 1087.61C679.58 1087.96 678.86 1088.14 678.07 1088.14ZM678.07 1086.65C678.51 1086.65 678.92 1086.54 679.3 1086.33C679.69 1086.12 680.005 1085.81 680.245 1085.39C680.485 1084.97 680.605 1084.46 680.605 1083.86C680.605 1083.26 680.49 1082.76 680.26 1082.34C680.03 1081.92 679.725 1081.61 679.345 1081.4C678.965 1081.19 678.555 1081.08 678.115 1081.08C677.675 1081.08 677.265 1081.19 676.885 1081.4C676.515 1081.61 676.22 1081.92 676 1082.34C675.78 1082.76 675.67 1083.26 675.67 1083.86C675.67 1084.75 675.895 1085.44 676.345 1085.93C676.805 1086.41 677.38 1086.65 678.07 1086.65ZM683.481 1083.83C683.481 1083 683.651 1082.27 683.991 1081.62C684.341 1080.98 684.811 1080.49 685.401 1080.14C686.001 1079.78 686.661 1079.6 687.381 1079.6C688.031 1079.6 688.596 1079.73 689.076 1079.99C689.566 1080.24 689.956 1080.56 690.246 1080.94V1079.73H691.971V1088H690.246V1086.77C689.956 1087.16 689.561 1087.48 689.061 1087.74C688.561 1088.01 687.991 1088.14 687.351 1088.14C686.641 1088.14 685.991 1087.95 685.401 1087.59C684.811 1087.22 684.341 1086.71 683.991 1086.06C683.651 1085.4 683.481 1084.66 683.481 1083.83ZM690.246 1083.86C690.246 1083.29 690.126 1082.8 689.886 1082.38C689.656 1081.95 689.351 1081.64 688.971 1081.42C688.591 1081.2 688.181 1081.08 687.741 1081.08C687.301 1081.08 686.891 1081.2 686.511 1081.42C686.131 1081.62 685.821 1081.94 685.581 1082.36C685.351 1082.77 685.236 1083.26 685.236 1083.83C685.236 1084.4 685.351 1084.9 685.581 1085.33C685.821 1085.76 686.131 1086.09 686.511 1086.32C686.901 1086.54 687.311 1086.65 687.741 1086.65C688.181 1086.65 688.591 1086.54 688.971 1086.32C689.351 1086.1 689.656 1085.78 689.886 1085.36C690.126 1084.93 690.246 1084.43 690.246 1083.86ZM693.647 1083.83C693.647 1083 693.817 1082.27 694.157 1081.62C694.507 1080.98 694.977 1080.49 695.567 1080.14C696.167 1079.78 696.832 1079.6 697.562 1079.6C698.102 1079.6 698.632 1079.72 699.152 1079.96C699.682 1080.19 700.102 1080.5 700.412 1080.89V1076.9H702.137V1088H700.412V1086.76C700.132 1087.16 699.742 1087.48 699.242 1087.74C698.752 1088.01 698.187 1088.14 697.547 1088.14C696.827 1088.14 696.167 1087.95 695.567 1087.59C694.977 1087.22 694.507 1086.71 694.157 1086.06C693.817 1085.4 693.647 1084.66 693.647 1083.83ZM700.412 1083.86C700.412 1083.29 700.292 1082.8 700.052 1082.38C699.822 1081.95 699.517 1081.64 699.137 1081.42C698.757 1081.2 698.347 1081.08 697.907 1081.08C697.467 1081.08 697.057 1081.2 696.677 1081.42C696.297 1081.62 695.987 1081.94 695.747 1082.36C695.517 1082.77 695.402 1083.26 695.402 1083.83C695.402 1084.4 695.517 1084.9 695.747 1085.33C695.987 1085.76 696.297 1086.09 696.677 1086.32C697.067 1086.54 697.477 1086.65 697.907 1086.65C698.347 1086.65 698.757 1086.54 699.137 1086.32C699.517 1086.1 699.822 1085.78 700.052 1085.36C700.292 1084.93 700.412 1084.43 700.412 1083.86ZM711.474 1086.47L713.814 1079.73H715.629L712.479 1088H710.439L707.304 1079.73H709.134L711.474 1086.47ZM717.792 1078.64C717.482 1078.64 717.222 1078.53 717.012 1078.32C716.802 1078.11 716.697 1077.86 716.697 1077.55C716.697 1077.23 716.802 1076.97 717.012 1076.77C717.222 1076.56 717.482 1076.45 717.792 1076.45C718.092 1076.45 718.347 1076.56 718.557 1076.77C718.767 1076.97 718.872 1077.23 718.872 1077.55C718.872 1077.86 718.767 1078.11 718.557 1078.32C718.347 1078.53 718.092 1078.64 717.792 1078.64ZM718.632 1079.73V1088H716.922V1079.73H718.632ZM720.307 1083.83C720.307 1083 720.477 1082.27 720.817 1081.62C721.167 1080.98 721.637 1080.49 722.227 1080.14C722.827 1079.78 723.487 1079.6 724.207 1079.6C724.857 1079.6 725.422 1079.73 725.902 1079.99C726.392 1080.24 726.782 1080.56 727.072 1080.94V1079.73H728.797V1088H727.072V1086.77C726.782 1087.16 726.387 1087.48 725.887 1087.74C725.387 1088.01 724.817 1088.14 724.177 1088.14C723.467 1088.14 722.817 1087.95 722.227 1087.59C721.637 1087.22 721.167 1086.71 720.817 1086.06C720.477 1085.4 720.307 1084.66 720.307 1083.83ZM727.072 1083.86C727.072 1083.29 726.952 1082.8 726.712 1082.38C726.482 1081.95 726.177 1081.64 725.797 1081.42C725.417 1081.2 725.007 1081.08 724.567 1081.08C724.127 1081.08 723.717 1081.2 723.337 1081.42C722.957 1081.62 722.647 1081.94 722.407 1082.36C722.177 1082.77 722.062 1083.26 722.062 1083.83C722.062 1084.4 722.177 1084.9 722.407 1085.33C722.647 1085.76 722.957 1086.09 723.337 1086.32C723.727 1086.54 724.137 1086.65 724.567 1086.65C725.007 1086.65 725.417 1086.54 725.797 1086.32C726.177 1086.1 726.482 1085.78 726.712 1085.36C726.952 1084.93 727.072 1084.43 727.072 1083.86ZM748.514 1077.57L745.424 1088H743.489L741.299 1080.11L738.974 1088L737.054 1088.02L734.099 1077.57H735.914L738.074 1086.06L740.414 1077.57H742.334L744.509 1086.02L746.684 1077.57H748.514ZM750.795 1078.64C750.485 1078.64 750.225 1078.53 750.015 1078.32C749.805 1078.11 749.7 1077.86 749.7 1077.55C749.7 1077.23 749.805 1076.97 750.015 1076.77C750.225 1076.56 750.485 1076.45 750.795 1076.45C751.095 1076.45 751.35 1076.56 751.56 1076.77C751.77 1076.97 751.875 1077.23 751.875 1077.55C751.875 1077.86 751.77 1078.11 751.56 1078.32C751.35 1078.53 751.095 1078.64 750.795 1078.64ZM751.635 1079.73V1088H749.925V1079.73H751.635ZM757.345 1081.13H755.815V1088H754.09V1081.13H753.115V1079.73H754.09V1079.15C754.09 1078.2 754.34 1077.51 754.84 1077.08C755.35 1076.64 756.145 1076.42 757.225 1076.42V1077.84C756.705 1077.84 756.34 1077.95 756.13 1078.15C755.92 1078.33 755.815 1078.67 755.815 1079.15V1079.73H757.345V1081.13ZM759.73 1078.64C759.42 1078.64 759.16 1078.53 758.95 1078.32C758.74 1078.11 758.635 1077.86 758.635 1077.55C758.635 1077.23 758.74 1076.97 758.95 1076.77C759.16 1076.56 759.42 1076.45 759.73 1076.45C760.03 1076.45 760.285 1076.56 760.495 1076.77C760.705 1076.97 760.81 1077.23 760.81 1077.55C760.81 1077.86 760.705 1078.11 760.495 1078.32C760.285 1078.53 760.03 1078.64 759.73 1078.64ZM760.57 1079.73V1088H758.86V1079.73H760.57Z" fill="url(#paint17_linear_244_731)"/>
<path d="M889 740H903V754H889V740Z" fill="url(#paint18_linear_244_731)"/>
<path d="M893.11 752.246C893.241 752.246 893.374 752.202 893.484 752.115L899.278 747.454C899.419 747.34 899.501 747.169 899.501 746.988C899.501 746.807 899.419 746.635 899.278 746.523L893.509 741.887C893.252 741.68 892.876 741.721 892.669 741.978C892.463 742.235 892.504 742.611 892.761 742.818L897.951 746.989L892.735 751.184C892.478 751.39 892.437 751.766 892.643 752.023C892.762 752.169 892.935 752.246 893.11 752.246Z" fill="url(#paint19_linear_244_731)"/>
<path d="M889 998H903V1012H889V998Z" fill="url(#paint20_linear_244_731)"/>
<path d="M893.11 1010.25C893.241 1010.25 893.374 1010.2 893.484 1010.11L899.278 1005.45C899.419 1005.34 899.501 1005.17 899.501 1004.99C899.501 1004.81 899.419 1004.63 899.278 1004.52L893.509 999.887C893.252 999.68 892.876 999.721 892.669 999.978C892.463 1000.24 892.504 1000.61 892.761 1000.82L897.951 1004.99L892.735 1009.18C892.478 1009.39 892.437 1009.77 892.643 1010.02C892.762 1010.17 892.935 1010.25 893.11 1010.25Z" fill="url(#paint21_linear_244_731)"/>
<path d="M889 871H903V885H889V871Z" fill="url(#paint22_linear_244_731)"/>
<path d="M893.11 883.246C893.241 883.246 893.374 883.202 893.484 883.115L899.278 878.454C899.419 878.34 899.501 878.169 899.501 877.988C899.501 877.807 899.419 877.635 899.278 877.523L893.509 872.887C893.252 872.68 892.876 872.721 892.669 872.978C892.463 873.235 892.504 873.611 892.761 873.818L897.951 877.989L892.735 882.184C892.478 882.39 892.437 882.766 892.643 883.023C892.762 883.169 892.935 883.246 893.11 883.246Z" fill="url(#paint23_linear_244_731)"/>
<path d="M889 767H903V781H889V767Z" fill="url(#paint24_linear_244_731)"/>
<path d="M893.11 779.246C893.241 779.246 893.374 779.202 893.484 779.115L899.278 774.454C899.419 774.34 899.501 774.169 899.501 773.988C899.501 773.807 899.419 773.635 899.278 773.523L893.509 768.887C893.252 768.68 892.876 768.721 892.669 768.978C892.463 769.235 892.504 769.611 892.761 769.818L897.951 773.989L892.735 778.184C892.478 778.39 892.437 778.766 892.643 779.023C892.762 779.169 892.935 779.246 893.11 779.246Z" fill="url(#paint25_linear_244_731)"/>
<path d="M889 1039H903V1053H889V1039Z" fill="url(#paint26_linear_244_731)"/>
<path d="M893.11 1051.25C893.241 1051.25 893.374 1051.2 893.484 1051.11L899.278 1046.45C899.419 1046.34 899.501 1046.17 899.501 1045.99C899.501 1045.81 899.419 1045.63 899.278 1045.52L893.509 1040.89C893.252 1040.68 892.876 1040.72 892.669 1040.98C892.463 1041.24 892.504 1041.61 892.761 1041.82L897.951 1045.99L892.735 1050.18C892.478 1050.39 892.437 1050.77 892.643 1051.02C892.762 1051.17 892.935 1051.25 893.11 1051.25Z" fill="url(#paint27_linear_244_731)"/>
<path d="M889 905H903V919H889V905Z" fill="url(#paint28_linear_244_731)"/>
<path d="M893.11 917.246C893.241 917.246 893.374 917.202 893.484 917.115L899.278 912.454C899.419 912.34 899.501 912.169 899.501 911.988C899.501 911.807 899.419 911.635 899.278 911.523L893.509 906.887C893.252 906.68 892.876 906.721 892.669 906.978C892.463 907.235 892.504 907.611 892.761 907.818L897.951 911.989L892.735 916.184C892.478 916.39 892.437 916.766 892.643 917.023C892.762 917.169 892.935 917.246 893.11 917.246Z" fill="url(#paint29_linear_244_731)"/>
<path d="M889 795H903V809H889V795Z" fill="url(#paint30_linear_244_731)"/>
<path d="M893.11 807.246C893.241 807.246 893.374 807.202 893.484 807.115L899.278 802.454C899.419 802.34 899.501 802.169 899.501 801.988C899.501 801.807 899.419 801.635 899.278 801.523L893.509 796.887C893.252 796.68 892.876 796.721 892.669 796.978C892.463 797.235 892.504 797.611 892.761 797.818L897.951 801.989L892.735 806.184C892.478 806.39 892.437 806.766 892.643 807.023C892.762 807.169 892.935 807.246 893.11 807.246Z" fill="url(#paint31_linear_244_731)"/>
<path d="M888 1076H902V1090H888V1076Z" fill="url(#paint32_linear_244_731)"/>
<path d="M892.11 1088.25C892.241 1088.25 892.374 1088.2 892.484 1088.11L898.278 1083.45C898.419 1083.34 898.501 1083.17 898.501 1082.99C898.501 1082.81 898.419 1082.63 898.278 1082.52L892.509 1077.89C892.252 1077.68 891.876 1077.72 891.669 1077.98C891.463 1078.24 891.504 1078.61 891.761 1078.82L896.951 1082.99L891.735 1087.18C891.478 1087.39 891.437 1087.77 891.643 1088.02C891.762 1088.17 891.935 1088.25 892.11 1088.25Z" fill="url(#paint33_linear_244_731)"/>
<path d="M667 632C667 629.239 669.239 627 672 627H767C769.761 627 772 629.239 772 632V651C772 653.761 769.761 656 767 656H672C669.239 656 667 653.761 667 651V632Z" fill="url(#paint34_linear_244_731)"/>
<path d="M690.268 637.764V640.212H693.148V641.328H690.268V643.884H693.508V645H688.9V636.648H693.508V637.764H690.268ZM694.737 641.664C694.737 641 694.873 640.412 695.145 639.9C695.425 639.388 695.801 638.992 696.273 638.712C696.753 638.424 697.285 638.28 697.869 638.28C698.301 638.28 698.725 638.376 699.141 638.568C699.565 638.752 699.901 639 700.149 639.312V636.12H701.529V645H700.149V644.004C699.925 644.324 699.613 644.588 699.213 644.796C698.821 645.004 698.369 645.108 697.857 645.108C697.281 645.108 696.753 644.964 696.273 644.676C695.801 644.38 695.425 643.972 695.145 643.452C694.873 642.924 694.737 642.328 694.737 641.664ZM700.149 641.688C700.149 641.232 700.053 640.836 699.861 640.5C699.677 640.164 699.433 639.908 699.129 639.732C698.825 639.556 698.497 639.468 698.145 639.468C697.793 639.468 697.465 639.556 697.161 639.732C696.857 639.9 696.609 640.152 696.417 640.488C696.233 640.816 696.141 641.208 696.141 641.664C696.141 642.12 696.233 642.52 696.417 642.864C696.609 643.208 696.857 643.472 697.161 643.656C697.473 643.832 697.801 643.92 698.145 643.92C698.497 643.92 698.825 643.832 699.129 643.656C699.433 643.48 699.677 643.224 699.861 642.888C700.053 642.544 700.149 642.144 700.149 641.688ZM704.022 637.512C703.774 637.512 703.566 637.428 703.398 637.26C703.23 637.092 703.146 636.884 703.146 636.636C703.146 636.388 703.23 636.18 703.398 636.012C703.566 635.844 703.774 635.76 704.022 635.76C704.262 635.76 704.466 635.844 704.634 636.012C704.802 636.18 704.886 636.388 704.886 636.636C704.886 636.884 704.802 637.092 704.634 637.26C704.466 637.428 704.262 637.512 704.022 637.512ZM704.694 638.388V645H703.326V638.388H704.694ZM708.086 639.504V643.164C708.086 643.412 708.142 643.592 708.254 643.704C708.374 643.808 708.574 643.86 708.854 643.86H709.694V645H708.614C707.998 645 707.526 644.856 707.198 644.568C706.87 644.28 706.706 643.812 706.706 643.164V639.504H705.926V638.388H706.706V636.744H708.086V638.388H709.694V639.504H708.086ZM719.904 639.144C719.904 639.568 719.804 639.968 719.604 640.344C719.404 640.72 719.084 641.028 718.644 641.268C718.204 641.5 717.64 641.616 716.952 641.616H715.44V645H714.072V636.66H716.952C717.592 636.66 718.132 636.772 718.572 636.996C719.02 637.212 719.352 637.508 719.568 637.884C719.792 638.26 719.904 638.68 719.904 639.144ZM716.952 640.5C717.472 640.5 717.86 640.384 718.116 640.152C718.372 639.912 718.5 639.576 718.5 639.144C718.5 638.232 717.984 637.776 716.952 637.776H715.44V640.5H716.952ZM722.577 639.348C722.777 639.012 723.041 638.752 723.369 638.568C723.705 638.376 724.101 638.28 724.557 638.28V639.696H724.209C723.673 639.696 723.265 639.832 722.985 640.104C722.713 640.376 722.577 640.848 722.577 641.52V645H721.209V638.388H722.577V639.348ZM728.682 645.108C728.058 645.108 727.494 644.968 726.99 644.688C726.486 644.4 726.09 644 725.802 643.488C725.514 642.968 725.37 642.368 725.37 641.688C725.37 641.016 725.518 640.42 725.814 639.9C726.11 639.38 726.514 638.98 727.026 638.7C727.538 638.42 728.11 638.28 728.742 638.28C729.374 638.28 729.946 638.42 730.458 638.7C730.97 638.98 731.374 639.38 731.67 639.9C731.966 640.42 732.114 641.016 732.114 641.688C732.114 642.36 731.962 642.956 731.658 643.476C731.354 643.996 730.938 644.4 730.41 644.688C729.89 644.968 729.314 645.108 728.682 645.108ZM728.682 643.92C729.034 643.92 729.362 643.836 729.666 643.668C729.978 643.5 730.23 643.248 730.422 642.912C730.614 642.576 730.71 642.168 730.71 641.688C730.71 641.208 730.618 640.804 730.434 640.476C730.25 640.14 730.006 639.888 729.702 639.72C729.398 639.552 729.07 639.468 728.718 639.468C728.366 639.468 728.038 639.552 727.734 639.72C727.438 639.888 727.202 640.14 727.026 640.476C726.85 640.804 726.762 641.208 726.762 641.688C726.762 642.4 726.942 642.952 727.302 643.344C727.67 643.728 728.13 643.92 728.682 643.92ZM736.238 639.504H735.014V645H733.634V639.504H732.854V638.388H733.634V637.92C733.634 637.16 733.834 636.608 734.234 636.264C734.642 635.912 735.278 635.736 736.142 635.736V636.876C735.726 636.876 735.434 636.956 735.266 637.116C735.098 637.268 735.014 637.536 735.014 637.92V638.388H736.238V639.504ZM738.147 637.512C737.899 637.512 737.691 637.428 737.523 637.26C737.355 637.092 737.271 636.884 737.271 636.636C737.271 636.388 737.355 636.18 737.523 636.012C737.691 635.844 737.899 635.76 738.147 635.76C738.387 635.76 738.591 635.844 738.759 636.012C738.927 636.18 739.011 636.388 739.011 636.636C739.011 636.884 738.927 637.092 738.759 637.26C738.591 637.428 738.387 637.512 738.147 637.512ZM738.819 638.388V645H737.451V638.388H738.819ZM741.983 636.12V645H740.615V636.12H741.983ZM749.839 641.532C749.839 641.78 749.823 642.004 749.791 642.204H744.739C744.779 642.732 744.975 643.156 745.327 643.476C745.679 643.796 746.111 643.956 746.623 643.956C747.359 643.956 747.879 643.648 748.183 643.032H749.659C749.459 643.64 749.095 644.14 748.567 644.532C748.047 644.916 747.399 645.108 746.623 645.108C745.991 645.108 745.423 644.968 744.919 644.688C744.423 644.4 744.031 644 743.743 643.488C743.463 642.968 743.323 642.368 743.323 641.688C743.323 641.008 743.459 640.412 743.731 639.9C744.011 639.38 744.399 638.98 744.895 638.7C745.399 638.42 745.975 638.28 746.623 638.28C747.247 638.28 747.803 638.416 748.291 638.688C748.779 638.96 749.159 639.344 749.431 639.84C749.703 640.328 749.839 640.892 749.839 641.532ZM748.411 641.1C748.403 640.596 748.223 640.192 747.871 639.888C747.519 639.584 747.083 639.432 746.563 639.432C746.091 639.432 745.687 639.584 745.351 639.888C745.015 640.184 744.815 640.588 744.751 641.1H748.411Z" fill="url(#paint35_linear_244_731)"/>
<path d="M708.67 461.77C708.67 462.33 708.535 462.855 708.265 463.345C708.005 463.835 707.59 464.23 707.02 464.53C706.46 464.83 705.75 464.98 704.89 464.98H703.135V469H701.035V458.53H704.89C705.7 458.53 706.39 458.67 706.96 458.95C707.53 459.23 707.955 459.615 708.235 460.105C708.525 460.595 708.67 461.15 708.67 461.77ZM704.8 463.285C705.38 463.285 705.81 463.155 706.09 462.895C706.37 462.625 706.51 462.25 706.51 461.77C706.51 460.75 705.94 460.24 704.8 460.24H703.135V463.285H704.8ZM712.261 461.98C712.531 461.54 712.881 461.195 713.311 460.945C713.751 460.695 714.251 460.57 714.811 460.57V462.775H714.256C713.596 462.775 713.096 462.93 712.756 463.24C712.426 463.55 712.261 464.09 712.261 464.86V469H710.161V460.69H712.261V461.98ZM719.915 469.135C719.115 469.135 718.395 468.96 717.755 468.61C717.115 468.25 716.61 467.745 716.24 467.095C715.88 466.445 715.7 465.695 715.7 464.845C715.7 463.995 715.885 463.245 716.255 462.595C716.635 461.945 717.15 461.445 717.8 461.095C718.45 460.735 719.175 460.555 719.975 460.555C720.775 460.555 721.5 460.735 722.15 461.095C722.8 461.445 723.31 461.945 723.68 462.595C724.06 463.245 724.25 463.995 724.25 464.845C724.25 465.695 724.055 466.445 723.665 467.095C723.285 467.745 722.765 468.25 722.105 468.61C721.455 468.96 720.725 469.135 719.915 469.135ZM719.915 467.305C720.295 467.305 720.65 467.215 720.98 467.035C721.32 466.845 721.59 466.565 721.79 466.195C721.99 465.825 722.09 465.375 722.09 464.845C722.09 464.055 721.88 463.45 721.46 463.03C721.05 462.6 720.545 462.385 719.945 462.385C719.345 462.385 718.84 462.6 718.43 463.03C718.03 463.45 717.83 464.055 717.83 464.845C717.83 465.635 718.025 466.245 718.415 466.675C718.815 467.095 719.315 467.305 719.915 467.305ZM729.601 462.415H728.146V469H726.016V462.415H725.071V460.69H726.016V460.27C726.016 459.25 726.306 458.5 726.886 458.02C727.466 457.54 728.341 457.315 729.511 457.345V459.115C729.001 459.105 728.646 459.19 728.446 459.37C728.246 459.55 728.146 459.875 728.146 460.345V460.69H729.601V462.415ZM732.027 459.7C731.657 459.7 731.347 459.585 731.097 459.355C730.857 459.115 730.737 458.82 730.737 458.47C730.737 458.12 730.857 457.83 731.097 457.6C731.347 457.36 731.657 457.24 732.027 457.24C732.397 457.24 732.702 457.36 732.942 457.6C733.192 457.83 733.317 458.12 733.317 458.47C733.317 458.82 733.192 459.115 732.942 459.355C732.702 459.585 732.397 459.7 732.027 459.7ZM733.062 460.69V469H730.962V460.69H733.062ZM737.237 457.9V469H735.137V457.9H737.237ZM747.036 464.665C747.036 464.965 747.016 465.235 746.976 465.475H740.901C740.951 466.075 741.161 466.545 741.531 466.885C741.901 467.225 742.356 467.395 742.896 467.395C743.676 467.395 744.231 467.06 744.561 466.39H746.826C746.586 467.19 746.126 467.85 745.446 468.37C744.766 468.88 743.931 469.135 742.941 469.135C742.141 469.135 741.421 468.96 740.781 468.61C740.151 468.25 739.656 467.745 739.296 467.095C738.946 466.445 738.771 465.695 738.771 464.845C738.771 463.985 738.946 463.23 739.296 462.58C739.646 461.93 740.136 461.43 740.766 461.08C741.396 460.73 742.121 460.555 742.941 460.555C743.731 460.555 744.436 460.725 745.056 461.065C745.686 461.405 746.171 461.89 746.511 462.52C746.861 463.14 747.036 463.855 747.036 464.665ZM744.861 464.065C744.851 463.525 744.656 463.095 744.276 462.775C743.896 462.445 743.431 462.28 742.881 462.28C742.361 462.28 741.921 462.44 741.561 462.76C741.211 463.07 740.996 463.505 740.916 464.065H744.861Z" fill="url(#paint36_linear_244_731)"/>
<defs>
<linearGradient id="paint0_linear_244_731" x1="708.93" y1="-246.5" x2="723.857" y2="1506.5" gradientUnits="userSpaceOnUse">
<stop stop-color="#FDFEFF" stop-opacity="0.55"/>
<stop offset="0.429846" stop-color="#CBE2FF" stop-opacity="0.618229"/>
<stop offset="1" stop-color="#FDAB01" stop-opacity="0.68"/>
</linearGradient>
<linearGradient id="paint1_linear_244_731" x1="708.93" y1="-246.5" x2="723.857" y2="1506.5" gradientUnits="userSpaceOnUse">
<stop stop-color="#FDFEFF" stop-opacity="0.55"/>
<stop offset="0.429846" stop-color="#CBE2FF" stop-opacity="0.618229"/>
<stop offset="1" stop-color="#FDAB01" stop-opacity="0.68"/>
</linearGradient>
<linearGradient id="paint2_linear_244_731" x1="708.93" y1="-246.5" x2="723.857" y2="1506.5" gradientUnits="userSpaceOnUse">
<stop stop-color="#FDFEFF" stop-opacity="0.55"/>
<stop offset="0.429846" stop-color="#CBE2FF" stop-opacity="0.618229"/>
<stop offset="1" stop-color="#FDAB01" stop-opacity="0.68"/>
</linearGradient>
<linearGradient id="paint3_linear_244_731" x1="708.93" y1="-246.5" x2="723.857" y2="1506.5" gradientUnits="userSpaceOnUse">
<stop stop-color="#FDFEFF" stop-opacity="0.55"/>
<stop offset="0.429846" stop-color="#CBE2FF" stop-opacity="0.618229"/>
<stop offset="1" stop-color="#FDAB01" stop-opacity="0.68"/>
</linearGradient>
<linearGradient id="paint4_linear_244_731" x1="708.93" y1="-246.5" x2="723.857" y2="1506.5" gradientUnits="userSpaceOnUse">
<stop stop-color="#FDFEFF" stop-opacity="0.55"/>
<stop offset="0.429846" stop-color="#CBE2FF" stop-opacity="0.618229"/>
<stop offset="1" stop-color="#FDAB01" stop-opacity="0.68"/>
</linearGradient>
<linearGradient id="paint5_linear_244_731" x1="708.93" y1="-246.5" x2="723.857" y2="1506.5" gradientUnits="userSpaceOnUse">
<stop stop-color="#FDFEFF" stop-opacity="0.55"/>
<stop offset="0.429846" stop-color="#CBE2FF" stop-opacity="0.618229"/>
<stop offset="1" stop-color="#FDAB01" stop-opacity="0.68"/>
</linearGradient>
<linearGradient id="paint6_linear_244_731" x1="708.93" y1="-246.5" x2="723.857" y2="1506.5" gradientUnits="userSpaceOnUse">
<stop stop-color="#FDFEFF" stop-opacity="0.55"/>
<stop offset="0.429846" stop-color="#CBE2FF" stop-opacity="0.618229"/>
<stop offset="1" stop-color="#FDAB01" stop-opacity="0.68"/>
</linearGradient>
<linearGradient id="paint7_linear_244_731" x1="708.93" y1="-246.5" x2="723.857" y2="1506.5" gradientUnits="userSpaceOnUse">
<stop stop-color="#FDFEFF" stop-opacity="0.55"/>
<stop offset="0.429846" stop-color="#CBE2FF" stop-opacity="0.618229"/>
<stop offset="1" stop-color="#FDAB01" stop-opacity="0.68"/>
</linearGradient>
<linearGradient id="paint8_linear_244_731" x1="708.93" y1="-246.5" x2="723.857" y2="1506.5" gradientUnits="userSpaceOnUse">
<stop stop-color="#FDFEFF" stop-opacity="0.55"/>
<stop offset="0.429846" stop-color="#CBE2FF" stop-opacity="0.618229"/>
<stop offset="1" stop-color="#FDAB01" stop-opacity="0.68"/>
</linearGradient>
<linearGradient id="paint9_linear_244_731" x1="708.93" y1="-246.5" x2="723.857" y2="1506.5" gradientUnits="userSpaceOnUse">
<stop stop-color="#FDFEFF" stop-opacity="0.55"/>
<stop offset="0.429846" stop-color="#CBE2FF" stop-opacity="0.618229"/>
<stop offset="1" stop-color="#FDAB01" stop-opacity="0.68"/>
</linearGradient>
<linearGradient id="paint10_linear_244_731" x1="708.93" y1="-246.5" x2="723.857" y2="1506.5" gradientUnits="userSpaceOnUse">
<stop stop-color="#FDFEFF" stop-opacity="0.55"/>
<stop offset="0.429846" stop-color="#CBE2FF" stop-opacity="0.618229"/>
<stop offset="1" stop-color="#FDAB01" stop-opacity="0.68"/>
</linearGradient>
<linearGradient id="paint11_linear_244_731" x1="708.93" y1="-246.5" x2="723.857" y2="1506.5" gradientUnits="userSpaceOnUse">
<stop stop-color="#FDFEFF" stop-opacity="0.55"/>
<stop offset="0.429846" stop-color="#CBE2FF" stop-opacity="0.618229"/>
<stop offset="1" stop-color="#FDAB01" stop-opacity="0.68"/>
</linearGradient>
<linearGradient id="paint12_linear_244_731" x1="708.93" y1="-246.5" x2="723.857" y2="1506.5" gradientUnits="userSpaceOnUse">
<stop stop-color="#FDFEFF" stop-opacity="0.55"/>
<stop offset="0.429846" stop-color="#CBE2FF" stop-opacity="0.618229"/>
<stop offset="1" stop-color="#FDAB01" stop-opacity="0.68"/>
</linearGradient>
<linearGradient id="paint13_linear_244_731" x1="708.93" y1="-246.5" x2="723.857" y2="1506.5" gradientUnits="userSpaceOnUse">
<stop stop-color="#FDFEFF" stop-opacity="0.55"/>
<stop offset="0.429846" stop-color="#CBE2FF" stop-opacity="0.618229"/>
<stop offset="1" stop-color="#FDAB01" stop-opacity="0.68"/>
</linearGradient>
<linearGradient id="paint14_linear_244_731" x1="708.93" y1="-246.5" x2="723.857" y2="1506.5" gradientUnits="userSpaceOnUse">
<stop stop-color="#FDFEFF" stop-opacity="0.55"/>
<stop offset="0.429846" stop-color="#CBE2FF" stop-opacity="0.618229"/>
<stop offset="1" stop-color="#FDAB01" stop-opacity="0.68"/>
</linearGradient>
<linearGradient id="paint15_linear_244_731" x1="708.93" y1="-246.5" x2="723.857" y2="1506.5" gradientUnits="userSpaceOnUse">
<stop stop-color="#FDFEFF" stop-opacity="0.55"/>
<stop offset="0.429846" stop-color="#CBE2FF" stop-opacity="0.618229"/>
<stop offset="1" stop-color="#FDAB01" stop-opacity="0.68"/>
</linearGradient>
<linearGradient id="paint16_linear_244_731" x1="708.93" y1="-246.5" x2="723.857" y2="1506.5" gradientUnits="userSpaceOnUse">
<stop stop-color="#FDFEFF" stop-opacity="0.55"/>
<stop offset="0.429846" stop-color="#CBE2FF" stop-opacity="0.618229"/>
<stop offset="1" stop-color="#FDAB01" stop-opacity="0.68"/>
</linearGradient>
<linearGradient id="paint17_linear_244_731" x1="708.93" y1="-246.5" x2="723.857" y2="1506.5" gradientUnits="userSpaceOnUse">
<stop stop-color="#FDFEFF" stop-opacity="0.55"/>
<stop offset="0.429846" stop-color="#CBE2FF" stop-opacity="0.618229"/>
<stop offset="1" stop-color="#FDAB01" stop-opacity="0.68"/>
</linearGradient>
<linearGradient id="paint18_linear_244_731" x1="708.93" y1="-246.5" x2="723.857" y2="1506.5" gradientUnits="userSpaceOnUse">
<stop stop-color="#FDFEFF" stop-opacity="0.55"/>
<stop offset="0.429846" stop-color="#CBE2FF" stop-opacity="0.618229"/>
<stop offset="1" stop-color="#FDAB01" stop-opacity="0.68"/>
</linearGradient>
<linearGradient id="paint19_linear_244_731" x1="708.93" y1="-246.5" x2="723.857" y2="1506.5" gradientUnits="userSpaceOnUse">
<stop stop-color="#FDFEFF" stop-opacity="0.55"/>
<stop offset="0.429846" stop-color="#CBE2FF" stop-opacity="0.618229"/>
<stop offset="1" stop-color="#FDAB01" stop-opacity="0.68"/>
</linearGradient>
<linearGradient id="paint20_linear_244_731" x1="708.93" y1="-246.5" x2="723.857" y2="1506.5" gradientUnits="userSpaceOnUse">
<stop stop-color="#FDFEFF" stop-opacity="0.55"/>
<stop offset="0.429846" stop-color="#CBE2FF" stop-opacity="0.618229"/>
<stop offset="1" stop-color="#FDAB01" stop-opacity="0.68"/>
</linearGradient>
<linearGradient id="paint21_linear_244_731" x1="708.93" y1="-246.5" x2="723.857" y2="1506.5" gradientUnits="userSpaceOnUse">
<stop stop-color="#FDFEFF" stop-opacity="0.55"/>
<stop offset="0.429846" stop-color="#CBE2FF" stop-opacity="0.618229"/>
<stop offset="1" stop-color="#FDAB01" stop-opacity="0.68"/>
</linearGradient>
<linearGradient id="paint22_linear_244_731" x1="708.93" y1="-246.5" x2="723.857" y2="1506.5" gradientUnits="userSpaceOnUse">
<stop stop-color="#FDFEFF" stop-opacity="0.55"/>
<stop offset="0.429846" stop-color="#CBE2FF" stop-opacity="0.618229"/>
<stop offset="1" stop-color="#FDAB01" stop-opacity="0.68"/>
</linearGradient>
<linearGradient id="paint23_linear_244_731" x1="708.93" y1="-246.5" x2="723.857" y2="1506.5" gradientUnits="userSpaceOnUse">
<stop stop-color="#FDFEFF" stop-opacity="0.55"/>
<stop offset="0.429846" stop-color="#CBE2FF" stop-opacity="0.618229"/>
<stop offset="1" stop-color="#FDAB01" stop-opacity="0.68"/>
</linearGradient>
<linearGradient id="paint24_linear_244_731" x1="708.93" y1="-246.5" x2="723.857" y2="1506.5" gradientUnits="userSpaceOnUse">
<stop stop-color="#FDFEFF" stop-opacity="0.55"/>
<stop offset="0.429846" stop-color="#CBE2FF" stop-opacity="0.618229"/>
<stop offset="1" stop-color="#FDAB01" stop-opacity="0.68"/>
</linearGradient>
<linearGradient id="paint25_linear_244_731" x1="708.93" y1="-246.5" x2="723.857" y2="1506.5" gradientUnits="userSpaceOnUse">
<stop stop-color="#FDFEFF" stop-opacity="0.55"/>
<stop offset="0.429846" stop-color="#CBE2FF" stop-opacity="0.618229"/>
<stop offset="1" stop-color="#FDAB01" stop-opacity="0.68"/>
</linearGradient>
<linearGradient id="paint26_linear_244_731" x1="708.93" y1="-246.5" x2="723.857" y2="1506.5" gradientUnits="userSpaceOnUse">
<stop stop-color="#FDFEFF" stop-opacity="0.55"/>
<stop offset="0.429846" stop-color="#CBE2FF" stop-opacity="0.618229"/>
<stop offset="1" stop-color="#FDAB01" stop-opacity="0.68"/>
</linearGradient>
<linearGradient id="paint27_linear_244_731" x1="708.93" y1="-246.5" x2="723.857" y2="1506.5" gradientUnits="userSpaceOnUse">
<stop stop-color="#FDFEFF" stop-opacity="0.55"/>
<stop offset="0.429846" stop-color="#CBE2FF" stop-opacity="0.618229"/>
<stop offset="1" stop-color="#FDAB01" stop-opacity="0.68"/>
</linearGradient>
<linearGradient id="paint28_linear_244_731" x1="708.93" y1="-246.5" x2="723.857" y2="1506.5" gradientUnits="userSpaceOnUse">
<stop stop-color="#FDFEFF" stop-opacity="0.55"/>
<stop offset="0.429846" stop-color="#CBE2FF" stop-opacity="0.618229"/>
<stop offset="1" stop-color="#FDAB01" stop-opacity="0.68"/>
</linearGradient>
<linearGradient id="paint29_linear_244_731" x1="708.93" y1="-246.5" x2="723.857" y2="1506.5" gradientUnits="userSpaceOnUse">
<stop stop-color="#FDFEFF" stop-opacity="0.55"/>
<stop offset="0.429846" stop-color="#CBE2FF" stop-opacity="0.618229"/>
<stop offset="1" stop-color="#FDAB01" stop-opacity="0.68"/>
</linearGradient>
<linearGradient id="paint30_linear_244_731" x1="708.93" y1="-246.5" x2="723.857" y2="1506.5" gradientUnits="userSpaceOnUse">
<stop stop-color="#FDFEFF" stop-opacity="0.55"/>
<stop offset="0.429846" stop-color="#CBE2FF" stop-opacity="0.618229"/>
<stop offset="1" stop-color="#FDAB01" stop-opacity="0.68"/>
</linearGradient>
<linearGradient id="paint31_linear_244_731" x1="708.93" y1="-246.5" x2="723.857" y2="1506.5" gradientUnits="userSpaceOnUse">
<stop stop-color="#FDFEFF" stop-opacity="0.55"/>
<stop offset="0.429846" stop-color="#CBE2FF" stop-opacity="0.618229"/>
<stop offset="1" stop-color="#FDAB01" stop-opacity="0.68"/>
</linearGradient>
<linearGradient id="paint32_linear_244_731" x1="708.93" y1="-246.5" x2="723.857" y2="1506.5" gradientUnits="userSpaceOnUse">
<stop stop-color="#FDFEFF" stop-opacity="0.55"/>
<stop offset="0.429846" stop-color="#CBE2FF" stop-opacity="0.618229"/>
<stop offset="1" stop-color="#FDAB01" stop-opacity="0.68"/>
</linearGradient>
<linearGradient id="paint33_linear_244_731" x1="708.93" y1="-246.5" x2="723.857" y2="1506.5" gradientUnits="userSpaceOnUse">
<stop stop-color="#FDFEFF" stop-opacity="0.55"/>
<stop offset="0.429846" stop-color="#CBE2FF" stop-opacity="0.618229"/>
<stop offset="1" stop-color="#FDAB01" stop-opacity="0.68"/>
</linearGradient>
<linearGradient id="paint34_linear_244_731" x1="708.93" y1="-246.5" x2="723.857" y2="1506.5" gradientUnits="userSpaceOnUse">
<stop stop-color="#FDFEFF" stop-opacity="0.55"/>
<stop offset="0.429846" stop-color="#CBE2FF" stop-opacity="0.618229"/>
<stop offset="1" stop-color="#FDAB01" stop-opacity="0.68"/>
</linearGradient>
<linearGradient id="paint35_linear_244_731" x1="708.93" y1="-246.5" x2="723.857" y2="1506.5" gradientUnits="userSpaceOnUse">
<stop stop-color="#FDFEFF" stop-opacity="0.55"/>
<stop offset="0.429846" stop-color="#CBE2FF" stop-opacity="0.618229"/>
<stop offset="1" stop-color="#FDAB01" stop-opacity="0.68"/>
</linearGradient>
<linearGradient id="paint36_linear_244_731" x1="708.93" y1="-246.5" x2="723.857" y2="1506.5" gradientUnits="userSpaceOnUse">
<stop stop-color="#FDFEFF" stop-opacity="0.55"/>
<stop offset="0.429846" stop-color="#CBE2FF" stop-opacity="0.618229"/>
<stop offset="1" stop-color="#FDAB01" stop-opacity="0.68"/>
</linearGradient>
</defs>
</svg>
