<svg width="27" height="26" viewBox="0 0 27 26" fill="none" xmlns="http://www.w3.org/2000/svg">
<ellipse cx="13.5528" cy="13" rx="12.6476" ry="12.5" fill="black"/>
<rect x="7.22949" y="6.2959" width="13.0428" height="12.8906" fill="white"/>
<path d="M5.5981 4.80862C5.86136 4.79296 6.12532 4.79296 6.38858 4.80862H21.285C21.3614 4.79862 21.439 4.80569 21.5122 4.82936C21.5854 4.85302 21.6523 4.89267 21.7079 4.94533C21.9056 5.14454 21.8344 5.44143 21.8463 5.69143C21.8463 10.7018 21.8463 15.7149 21.8463 20.7305C21.8447 20.7993 21.8284 20.867 21.7985 20.9291C21.7686 20.9912 21.7258 21.0464 21.6728 21.091C21.6198 21.1357 21.5579 21.1688 21.491 21.1881C21.4242 21.2074 21.354 21.2125 21.285 21.2031H5.73644C5.67271 21.2059 5.60911 21.1955 5.54962 21.1728C5.49013 21.1501 5.43604 21.1154 5.39075 21.071C5.34547 21.0266 5.30996 20.9734 5.28647 20.9148C5.26298 20.8562 5.25201 20.7935 5.25425 20.7305V5.28517C5.24609 5.17852 5.27603 5.07241 5.33886 4.98533C5.40169 4.89825 5.49343 4.83573 5.5981 4.80862ZM9.00109 8.88672C9.00109 11.6211 9.00109 14.3555 9.00109 17.0898H12.1156C12.1156 15.7344 12.0958 14.3555 12.1156 13.0195C12.4555 13.4883 12.7677 13.9805 13.1155 14.4453C13.6965 15.3359 14.3526 16.1758 14.9099 17.082C15.9533 17.1094 16.9967 17.082 18.0441 17.082C18.0441 16.9531 18.0639 16.8242 18.0639 16.6914C18.0639 14.082 18.0639 11.4687 18.0639 8.8789C17.0283 8.8789 15.9968 8.8789 14.9652 8.8789C14.9652 10.2422 14.9652 11.6133 14.9652 12.9687C14.0048 11.6211 13.0997 10.2344 12.1156 8.89845C11.08 8.85548 10.0287 8.88672 9.00109 8.88672Z" fill="black"/>
<path d="M7.24705 5.57813H19.8614C20.1798 5.57813 20.4852 5.70314 20.7103 5.92565C20.9355 6.14816 21.062 6.44995 21.062 6.76464V19.2318C21.062 19.3881 21.0308 19.5429 20.9703 19.6872C20.9098 19.8316 20.8211 19.9628 20.7093 20.0733C20.5975 20.1838 20.4647 20.2715 20.3187 20.3313C20.1726 20.3911 20.016 20.4219 19.8579 20.4219H7.24705C7.08893 20.4219 6.93236 20.3911 6.78627 20.3313C6.64018 20.2715 6.50745 20.1838 6.39564 20.0733C6.28383 19.9628 6.19513 19.8316 6.13462 19.6872C6.07411 19.5429 6.04297 19.3881 6.04297 19.2318V6.76464C6.04391 6.44963 6.17119 6.14785 6.39689 5.92544C6.6226 5.70302 6.92833 5.57812 7.24705 5.57813Z" fill="black"/>
<path d="M13.5887 6.5332C9.65379 6.5332 6.48047 9.04222 6.48047 12.0882C6.48047 14.0653 7.80057 15.7965 9.78073 16.7851L9.11052 19.259C9.09788 19.2961 9.09594 19.3359 9.10491 19.374C9.11388 19.4121 9.1334 19.447 9.16129 19.4748C9.20197 19.5102 9.2543 19.5299 9.30854 19.53C9.3535 19.5264 9.39617 19.5089 9.43039 19.4798L12.3143 17.5579C12.74 17.616 13.1691 17.6461 13.5989 17.6482C17.5287 17.6482 20.7071 15.1392 20.7071 12.0882C20.7071 9.0372 17.5186 6.5332 13.5887 6.5332Z" fill="white"/>
<path d="M8.96846 11.2099H8.19163C8.09534 11.2127 8.00025 11.1883 7.91745 11.1397C7.88069 11.1169 7.84909 11.0869 7.82462 11.0515C7.80016 11.0161 7.78336 10.9761 7.77529 10.9339C7.77282 10.9072 7.77282 10.8804 7.77529 10.8537C7.77287 10.8037 7.78269 10.7539 7.8039 10.7084C7.82512 10.663 7.8571 10.6233 7.89714 10.5927C7.98566 10.5294 8.0925 10.4959 8.20178 10.4974H10.5424C10.6395 10.494 10.7352 10.5203 10.8166 10.5726C10.8542 10.5944 10.8865 10.6242 10.9111 10.6597C10.9357 10.6953 10.952 10.7358 10.9588 10.7784C10.9612 10.8034 10.9612 10.8287 10.9588 10.8537C10.9612 10.9044 10.9514 10.9549 10.9302 11.0011C10.909 11.0474 10.877 11.0879 10.8369 11.1196C10.7505 11.1829 10.6447 11.2148 10.5373 11.2099H9.78591V13.8495C9.78896 13.9057 9.78015 13.9619 9.76005 14.0146C9.73995 14.0673 9.70898 14.1153 9.66913 14.1556C9.63091 14.194 9.58496 14.2242 9.53424 14.2441C9.48353 14.264 9.42916 14.2731 9.37464 14.271C9.27929 14.2737 9.18595 14.2435 9.11062 14.1857C9.0389 14.1292 8.99023 14.049 8.97354 13.9598C8.96852 13.9232 8.96852 13.8861 8.97354 13.8495L8.96846 11.2099Z" fill="black"/>
<path d="M11.1827 10.6931C11.2051 10.6105 11.2575 10.539 11.33 10.4923C11.4072 10.4491 11.4952 10.4282 11.5838 10.4321H11.7768C11.8709 10.4288 11.964 10.4514 12.0459 10.4973C12.1326 10.555 12.1942 10.6428 12.2185 10.7432L13.234 13.5784C13.2603 13.6524 13.2823 13.7278 13.3 13.8043C13.3017 13.8361 13.3017 13.8679 13.3 13.8996C13.3017 13.9485 13.2926 13.9972 13.2733 14.0423C13.254 14.0873 13.225 14.1277 13.1883 14.1606C13.1527 14.1966 13.11 14.225 13.0628 14.244C13.0156 14.263 12.965 14.2722 12.9141 14.2709C12.8358 14.2786 12.7571 14.2601 12.6908 14.2182C12.6245 14.1763 12.5744 14.1136 12.5485 14.0401L12.3353 13.4229H10.9999L10.7867 14.0401C10.7615 14.115 10.7107 14.179 10.6432 14.2211C10.5756 14.2632 10.4953 14.2808 10.4161 14.2709C10.3302 14.2732 10.2461 14.2466 10.1774 14.1957C10.1105 14.1431 10.0654 14.0682 10.0505 13.9849C10.0478 13.9566 10.0478 13.928 10.0505 13.8996C10.0418 13.8498 10.0418 13.7989 10.0505 13.7491C10.0505 13.6939 10.086 13.6336 10.1063 13.5784L11.1827 10.6931ZM11.6905 11.3505L11.2081 12.8559H12.1677L11.6905 11.3505Z" fill="black"/>
<path d="M13.4165 10.8536C13.4113 10.741 13.4515 10.631 13.5282 10.5475C13.5671 10.5087 13.614 10.4783 13.6656 10.4584C13.7172 10.4385 13.7724 10.4295 13.8277 10.4321C13.9228 10.431 14.0156 10.461 14.0917 10.5174C14.1623 10.5763 14.2091 10.6581 14.2237 10.7482C14.2287 10.7832 14.2287 10.8187 14.2237 10.8536V13.4931H15.62C15.7168 13.4919 15.8119 13.518 15.8942 13.5684C15.9312 13.5909 15.9629 13.6209 15.9874 13.6563C16.0119 13.6918 16.0286 13.7319 16.0364 13.7741C16.0364 13.7741 16.0364 13.8243 16.0364 13.8494C16.0388 13.8994 16.029 13.9492 16.0077 13.9946C15.9865 14.04 15.9545 14.0797 15.9145 14.1104C15.826 14.1737 15.7191 14.2071 15.6099 14.2057H13.8937C13.7844 14.2126 13.6758 14.1845 13.584 14.1254C13.5019 14.0648 13.4472 13.9747 13.4317 13.8745C13.428 13.8194 13.428 13.764 13.4317 13.7089L13.4165 10.8536Z" fill="black"/>
<path d="M16.128 10.8533C16.1249 10.741 16.1648 10.6317 16.2397 10.5472C16.3158 10.4788 16.4134 10.4385 16.516 10.433C16.6187 10.4275 16.7202 10.4572 16.8033 10.517C16.8753 10.5754 16.9239 10.6572 16.9403 10.7478C16.9429 10.7829 16.9429 10.8182 16.9403 10.8533V12.0827L18.2249 10.6174C18.2744 10.5674 18.327 10.5205 18.3823 10.4769C18.4345 10.4462 18.4943 10.4305 18.5549 10.4317C18.6437 10.4312 18.7305 10.4575 18.8037 10.507C18.8382 10.53 18.8677 10.5596 18.8904 10.5941C18.9131 10.6286 18.9285 10.6672 18.9357 10.7077C18.9378 10.7177 18.9378 10.7279 18.9357 10.7379C18.9333 10.7494 18.9333 10.7614 18.9357 10.773C18.9356 10.8258 18.9216 10.8776 18.8951 10.9235C18.8682 10.9721 18.8358 11.0175 18.7986 11.059L17.9558 11.9723L18.9713 13.5279V13.578C19.024 13.65 19.0651 13.7296 19.0931 13.8139V13.839C19.099 13.8971 19.0905 13.9558 19.0684 14.01C19.0463 14.0642 19.0112 14.1123 18.9662 14.1501C18.8815 14.2134 18.7779 14.247 18.6717 14.2455C18.6012 14.2484 18.5311 14.2327 18.4686 14.2003C18.401 14.1555 18.3453 14.0952 18.3061 14.0247L17.3618 12.5192L16.9099 12.9859V13.8239C16.9129 13.9362 16.873 14.0455 16.7982 14.13C16.7581 14.1688 16.7103 14.1991 16.6579 14.2189C16.6055 14.2388 16.5496 14.2478 16.4935 14.2455C16.3999 14.2474 16.3084 14.2173 16.2346 14.1602C16.1629 14.1037 16.1142 14.0235 16.0975 13.9344C16.0925 13.8977 16.0925 13.8606 16.0975 13.8239L16.128 10.8533Z" fill="black"/>
</svg>
