<svg width="26" height="26" viewBox="0 0 26 26" fill="none" xmlns="http://www.w3.org/2000/svg">
<ellipse cx="12.7599" cy="13" rx="12.6476" ry="12.5" fill="black"/>
<rect x="6.43652" y="6.2959" width="13.0428" height="12.8906" fill="white"/>
<path d="M4.80513 4.80862C5.06839 4.79296 5.33235 4.79296 5.59561 4.80862H20.4921C20.5684 4.79862 20.6461 4.80569 20.7193 4.82936C20.7925 4.85302 20.8594 4.89267 20.915 4.94533C21.1126 5.14454 21.0414 5.44143 21.0533 5.69143C21.0533 10.7018 21.0533 15.7149 21.0533 20.7305C21.0517 20.7993 21.0355 20.867 21.0056 20.9291C20.9757 20.9912 20.9328 21.0464 20.8798 21.091C20.8268 21.1357 20.7649 21.1688 20.6981 21.1881C20.6312 21.2074 20.561 21.2125 20.4921 21.2031H4.94347C4.87974 21.2059 4.81614 21.1955 4.75665 21.1728C4.69716 21.1501 4.64307 21.1154 4.59778 21.071C4.5525 21.0266 4.51699 20.9734 4.4935 20.9148C4.47001 20.8562 4.45904 20.7935 4.46128 20.7305V5.28517C4.45312 5.17852 4.48306 5.07241 4.54589 4.98533C4.60872 4.89825 4.70046 4.83573 4.80513 4.80862ZM8.20812 8.88672C8.20812 11.6211 8.20812 14.3555 8.20812 17.0898H11.3226C11.3226 15.7344 11.3028 14.3555 11.3226 13.0195C11.6625 13.4883 11.9747 13.9805 12.3225 14.4453C12.9035 15.3359 13.5596 16.1758 14.1169 17.082C15.1603 17.1094 16.2038 17.082 17.2511 17.082C17.2511 16.9531 17.2709 16.8242 17.2709 16.6914C17.2709 14.082 17.2709 11.4687 17.2709 8.8789C16.2354 8.8789 15.2038 8.8789 14.1722 8.8789C14.1722 10.2422 14.1722 11.6133 14.1722 12.9687C13.2118 11.6211 12.3067 10.2344 11.3226 8.89845C10.2871 8.85548 9.23573 8.88672 8.20812 8.88672Z" fill="black"/>
<path d="M6.45408 5.57813H19.0685C19.3869 5.57813 19.6922 5.70314 19.9174 5.92565C20.1425 6.14816 20.269 6.44995 20.269 6.76464V19.2318C20.269 19.3881 20.2378 19.5429 20.1773 19.6872C20.1168 19.8316 20.0281 19.9628 19.9163 20.0733C19.8045 20.1838 19.6718 20.2715 19.5257 20.3313C19.3796 20.3911 19.223 20.4219 19.0649 20.4219H6.45408C6.29596 20.4219 6.13939 20.3911 5.9933 20.3313C5.84721 20.2715 5.71448 20.1838 5.60267 20.0733C5.49086 19.9628 5.40217 19.8316 5.34166 19.6872C5.28114 19.5429 5.25 19.3881 5.25 19.2318V6.76464C5.25094 6.44963 5.37822 6.14785 5.60392 5.92544C5.82963 5.70302 6.13536 5.57812 6.45408 5.57813Z" fill="black"/>
<path d="M12.7957 6.5332C8.86083 6.5332 5.6875 9.04222 5.6875 12.0882C5.6875 14.0653 7.0076 15.7965 8.98776 16.7851L8.31755 19.259C8.30492 19.2961 8.30297 19.3359 8.31194 19.374C8.32091 19.4121 8.34043 19.447 8.36832 19.4748C8.409 19.5102 8.46133 19.5299 8.51557 19.53C8.56053 19.5264 8.6032 19.5089 8.63742 19.4798L11.5213 17.5579C11.947 17.616 12.3762 17.6461 12.8059 17.6482C16.7357 17.6482 19.9142 15.1392 19.9142 12.0882C19.9142 9.0372 16.7256 6.5332 12.7957 6.5332Z" fill="white"/>
<path d="M8.17549 11.2099H7.39866C7.30237 11.2127 7.20728 11.1883 7.12448 11.1397C7.08772 11.1169 7.05612 11.0869 7.03165 11.0515C7.00719 11.0161 6.99039 10.9761 6.98232 10.9339C6.97985 10.9072 6.97985 10.8804 6.98232 10.8537C6.97991 10.8037 6.98972 10.7539 7.01093 10.7084C7.03215 10.663 7.06413 10.6233 7.10417 10.5927C7.19269 10.5294 7.29953 10.4959 7.40881 10.4974H9.74946C9.84651 10.494 9.94225 10.5203 10.0236 10.5726C10.0613 10.5944 10.0935 10.6242 10.1181 10.6597C10.1427 10.6953 10.159 10.7358 10.1658 10.7784C10.1683 10.8034 10.1683 10.8287 10.1658 10.8537C10.1682 10.9044 10.1584 10.9549 10.1372 11.0011C10.116 11.0474 10.0841 11.0879 10.0439 11.1196C9.95758 11.1829 9.85177 11.2148 9.74438 11.2099H8.99294V13.8495C8.99599 13.9057 8.98718 13.9619 8.96708 14.0146C8.94698 14.0673 8.91602 14.1153 8.87616 14.1556C8.83794 14.194 8.79199 14.2242 8.74128 14.2441C8.69056 14.264 8.63619 14.2731 8.58167 14.271C8.48632 14.2737 8.39299 14.2435 8.31765 14.1857C8.24593 14.1292 8.19726 14.049 8.18057 13.9598C8.17555 13.9232 8.17555 13.8861 8.18057 13.8495L8.17549 11.2099Z" fill="black"/>
<path d="M10.3898 10.6931C10.4121 10.6105 10.4645 10.539 10.537 10.4923C10.6142 10.4491 10.7022 10.4282 10.7909 10.4321H10.9838C11.0779 10.4288 11.1711 10.4514 11.2529 10.4973C11.3396 10.555 11.4013 10.6428 11.4255 10.7432L12.441 13.5784C12.4673 13.6524 12.4894 13.7278 12.507 13.8043C12.5087 13.8361 12.5087 13.8679 12.507 13.8996C12.5087 13.9485 12.4996 13.9972 12.4803 14.0423C12.461 14.0873 12.432 14.1277 12.3953 14.1606C12.3597 14.1966 12.317 14.225 12.2698 14.244C12.2227 14.263 12.172 14.2722 12.1211 14.2709C12.0428 14.2786 11.9642 14.2601 11.8978 14.2182C11.8315 14.1763 11.7814 14.1136 11.7556 14.0401L11.5423 13.4229H10.207L9.99373 14.0401C9.96851 14.115 9.91778 14.179 9.85019 14.2211C9.78261 14.2632 9.70234 14.2808 9.62308 14.2709C9.53723 14.2732 9.45313 14.2466 9.38445 14.1957C9.31753 14.1431 9.27239 14.0682 9.25752 13.9849C9.25482 13.9566 9.25482 13.928 9.25752 13.8996C9.2488 13.8498 9.2488 13.7989 9.25752 13.7491C9.25752 13.6939 9.29306 13.6336 9.31337 13.5784L10.3898 10.6931ZM10.8975 11.3505L10.4151 12.8559H11.3748L10.8975 11.3505Z" fill="black"/>
<path d="M12.6235 10.8536C12.6183 10.741 12.6585 10.631 12.7352 10.5475C12.7742 10.5087 12.821 10.4783 12.8726 10.4584C12.9242 10.4385 12.9794 10.4295 13.0348 10.4321C13.1299 10.431 13.2227 10.461 13.2988 10.5174C13.3693 10.5763 13.4161 10.6581 13.4308 10.7482C13.4358 10.7832 13.4358 10.8187 13.4308 10.8536V13.4931H14.827C14.9238 13.4919 15.019 13.518 15.1012 13.5684C15.1382 13.5909 15.1699 13.6209 15.1944 13.6563C15.2189 13.6918 15.2356 13.7319 15.2434 13.7741C15.2434 13.7741 15.2434 13.8243 15.2434 13.8494C15.2458 13.8994 15.236 13.9492 15.2148 13.9946C15.1936 14.04 15.1616 14.0797 15.1215 14.1104C15.033 14.1737 14.9262 14.2071 14.8169 14.2057H13.1008C12.9915 14.2126 12.8828 14.1845 12.791 14.1254C12.7089 14.0648 12.6543 13.9747 12.6387 13.8745C12.635 13.8194 12.635 13.764 12.6387 13.7089L12.6235 10.8536Z" fill="black"/>
<path d="M15.335 10.8533C15.332 10.741 15.3719 10.6317 15.4467 10.5472C15.5228 10.4788 15.6204 10.4385 15.7231 10.433C15.8257 10.4275 15.9272 10.4572 16.0103 10.517C16.0824 10.5754 16.131 10.6572 16.1474 10.7478C16.1499 10.7829 16.1499 10.8182 16.1474 10.8533V12.0827L17.4319 10.6174C17.4814 10.5674 17.534 10.5205 17.5893 10.4769C17.6415 10.4462 17.7013 10.4305 17.762 10.4317C17.8507 10.4312 17.9375 10.4575 18.0108 10.507C18.0453 10.53 18.0748 10.5596 18.0974 10.5941C18.1201 10.6286 18.1355 10.6672 18.1428 10.7077C18.1448 10.7177 18.1448 10.7279 18.1428 10.7379C18.1403 10.7494 18.1403 10.7614 18.1428 10.773C18.1426 10.8258 18.1286 10.8776 18.1021 10.9235C18.0752 10.9721 18.0428 11.0175 18.0057 11.059L17.1628 11.9723L18.1783 13.5279V13.578C18.231 13.65 18.2721 13.7296 18.3002 13.8139V13.839C18.306 13.8971 18.2976 13.9558 18.2754 14.01C18.2533 14.0642 18.2183 14.1123 18.1732 14.1501C18.0885 14.2134 17.9849 14.247 17.8787 14.2455C17.8082 14.2484 17.7381 14.2327 17.6757 14.2003C17.608 14.1555 17.5523 14.0952 17.5132 14.0247L16.5688 12.5192L16.1169 12.9859V13.8239C16.12 13.9362 16.0801 14.0455 16.0052 14.13C15.9651 14.1688 15.9174 14.1991 15.865 14.2189C15.8126 14.2388 15.7566 14.2478 15.7006 14.2455C15.6069 14.2474 15.5154 14.2173 15.4416 14.1602C15.3699 14.1037 15.3212 14.0235 15.3045 13.9344C15.2995 13.8977 15.2995 13.8606 15.3045 13.8239L15.335 10.8533Z" fill="black"/>
</svg>
