<svg width="26" height="26" viewBox="0 0 26 26" fill="none" xmlns="http://www.w3.org/2000/svg">
<ellipse cx="12.795" cy="13" rx="12.6476" ry="12.5" fill="black"/>
<rect x="6.47168" y="6.2959" width="13.0428" height="12.8906" fill="white"/>
<path d="M4.84029 4.80862C5.10354 4.79296 5.36751 4.79296 5.63076 4.80862H20.5272C20.6036 4.79862 20.6812 4.80569 20.7544 4.82936C20.8276 4.85302 20.8945 4.89267 20.9501 4.94533C21.1477 5.14454 21.0766 5.44143 21.0885 5.69143C21.0885 10.7018 21.0885 15.7149 21.0885 20.7305C21.0869 20.7993 21.0706 20.867 21.0407 20.9291C21.0108 20.9912 20.968 21.0464 20.915 21.091C20.862 21.1357 20.8 21.1688 20.7332 21.1881C20.6664 21.2074 20.5962 21.2125 20.5272 21.2031H4.97862C4.9149 21.2059 4.85129 21.1955 4.7918 21.1728C4.73231 21.1501 4.67823 21.1154 4.63294 21.071C4.58765 21.0266 4.55215 20.9734 4.52866 20.9148C4.50516 20.8562 4.49419 20.7935 4.49643 20.7305V5.28517C4.48827 5.17852 4.51821 5.07241 4.58104 4.98533C4.64387 4.89825 4.73561 4.83573 4.84029 4.80862ZM8.24328 8.88672C8.24328 11.6211 8.24328 14.3555 8.24328 17.0898H11.3577C11.3577 15.7344 11.338 14.3555 11.3577 13.0195C11.6976 13.4883 12.0099 13.9805 12.3577 14.4453C12.9387 15.3359 13.5948 16.1758 14.1521 17.082C15.1955 17.1094 16.2389 17.082 17.2863 17.082C17.2863 16.9531 17.306 16.8242 17.306 16.6914C17.306 14.082 17.306 11.4687 17.306 8.8789C16.2705 8.8789 15.239 8.8789 14.2074 8.8789C14.2074 10.2422 14.2074 11.6133 14.2074 12.9687C13.247 11.6211 12.3419 10.2344 11.3577 8.89845C10.3222 8.85548 9.27089 8.88672 8.24328 8.88672Z" fill="black"/>
<path d="M6.48924 5.57813H19.1036C19.422 5.57813 19.7274 5.70314 19.9525 5.92565C20.1777 6.14816 20.3041 6.44995 20.3041 6.76464V19.2318C20.3041 19.3881 20.273 19.5429 20.2125 19.6872C20.152 19.8316 20.0633 19.9628 19.9515 20.0733C19.8397 20.1838 19.7069 20.2715 19.5608 20.3313C19.4148 20.3911 19.2582 20.4219 19.1001 20.4219H6.48924C6.33112 20.4219 6.17454 20.3911 6.02846 20.3313C5.88237 20.2715 5.74963 20.1838 5.63782 20.0733C5.52601 19.9628 5.43732 19.8316 5.37681 19.6872C5.3163 19.5429 5.28516 19.3881 5.28516 19.2318V6.76464C5.2861 6.44963 5.41337 6.14785 5.63908 5.92544C5.86479 5.70302 6.17051 5.57812 6.48924 5.57813Z" fill="black"/>
<path d="M12.8309 6.5332C8.89598 6.5332 5.72266 9.04222 5.72266 12.0882C5.72266 14.0653 7.04276 15.7965 9.02291 16.7851L8.35271 19.259C8.34007 19.2961 8.33813 19.3359 8.3471 19.374C8.35606 19.4121 8.37559 19.447 8.40348 19.4748C8.44416 19.5102 8.49649 19.5299 8.55072 19.53C8.59569 19.5264 8.63835 19.5089 8.67258 19.4798L11.5565 17.5579C11.9822 17.616 12.4113 17.6461 12.8411 17.6482C16.7709 17.6482 19.9493 15.1392 19.9493 12.0882C19.9493 9.0372 16.7608 6.5332 12.8309 6.5332Z" fill="white"/>
<path d="M8.21064 11.2099H7.43382C7.33753 11.2127 7.24244 11.1883 7.15964 11.1397C7.12288 11.1169 7.09127 11.0869 7.06681 11.0515C7.04235 11.0161 7.02555 10.9761 7.01748 10.9339C7.01501 10.9072 7.01501 10.8804 7.01748 10.8537C7.01506 10.8037 7.02488 10.7539 7.04609 10.7084C7.0673 10.663 7.09929 10.6233 7.13933 10.5927C7.22785 10.5294 7.33469 10.4959 7.44397 10.4974H9.78461C9.88166 10.494 9.9774 10.5203 10.0588 10.5726C10.0964 10.5944 10.1287 10.6242 10.1533 10.6597C10.1779 10.6953 10.1941 10.7358 10.201 10.7784C10.2034 10.8034 10.2034 10.8287 10.201 10.8537C10.2033 10.9044 10.1936 10.9549 10.1724 11.0011C10.1512 11.0474 10.1192 11.0879 10.0791 11.1196C9.99274 11.1829 9.88693 11.2148 9.77953 11.2099H9.02809V13.8495C9.03115 13.9057 9.02234 13.9619 9.00224 14.0146C8.98213 14.0673 8.95117 14.1153 8.91131 14.1556C8.87309 14.194 8.82715 14.2242 8.77643 14.2441C8.72571 14.264 8.67134 14.2731 8.61683 14.271C8.52147 14.2737 8.42814 14.2435 8.35281 14.1857C8.28109 14.1292 8.23241 14.049 8.21572 13.9598C8.21071 13.9232 8.21071 13.8861 8.21572 13.8495L8.21064 11.2099Z" fill="black"/>
<path d="M10.4249 10.6931C10.4472 10.6105 10.4997 10.539 10.5722 10.4923C10.6494 10.4491 10.7374 10.4282 10.826 10.4321H11.019C11.113 10.4288 11.2062 10.4514 11.2881 10.4973C11.3748 10.555 11.4364 10.6428 11.4607 10.7432L12.4762 13.5784C12.5025 13.6524 12.5245 13.7278 12.5422 13.8043C12.5439 13.8361 12.5439 13.8679 12.5422 13.8996C12.5439 13.9485 12.5348 13.9972 12.5155 14.0423C12.4962 14.0873 12.4672 14.1277 12.4305 14.1606C12.3949 14.1966 12.3522 14.225 12.305 14.244C12.2578 14.263 12.2072 14.2722 12.1563 14.2709C12.078 14.2786 11.9993 14.2601 11.933 14.2182C11.8667 14.1763 11.8166 14.1136 11.7907 14.0401L11.5775 13.4229H10.2421L10.0289 14.0401C10.0037 14.115 9.95294 14.179 9.88535 14.2211C9.81776 14.2632 9.7375 14.2808 9.65824 14.2709C9.57238 14.2732 9.48828 14.2466 9.4196 14.1957C9.35269 14.1431 9.30755 14.0682 9.29267 13.9849C9.28998 13.9566 9.28998 13.928 9.29267 13.8996C9.28395 13.8498 9.28395 13.7989 9.29267 13.7491C9.29267 13.6939 9.32821 13.6336 9.34852 13.5784L10.4249 10.6931ZM10.9326 11.3505L10.4503 12.8559H11.4099L10.9326 11.3505Z" fill="black"/>
<path d="M12.6586 10.8536C12.6535 10.741 12.6936 10.631 12.7703 10.5475C12.8093 10.5087 12.8561 10.4783 12.9077 10.4584C12.9593 10.4385 13.0146 10.4295 13.0699 10.4321C13.165 10.431 13.2578 10.461 13.3339 10.5174C13.4044 10.5763 13.4513 10.6581 13.4659 10.7482C13.4709 10.7832 13.4709 10.8187 13.4659 10.8536V13.4931H14.8622C14.959 13.4919 15.0541 13.518 15.1364 13.5684C15.1733 13.5909 15.2051 13.6209 15.2296 13.6563C15.2541 13.6918 15.2708 13.7319 15.2785 13.7741C15.2785 13.7741 15.2785 13.8243 15.2785 13.8494C15.281 13.8994 15.2711 13.9492 15.2499 13.9946C15.2287 14.04 15.1967 14.0797 15.1567 14.1104C15.0682 14.1737 14.9613 14.2071 14.852 14.2057H13.1359C13.0266 14.2126 12.918 14.1845 12.8262 14.1254C12.7441 14.0648 12.6894 13.9747 12.6739 13.8745C12.6702 13.8194 12.6702 13.764 12.6739 13.7089L12.6586 10.8536Z" fill="black"/>
<path d="M15.3702 10.8533C15.3671 10.741 15.407 10.6317 15.4819 10.5472C15.558 10.4788 15.6556 10.4385 15.7582 10.433C15.8609 10.4275 15.9623 10.4572 16.0454 10.517C16.1175 10.5754 16.1661 10.6572 16.1825 10.7478C16.185 10.7829 16.185 10.8182 16.1825 10.8533V12.0827L17.4671 10.6174C17.5166 10.5674 17.5692 10.5205 17.6245 10.4769C17.6766 10.4462 17.7364 10.4305 17.7971 10.4317C17.8859 10.4312 17.9726 10.4575 18.0459 10.507C18.0804 10.53 18.1099 10.5596 18.1326 10.5941C18.1553 10.6286 18.1707 10.6672 18.1779 10.7077C18.18 10.7177 18.18 10.7279 18.1779 10.7379C18.1755 10.7494 18.1755 10.7614 18.1779 10.773C18.1777 10.8258 18.1638 10.8776 18.1373 10.9235C18.1104 10.9721 18.078 11.0175 18.0408 11.059L17.198 11.9723L18.2135 13.5279V13.578C18.2662 13.65 18.3073 13.7296 18.3353 13.8139V13.839C18.3412 13.8971 18.3327 13.9558 18.3106 14.01C18.2885 14.0642 18.2534 14.1123 18.2084 14.1501C18.1237 14.2134 18.0201 14.247 17.9139 14.2455C17.8434 14.2484 17.7733 14.2327 17.7108 14.2003C17.6432 14.1555 17.5875 14.0952 17.5483 14.0247L16.604 12.5192L16.1521 12.9859V13.8239C16.1551 13.9362 16.1152 14.0455 16.0404 14.13C16.0002 14.1688 15.9525 14.1991 15.9001 14.2189C15.8477 14.2388 15.7918 14.2478 15.7357 14.2455C15.642 14.2474 15.5506 14.2173 15.4768 14.1602C15.4051 14.1037 15.3564 14.0235 15.3397 13.9344C15.3347 13.8977 15.3347 13.8606 15.3397 13.8239L15.3702 10.8533Z" fill="black"/>
</svg>
