<svg width="27" height="26" viewBox="0 0 27 26" fill="none" xmlns="http://www.w3.org/2000/svg">
<ellipse cx="13.5353" cy="13" rx="12.6476" ry="12.5" fill="black"/>
<rect x="7.21191" y="6.2959" width="13.0428" height="12.8906" fill="white"/>
<path d="M5.58052 4.80862C5.84378 4.79296 6.10774 4.79296 6.371 4.80862H21.2675C21.3438 4.79862 21.4215 4.80569 21.4947 4.82936C21.5679 4.85302 21.6347 4.89267 21.6904 4.94533C21.888 5.14454 21.8168 5.44143 21.8287 5.69143C21.8287 10.7018 21.8287 15.7149 21.8287 20.7305C21.8271 20.7993 21.8108 20.867 21.7809 20.9291C21.751 20.9912 21.7082 21.0464 21.6552 21.091C21.6022 21.1357 21.5403 21.1688 21.4735 21.1881C21.4066 21.2074 21.3364 21.2125 21.2675 21.2031H5.71886C5.65513 21.2059 5.59153 21.1955 5.53204 21.1728C5.47255 21.1501 5.41846 21.1154 5.37317 21.071C5.32789 21.0266 5.29238 20.9734 5.26889 20.9148C5.2454 20.8562 5.23443 20.7935 5.23667 20.7305V5.28517C5.22851 5.17852 5.25845 5.07241 5.32128 4.98533C5.38411 4.89825 5.47585 4.83573 5.58052 4.80862ZM8.98351 8.88672C8.98351 11.6211 8.98351 14.3555 8.98351 17.0898H12.098C12.098 15.7344 12.0782 14.3555 12.098 13.0195C12.4379 13.4883 12.7501 13.9805 13.0979 14.4453C13.6789 15.3359 14.335 16.1758 14.8923 17.082C15.9357 17.1094 16.9791 17.082 18.0265 17.082C18.0265 16.9531 18.0463 16.8242 18.0463 16.6914C18.0463 14.082 18.0463 11.4687 18.0463 8.8789C17.0108 8.8789 15.9792 8.8789 14.9476 8.8789C14.9476 10.2422 14.9476 11.6133 14.9476 12.9687C13.9872 11.6211 13.0821 10.2344 12.098 8.89845C11.0625 8.85548 10.0111 8.88672 8.98351 8.88672Z" fill="black"/>
<path d="M7.22948 5.57813H19.8439C20.1623 5.57813 20.4676 5.70314 20.6928 5.92565C20.9179 6.14816 21.0444 6.44995 21.0444 6.76464V19.2318C21.0444 19.3881 21.0132 19.5429 20.9527 19.6872C20.8922 19.8316 20.8035 19.9628 20.6917 20.0733C20.5799 20.1838 20.4472 20.2715 20.3011 20.3313C20.155 20.3911 19.9984 20.4219 19.8403 20.4219H7.22948C7.07135 20.4219 6.91478 20.3911 6.76869 20.3313C6.6226 20.2715 6.48987 20.1838 6.37806 20.0733C6.26625 19.9628 6.17756 19.8316 6.11705 19.6872C6.05653 19.5429 6.02539 19.3881 6.02539 19.2318V6.76464C6.02633 6.44963 6.15361 6.14785 6.37932 5.92544C6.60502 5.70302 6.91075 5.57812 7.22948 5.57813Z" fill="black"/>
<path d="M13.5711 6.5332C9.63622 6.5332 6.46289 9.04222 6.46289 12.0882C6.46289 14.0653 7.78299 15.7965 9.76315 16.7851L9.09294 19.259C9.08031 19.2961 9.07836 19.3359 9.08733 19.374C9.0963 19.4121 9.11582 19.447 9.14372 19.4748C9.18439 19.5102 9.23673 19.5299 9.29096 19.53C9.33592 19.5264 9.37859 19.5089 9.41281 19.4798L12.2967 17.5579C12.7224 17.616 13.1516 17.6461 13.5813 17.6482C17.5111 17.6482 20.6895 15.1392 20.6895 12.0882C20.6895 9.0372 17.501 6.5332 13.5711 6.5332Z" fill="white"/>
<path d="M8.95088 11.2099H8.17405C8.07777 11.2127 7.98267 11.1883 7.89987 11.1397C7.86311 11.1169 7.83151 11.0869 7.80704 11.0515C7.78258 11.0161 7.76578 10.9761 7.75771 10.9339C7.75524 10.9072 7.75524 10.8804 7.75771 10.8537C7.7553 10.8037 7.76511 10.7539 7.78632 10.7084C7.80754 10.663 7.83952 10.6233 7.87956 10.5927C7.96808 10.5294 8.07492 10.4959 8.1842 10.4974H10.5248C10.6219 10.494 10.7176 10.5203 10.799 10.5726C10.8367 10.5944 10.8689 10.6242 10.8935 10.6597C10.9181 10.6953 10.9344 10.7358 10.9412 10.7784C10.9437 10.8034 10.9437 10.8287 10.9412 10.8537C10.9436 10.9044 10.9338 10.9549 10.9126 11.0011C10.8914 11.0474 10.8595 11.0879 10.8193 11.1196C10.733 11.1829 10.6272 11.2148 10.5198 11.2099H9.76833V13.8495C9.77138 13.9057 9.76257 13.9619 9.74247 14.0146C9.72237 14.0673 9.69141 14.1153 9.65155 14.1556C9.61333 14.194 9.56738 14.2242 9.51667 14.2441C9.46595 14.264 9.41158 14.2731 9.35706 14.271C9.26171 14.2737 9.16838 14.2435 9.09304 14.1857C9.02132 14.1292 8.97265 14.049 8.95596 13.9598C8.95094 13.9232 8.95094 13.8861 8.95596 13.8495L8.95088 11.2099Z" fill="black"/>
<path d="M11.1651 10.6931C11.1875 10.6105 11.2399 10.539 11.3124 10.4923C11.3896 10.4491 11.4776 10.4282 11.5663 10.4321H11.7592C11.8533 10.4288 11.9464 10.4514 12.0283 10.4973C12.115 10.555 12.1766 10.6428 12.2009 10.7432L13.2164 13.5784C13.2427 13.6524 13.2648 13.7278 13.2824 13.8043C13.2841 13.8361 13.2841 13.8679 13.2824 13.8996C13.2841 13.9485 13.275 13.9972 13.2557 14.0423C13.2364 14.0873 13.2074 14.1277 13.1707 14.1606C13.1351 14.1966 13.0924 14.225 13.0452 14.244C12.9981 14.263 12.9474 14.2722 12.8965 14.2709C12.8182 14.2786 12.7396 14.2601 12.6732 14.2182C12.6069 14.1763 12.5568 14.1136 12.5309 14.0401L12.3177 13.4229H10.9824L10.7691 14.0401C10.7439 14.115 10.6932 14.179 10.6256 14.2211C10.558 14.2632 10.4777 14.2808 10.3985 14.2709C10.3126 14.2732 10.2285 14.2466 10.1598 14.1957C10.0929 14.1431 10.0478 14.0682 10.0329 13.9849C10.0302 13.9566 10.0302 13.928 10.0329 13.8996C10.0242 13.8498 10.0242 13.7989 10.0329 13.7491C10.0329 13.6939 10.0684 13.6336 10.0888 13.5784L11.1651 10.6931ZM11.6729 11.3505L11.1905 12.8559H12.1501L11.6729 11.3505Z" fill="black"/>
<path d="M13.3989 10.8536C13.3937 10.741 13.4339 10.631 13.5106 10.5475C13.5496 10.5087 13.5964 10.4783 13.648 10.4584C13.6996 10.4385 13.7548 10.4295 13.8101 10.4321C13.9053 10.431 13.9981 10.461 14.0742 10.5174C14.1447 10.5763 14.1915 10.6581 14.2062 10.7482C14.2112 10.7832 14.2112 10.8187 14.2062 10.8536V13.4931H15.6024C15.6992 13.4919 15.7943 13.518 15.8766 13.5684C15.9136 13.5909 15.9453 13.6209 15.9698 13.6563C15.9943 13.6918 16.011 13.7319 16.0188 13.7741C16.0188 13.7741 16.0188 13.8243 16.0188 13.8494C16.0212 13.8994 16.0114 13.9492 15.9902 13.9946C15.9689 14.04 15.937 14.0797 15.8969 14.1104C15.8084 14.1737 15.7016 14.2071 15.5923 14.2057H13.8761C13.7668 14.2126 13.6582 14.1845 13.5664 14.1254C13.4843 14.0648 13.4296 13.9747 13.4141 13.8745C13.4104 13.8194 13.4104 13.764 13.4141 13.7089L13.3989 10.8536Z" fill="black"/>
<path d="M16.1104 10.8533C16.1074 10.741 16.1472 10.6317 16.2221 10.5472C16.2982 10.4788 16.3958 10.4385 16.4985 10.433C16.6011 10.4275 16.7026 10.4572 16.7857 10.517C16.8577 10.5754 16.9064 10.6572 16.9228 10.7478C16.9253 10.7829 16.9253 10.8182 16.9228 10.8533V12.0827L18.2073 10.6174C18.2568 10.5674 18.3094 10.5205 18.3647 10.4769C18.4169 10.4462 18.4767 10.4305 18.5374 10.4317C18.6261 10.4312 18.7129 10.4575 18.7861 10.507C18.8207 10.53 18.8501 10.5596 18.8728 10.5941C18.8955 10.6286 18.9109 10.6672 18.9182 10.7077C18.9202 10.7177 18.9202 10.7279 18.9182 10.7379C18.9157 10.7494 18.9157 10.7614 18.9182 10.773C18.918 10.8258 18.904 10.8776 18.8775 10.9235C18.8506 10.9721 18.8182 11.0175 18.7811 11.059L17.9382 11.9723L18.9537 13.5279V13.578C19.0064 13.65 19.0475 13.7296 19.0756 13.8139V13.839C19.0814 13.8971 19.0729 13.9558 19.0508 14.01C19.0287 14.0642 18.9937 14.1123 18.9486 14.1501C18.8639 14.2134 18.7603 14.247 18.6541 14.2455C18.5836 14.2484 18.5135 14.2327 18.451 14.2003C18.3834 14.1555 18.3277 14.0952 18.2886 14.0247L17.3442 12.5192L16.8923 12.9859V13.8239C16.8953 13.9362 16.8555 14.0455 16.7806 14.13C16.7405 14.1688 16.6928 14.1991 16.6404 14.2189C16.588 14.2388 16.532 14.2478 16.476 14.2455C16.3823 14.2474 16.2908 14.2173 16.217 14.1602C16.1453 14.1037 16.0966 14.0235 16.0799 13.9344C16.0749 13.8977 16.0749 13.8606 16.0799 13.8239L16.1104 10.8533Z" fill="black"/>
</svg>
